SplineFontDB: 3.0
FontName: ElaineSans-Italic
FullName: Elaine Sans Italic
FamilyName: Elaine Sans
Weight: Book
Copyright: Copyright (c) 2015 by Wei Huang. All rights reserved.
Version: 1.030;PS 001.030;hotconv 1.0.70;makeotf.lib2.5.58329
ItalicAngle: -13
UnderlinePosition: -150
UnderlineWidth: 50
Ascent: 760
Descent: 240
InvalidEm: 0
sfntRevision: 0x000107ae
LayerCount: 2
Layer: 0 1 "Back" 1
Layer: 1 1 "Fore" 0
XUID: [1021 288 1899785369 28914]
StyleMap: 0x0001
FSType: 0
OS2Version: 3
OS2_WeightWidthSlopeOnly: 0
OS2_UseTypoMetrics: 0
CreationTime: 1436215488
ModificationTime: 1543787514
PfmFamily: 81
TTFWeight: 400
TTFWidth: 5
LineGap: 0
VLineGap: 0
Panose: 0 0 5 0 0 0 0 0 0 0
OS2TypoAscent: 760
OS2TypoAOffset: 0
OS2TypoDescent: -240
OS2TypoDOffset: 0
OS2TypoLinegap: 173
OS2WinAscent: 930
OS2WinAOffset: 0
OS2WinDescent: 243
OS2WinDOffset: 0
HheadAscent: 930
HheadAOffset: 0
HheadDescent: -243
HheadDOffset: 0
OS2SubXSize: 650
OS2SubYSize: 600
OS2SubXOff: 0
OS2SubYOff: 75
OS2SupXSize: 650
OS2SupYSize: 600
OS2SupXOff: 0
OS2SupYOff: 350
OS2StrikeYSize: 50
OS2StrikeYPos: 300
OS2CapHeight: 660
OS2XHeight: 500
OS2Vendor: 'UKWN'
OS2CodePages: 20000093.00000000
OS2UnicodeRanges: 00000007.00000001.00000000.00000000
Lookup: 1 0 0 "'aalt' Access All Alternates lookup 0" { "'aalt' Access All Alternates lookup 0 subtable"  } ['aalt' ('DFLT' <'dflt' > 'grek' <'dflt' > 'latn' <'CAT ' 'MOL ' 'NLD ' 'ROM ' 'TRK ' 'dflt' > ) ]
Lookup: 3 0 0 "'aalt' Access All Alternates lookup 1" { "'aalt' Access All Alternates lookup 1 subtable"  } ['aalt' ('DFLT' <'dflt' > 'grek' <'dflt' > 'latn' <'CAT ' 'MOL ' 'NLD ' 'ROM ' 'TRK ' 'dflt' > ) ]
Lookup: 1 0 0 "'locl' Localized Forms in Latin lookup 2" { "'locl' Localized Forms in Latin lookup 2 subtable"  } ['locl' ('latn' <'TRK ' > ) ]
Lookup: 1 0 0 "'locl' Localized Forms in Latin lookup 3" { "'locl' Localized Forms in Latin lookup 3 subtable"  } ['locl' ('latn' <'TAT ' > ) ]

StartChar: .notdef
Encoding: 65536 -1 0
Width: 500
Flags: W
LayerCount: 2
Fore
SplineSet
-26 0 m 1,0,-1
 126 660 l 1,1,-1
 526 660 l 1,2,-1
 374 0 l 1,3,-1
 -26 0 l 1,0,-1
72 80 m 1,4,-1
 312 80 l 1,5,-1
 428 580 l 1,6,-1
 188 580 l 1,7,-1
 72 80 l 1,4,-1
EndSplineSet
EndChar

StartChar: exclam
Encoding: 33 33 4
Width: 272
GlyphClass: 2
Flags: W
LayerCount: 2
Fore
SplineSet
254 660 m 1,0,-1
 188 374 l 1,1,-1
 138 208 l 1,2,-1
 78 208 l 1,3,-1
 104 374 l 1,4,-1
 170 660 l 1,5,-1
 254 660 l 1,0,-1
87.5 120 m 128,-1,7
 117 120 117 120 130.5 102 c 128,-1,8
 144 84 144 84 137.5 55 c 128,-1,9
 131 26 131 26 109 8 c 128,-1,10
 87 -10 87 -10 57.5 -10 c 128,-1,11
 28 -10 28 -10 14.5 8 c 128,-1,12
 1 26 1 26 7.5 55 c 128,-1,13
 14 84 14 84 36 102 c 128,-1,6
 58 120 58 120 87.5 120 c 128,-1,7
EndSplineSet
Substitution2: "'smcp' Lowercase to Small Capitals lookup 12 subtable" exclam.sc
Substitution2: "'c2sc' Capitals to Small Capitals lookup 11 subtable" exclam.sc
Substitution2: "'aalt' Access All Alternates lookup 0 subtable" exclam.sc
EndChar

StartChar: quotedbl
Encoding: 34 34 5
Width: 403
GlyphClass: 2
Flags: W
LayerCount: 2
Fore
SplineSet
253 690 m 1,0,-1
 170 443 l 1,1,-1
 108 443 l 1,2,-1
 165 690 l 1,3,-1
 253 690 l 1,0,-1
422 690 m 1,4,-1
 339 443 l 1,5,-1
 277 443 l 1,6,-1
 334 690 l 1,7,-1
 422 690 l 1,4,-1
EndSplineSet
Substitution2: "'smcp' Lowercase to Small Capitals lookup 12 subtable" quotedbl.sc
Substitution2: "'c2sc' Capitals to Small Capitals lookup 11 subtable" quotedbl.sc
Substitution2: "'aalt' Access All Alternates lookup 0 subtable" quotedbl.sc
EndChar

StartChar: numbersign
Encoding: 35 35 6
Width: 640
GlyphClass: 2
Flags: W
LayerCount: 2
Fore
SplineSet
639 417 m 1,0,-1
 505 417 l 1,1,-1
 437 248 l 1,2,-1
 556 248 l 1,3,-1
 542 187 l 1,4,-1
 413 187 l 1,5,-1
 339 0 l 1,6,-1
 271 0 l 1,7,-1
 345 187 l 1,8,-1
 179 187 l 1,9,-1
 105 0 l 1,10,-1
 37 0 l 1,11,-1
 111 187 l 1,12,-1
 -13 187 l 1,13,-1
 1 248 l 1,14,-1
 135 248 l 1,15,-1
 203 417 l 1,16,-1
 84 417 l 1,17,-1
 98 478 l 1,18,-1
 227 478 l 1,19,-1
 299 660 l 1,20,-1
 367 660 l 1,21,-1
 295 478 l 1,22,-1
 461 478 l 1,23,-1
 533 660 l 1,24,-1
 601 660 l 1,25,-1
 529 478 l 1,26,-1
 653 478 l 1,27,-1
 639 417 l 1,0,-1
369 248 m 1,28,-1
 437 417 l 1,29,-1
 271 417 l 1,30,-1
 203 248 l 1,31,-1
 369 248 l 1,28,-1
EndSplineSet
Substitution2: "'tnum' Tabular Numbers lookup 26 subtable" numbersign.tf
Substitution2: "'aalt' Access All Alternates lookup 0 subtable" numbersign.tf
EndChar

StartChar: dollar
Encoding: 36 36 7
Width: 615
GlyphClass: 2
Flags: W
LayerCount: 2
Fore
SplineSet
180 -100 m 1,0,-1
 203 1 l 1,1,2
 118 9 118 9 68.5 52 c 128,-1,3
 19 95 19 95 10 171 c 1,4,-1
 93 209 l 1,5,6
 92 155 92 155 127.5 117.5 c 128,-1,7
 163 80 163 80 219 69 c 1,8,-1
 272 301 l 1,9,10
 253 305 253 305 239.5 308.5 c 128,-1,11
 226 312 226 312 209 317.5 c 128,-1,12
 192 323 192 323 179.5 328 c 128,-1,13
 167 333 167 333 153.5 341 c 128,-1,14
 140 349 140 349 131.5 357.5 c 128,-1,15
 123 366 123 366 115 378 c 128,-1,16
 107 390 107 390 104 403 c 128,-1,17
 101 416 101 416 101 433 c 128,-1,18
 101 450 101 450 105 469 c 0,19,20
 123 545 123 545 190.5 598 c 128,-1,21
 258 651 258 651 355 659 c 1,22,-1
 378 760 l 1,23,-1
 447 760 l 1,24,-1
 424 658 l 1,25,26
 497 652 497 652 537.5 618.5 c 128,-1,27
 578 585 578 585 598 520 c 1,28,-1
 521 469 l 1,29,30
 509 527 509 527 483.5 555 c 128,-1,31
 458 583 458 583 408 590 c 1,32,-1
 354 355 l 1,33,34
 373 351 373 351 386.5 347.5 c 128,-1,35
 400 344 400 344 417.5 338.5 c 128,-1,36
 435 333 435 333 447 327.5 c 128,-1,37
 459 322 459 322 473 314 c 128,-1,38
 487 306 487 306 495.5 297 c 128,-1,39
 504 288 504 288 512 276.5 c 128,-1,40
 520 265 520 265 523 251 c 128,-1,41
 526 237 526 237 526 220 c 128,-1,42
 526 203 526 203 521 183 c 0,43,44
 503 106 503 106 436 57.5 c 128,-1,45
 369 9 369 9 272 1 c 1,46,-1
 249 -100 l 1,47,-1
 180 -100 l 1,0,-1
288 369 m 1,48,-1
 339 591 l 1,49,50
 274 585 274 585 234 555 c 128,-1,51
 194 525 194 525 183 475 c 0,52,53
 172 430 172 430 200.5 407 c 128,-1,54
 229 384 229 384 288 369 c 1,48,-1
287 67 m 1,55,56
 422 78 422 78 445 177 c 0,57,58
 456 223 456 223 427 247 c 128,-1,59
 398 271 398 271 338 286 c 1,60,-1
 287 67 l 1,55,56
EndSplineSet
Substitution2: "'tnum' Tabular Numbers lookup 26 subtable" dollar.tf
Substitution2: "'aalt' Access All Alternates lookup 0 subtable" dollar.tf
EndChar

StartChar: percent
Encoding: 37 37 8
Width: 856
GlyphClass: 2
Flags: W
LayerCount: 2
Fore
SplineSet
277.5 670 m 128,-1,1
 350 670 350 670 382 620.5 c 128,-1,2
 414 571 414 571 395 488 c 128,-1,3
 376 405 376 405 321 355.5 c 128,-1,4
 266 306 266 306 193.5 306 c 128,-1,5
 121 306 121 306 89.5 355.5 c 128,-1,6
 58 405 58 405 77 488 c 128,-1,7
 96 571 96 571 150.5 620.5 c 128,-1,0
 205 670 205 670 277.5 670 c 128,-1,1
104 0 m 1,8,-1
 676 660 l 1,9,-1
 752 660 l 1,10,-1
 180 0 l 1,11,-1
 104 0 l 1,8,-1
263.5 607 m 128,-1,13
 221 607 221 607 191 576 c 128,-1,14
 161 545 161 545 148 488 c 128,-1,15
 135 431 135 431 150.5 400 c 128,-1,16
 166 369 166 369 208.5 369 c 128,-1,17
 251 369 251 369 281 400 c 128,-1,18
 311 431 311 431 324 488 c 128,-1,19
 337 545 337 545 321.5 576 c 128,-1,12
 306 607 306 607 263.5 607 c 128,-1,13
662.5 354 m 128,-1,21
 735 354 735 354 767 304.5 c 128,-1,22
 799 255 799 255 780 172 c 128,-1,23
 761 89 761 89 706 39.5 c 128,-1,24
 651 -10 651 -10 578.5 -10 c 128,-1,25
 506 -10 506 -10 474.5 39.5 c 128,-1,26
 443 89 443 89 462 172 c 128,-1,27
 481 255 481 255 535.5 304.5 c 128,-1,20
 590 354 590 354 662.5 354 c 128,-1,21
648.5 291 m 128,-1,29
 606 291 606 291 576 260 c 128,-1,30
 546 229 546 229 533 172 c 128,-1,31
 520 115 520 115 535.5 84 c 128,-1,32
 551 53 551 53 593.5 53 c 128,-1,33
 636 53 636 53 666 84 c 128,-1,34
 696 115 696 115 709 172 c 128,-1,35
 722 229 722 229 706.5 260 c 128,-1,28
 691 291 691 291 648.5 291 c 128,-1,29
EndSplineSet
EndChar

StartChar: ampersand
Encoding: 38 38 9
Width: 623
GlyphClass: 2
Flags: W
LayerCount: 2
Fore
SplineSet
450 118 m 1,0,1
 480 77 480 77 503 63.5 c 128,-1,2
 526 50 526 50 563 50 c 1,3,-1
 529 -10 l 1,4,5
 488 -10 488 -10 460 5 c 128,-1,6
 432 20 432 20 395 67 c 1,7,8
 296 -10 296 -10 180 -10 c 0,9,10
 87 -10 87 -10 39.5 38.5 c 128,-1,11
 -8 87 -8 87 9 161 c 0,12,13
 23 223 23 223 71 271.5 c 128,-1,14
 119 320 119 320 214 365 c 1,15,16
 184 421 184 421 175.5 454 c 128,-1,17
 167 487 167 487 175 524 c 0,18,19
 188 582 188 582 239.5 626 c 128,-1,20
 291 670 291 670 364 670 c 0,21,22
 429 670 429 670 465.5 636.5 c 128,-1,23
 502 603 502 603 486 534 c 0,24,25
 473 477 473 477 437 435 c 128,-1,26
 401 393 401 393 313 348 c 1,27,28
 325 325 325 325 360 265 c 0,29,30
 368 251 368 251 388 216.5 c 128,-1,31
 408 182 408 182 418 167 c 1,32,33
 484 246 484 246 502 355 c 1,34,-1
 564 347 l 1,35,36
 542 218 542 218 450 118 c 1,0,1
347 602 m 0,37,38
 309 602 309 602 283.5 580 c 128,-1,39
 258 558 258 558 250 525 c 0,40,41
 244 499 244 499 250.5 474.5 c 128,-1,42
 257 450 257 450 286 397 c 1,43,44
 354 430 354 430 380 461 c 128,-1,45
 406 492 406 492 415 532 c 0,46,47
 431 602 431 602 347 602 c 0,37,38
192 55 m 0,48,49
 283 55 283 55 362 114 c 1,50,51
 337 151 337 151 296 222 c 0,52,53
 285 242 285 242 266.5 273 c 128,-1,54
 248 304 248 304 243 313 c 1,55,56
 161 271 161 271 128 238.5 c 128,-1,57
 95 206 95 206 86 167 c 0,58,59
 74 119 74 119 106 87 c 128,-1,60
 138 55 138 55 192 55 c 0,48,49
EndSplineSet
Substitution2: "'smcp' Lowercase to Small Capitals lookup 12 subtable" ampersand.sc
Substitution2: "'c2sc' Capitals to Small Capitals lookup 11 subtable" ampersand.sc
Substitution2: "'aalt' Access All Alternates lookup 0 subtable" ampersand.sc
EndChar

StartChar: quotesingle
Encoding: 39 39 10
Width: 234
GlyphClass: 2
Flags: W
LayerCount: 2
Fore
SplineSet
253 690 m 1,0,-1
 170 443 l 1,1,-1
 108 443 l 1,2,-1
 165 690 l 1,3,-1
 253 690 l 1,0,-1
EndSplineSet
Substitution2: "'smcp' Lowercase to Small Capitals lookup 12 subtable" quotesingle.sc
Substitution2: "'c2sc' Capitals to Small Capitals lookup 11 subtable" quotesingle.sc
Substitution2: "'aalt' Access All Alternates lookup 0 subtable" quotesingle.sc
EndChar

StartChar: parenleft
Encoding: 40 40 11
Width: 350
GlyphClass: 2
Flags: W
LayerCount: 2
Fore
SplineSet
372 751 m 1,0,-1
 408 705 l 1,1,2
 289 616 289 616 226.5 518 c 128,-1,3
 164 420 164 420 132 281 c 0,4,5
 99 145 99 145 117 45.5 c 128,-1,6
 135 -54 135 -54 212 -143 c 1,7,-1
 155 -189 l 1,8,9
 -16 -4 -16 -4 50 281 c 128,-1,10
 116 566 116 566 372 751 c 1,0,-1
EndSplineSet
Substitution2: "'case' Case-Sensitive Forms lookup 29 subtable" parenleft.case
Substitution2: "'sups' Superscript lookup 15 subtable" uni207D
Substitution2: "'subs' Subscript lookup 14 subtable" uni208D
Substitution2: "'sinf' Scientific Inferiors lookup 13 subtable" uni208D
AlternateSubs2: "'aalt' Access All Alternates lookup 1 subtable" uni208D uni207D parenleft.case
EndChar

StartChar: parenright
Encoding: 41 41 12
Width: 350
GlyphClass: 2
Flags: W
LayerCount: 2
Fore
SplineSet
172 751 m 1,0,1
 344 566 344 566 278 281 c 128,-1,2
 212 -4 212 -4 -45 -189 c 1,3,-1
 -80 -143 l 1,4,5
 38 -54 38 -54 101 44 c 128,-1,6
 164 142 164 142 196 281 c 0,7,8
 229 417 229 417 211 516.5 c 128,-1,9
 193 616 193 616 116 705 c 1,10,-1
 172 751 l 1,0,1
EndSplineSet
Substitution2: "'case' Case-Sensitive Forms lookup 29 subtable" parenright.case
Substitution2: "'sups' Superscript lookup 15 subtable" uni207E
Substitution2: "'subs' Subscript lookup 14 subtable" uni208E
Substitution2: "'sinf' Scientific Inferiors lookup 13 subtable" uni208E
AlternateSubs2: "'aalt' Access All Alternates lookup 1 subtable" uni208E uni207E parenright.case
EndChar

StartChar: asterisk
Encoding: 42 42 13
Width: 572
GlyphClass: 2
Flags: W
LayerCount: 2
Fore
SplineSet
359 483 m 1,0,-1
 401 422 l 1,1,-1
 449 324 l 1,2,-1
 388 286 l 1,3,-1
 338 383 l 1,4,-1
 315 456 l 1,5,-1
 258 383 l 1,6,-1
 164 286 l 1,7,-1
 121 324 l 1,8,-1
 213 422 l 1,9,-1
 285 483 l 1,10,-1
 206 499 l 1,11,-1
 101 537 l 1,12,-1
 134 598 l 1,13,-1
 242 562 l 1,14,-1
 309 527 l 1,15,-1
 318 609 l 1,16,-1
 346 730 l 1,17,-1
 412 730 l 1,18,-1
 384 609 l 1,19,-1
 355 527 l 1,20,-1
 438 562 l 1,21,-1
 562 598 l 1,22,-1
 567 537 l 1,23,-1
 444 499 l 1,24,-1
 359 483 l 1,0,-1
EndSplineSet
EndChar

StartChar: plus
Encoding: 43 43 14
Width: 604
GlyphClass: 2
Flags: W
LayerCount: 2
Fore
SplineSet
551 354 m 1,0,-1
 533 279 l 1,1,-1
 328 279 l 1,2,-1
 280 68 l 1,3,-1
 205 68 l 1,4,-1
 253 279 l 1,5,-1
 47 279 l 1,6,-1
 65 354 l 1,7,-1
 271 354 l 1,8,-1
 319 564 l 1,9,-1
 394 564 l 1,10,-1
 346 354 l 1,11,-1
 551 354 l 1,0,-1
EndSplineSet
Substitution2: "'sups' Superscript lookup 15 subtable" uni207A
Substitution2: "'subs' Subscript lookup 14 subtable" uni208A
Substitution2: "'sinf' Scientific Inferiors lookup 13 subtable" uni208A
AlternateSubs2: "'aalt' Access All Alternates lookup 1 subtable" uni208A uni207A
EndChar

StartChar: comma
Encoding: 44 44 15
Width: 266
GlyphClass: 2
Flags: W
LayerCount: 2
Fore
SplineSet
85 120 m 0,0,1
 119 120 119 120 133 93 c 128,-1,2
 147 66 147 66 137 23 c 0,3,4
 125 -30 125 -30 87.5 -75 c 128,-1,5
 50 -120 50 -120 -11 -146 c 1,6,-1
 -44 -107 l 1,7,8
 -2 -94 -2 -94 30.5 -66 c 128,-1,9
 63 -38 63 -38 78 -5 c 1,10,-1
 74 -3 l 1,11,12
 64 -10 64 -10 45 -10 c 0,13,14
 24 -10 24 -10 10.5 6.5 c 128,-1,15
 -3 23 -3 23 4 53 c 0,16,17
 11 80 11 80 34.5 100 c 128,-1,18
 58 120 58 120 85 120 c 0,0,1
EndSplineSet
Substitution2: "'tnum' Tabular Numbers lookup 26 subtable" comma.tf
Substitution2: "'sups' Superscript lookup 15 subtable" commasuperior
Substitution2: "'subs' Subscript lookup 14 subtable" commainferior
Substitution2: "'sinf' Scientific Inferiors lookup 13 subtable" commainferior
AlternateSubs2: "'aalt' Access All Alternates lookup 1 subtable" commainferior commasuperior comma.tf
EndChar

StartChar: hyphen
Encoding: 45 45 16
Width: 510
GlyphClass: 2
Flags: W
LayerCount: 2
Fore
SplineSet
414 303 m 1,0,-1
 395 220 l 1,1,-1
 65 220 l 1,2,-1
 84 303 l 1,3,-1
 414 303 l 1,0,-1
EndSplineSet
Substitution2: "'case' Case-Sensitive Forms lookup 29 subtable" hyphen.case
Substitution2: "'sups' Superscript lookup 15 subtable" hyphensuperior
Substitution2: "'subs' Subscript lookup 14 subtable" hypheninferior
Substitution2: "'sinf' Scientific Inferiors lookup 13 subtable" hypheninferior
AlternateSubs2: "'aalt' Access All Alternates lookup 1 subtable" hypheninferior hyphensuperior hyphen.case
EndChar

StartChar: period
Encoding: 46 46 17
Width: 266
GlyphClass: 2
Flags: W
LayerCount: 2
Fore
SplineSet
84.5 120 m 128,-1,1
 114 120 114 120 127.5 102 c 128,-1,2
 141 84 141 84 134.5 55 c 128,-1,3
 128 26 128 26 106 8 c 128,-1,4
 84 -10 84 -10 54.5 -10 c 128,-1,5
 25 -10 25 -10 11.5 8 c 128,-1,6
 -2 26 -2 26 4.5 55 c 128,-1,7
 11 84 11 84 33 102 c 128,-1,0
 55 120 55 120 84.5 120 c 128,-1,1
EndSplineSet
Substitution2: "'tnum' Tabular Numbers lookup 26 subtable" period.tf
Substitution2: "'sups' Superscript lookup 15 subtable" periodsuperior
Substitution2: "'subs' Subscript lookup 14 subtable" periodinferior
Substitution2: "'sinf' Scientific Inferiors lookup 13 subtable" periodinferior
AlternateSubs2: "'aalt' Access All Alternates lookup 1 subtable" periodinferior periodsuperior period.tf
EndChar

StartChar: slash
Encoding: 47 47 18
Width: 438
GlyphClass: 2
Flags: W
LayerCount: 2
Fore
SplineSet
502 730 m 1,0,-1
 11 -70 l 1,1,-1
 -64 -70 l 1,2,-1
 427 730 l 1,3,-1
 502 730 l 1,0,-1
EndSplineSet
Substitution2: "'frac' Diagonal Fractions lookup 18 subtable" fraction
Substitution2: "'aalt' Access All Alternates lookup 0 subtable" fraction
EndChar

StartChar: zero
Encoding: 48 48 19
Width: 604
GlyphClass: 2
Flags: W
LayerCount: 2
Fore
SplineSet
224 -10 m 128,-1,1
 104 -10 104 -10 61 77 c 128,-1,2
 18 164 18 164 56 330 c 128,-1,3
 94 496 94 496 177.5 583 c 128,-1,4
 261 670 261 670 381 670 c 128,-1,5
 501 670 501 670 543.5 583 c 128,-1,6
 586 496 586 496 548 330 c 128,-1,7
 510 164 510 164 427 77 c 128,-1,0
 344 -10 344 -10 224 -10 c 128,-1,1
240.5 62 m 128,-1,9
 320 62 320 62 377.5 130.5 c 128,-1,10
 435 199 435 199 465 329.5 c 128,-1,11
 495 460 495 460 469.5 529 c 128,-1,12
 444 598 444 598 364.5 598 c 128,-1,13
 285 598 285 598 227 529.5 c 128,-1,14
 169 461 169 461 139 330.5 c 128,-1,15
 109 200 109 200 135 131 c 128,-1,8
 161 62 161 62 240.5 62 c 128,-1,9
EndSplineSet
Substitution2: "'zero' Slashed Zero lookup 28 subtable" zero.zero
Substitution2: "'onum' Oldstyle Figures lookup 27 subtable" zero.osf
Substitution2: "'tnum' Tabular Numbers lookup 26 subtable" zero.tf
Substitution2: "'frac' Diagonal Fractions lookup 19 subtable" zero.numr
Substitution2: "'dnom' Denominators lookup 17 subtable" zero.dnom
Substitution2: "'numr' Numerators lookup 16 subtable" zero.numr
Substitution2: "'sups' Superscript lookup 15 subtable" uni2070
Substitution2: "'subs' Subscript lookup 14 subtable" uni2080
Substitution2: "'sinf' Scientific Inferiors lookup 13 subtable" uni2080
Substitution2: "'smcp' Lowercase to Small Capitals lookup 12 subtable" zero.sc
Substitution2: "'c2sc' Capitals to Small Capitals lookup 11 subtable" zero.sc
AlternateSubs2: "'aalt' Access All Alternates lookup 1 subtable" zero.sc uni2080 uni2070 zero.numr zero.dnom zero.tf zero.osf zero.zero
EndChar

StartChar: one
Encoding: 49 49 20
Width: 604
GlyphClass: 2
Flags: W
LayerCount: 2
Fore
SplineSet
328 72 m 1,0,-1
 507 72 l 1,1,-1
 490 0 l 1,2,-1
 32 0 l 1,3,-1
 49 72 l 1,4,-1
 248 72 l 1,5,-1
 343 486 l 2,6,7
 348 508 348 508 364 566 c 1,8,9
 318 532 318 532 260 506 c 128,-1,10
 202 480 202 480 150 468 c 1,11,-1
 146 541 l 1,12,13
 187 546 187 546 273 585.5 c 128,-1,14
 359 625 359 625 393 660 c 1,15,-1
 463 660 l 1,16,-1
 328 72 l 1,0,-1
EndSplineSet
Substitution2: "'onum' Oldstyle Figures lookup 27 subtable" one.osf
Substitution2: "'tnum' Tabular Numbers lookup 26 subtable" one.tf
Substitution2: "'nalt' Alternate Annotation Forms lookup 23 subtable" uni2780
Substitution2: "'frac' Diagonal Fractions lookup 19 subtable" one.numr
Substitution2: "'dnom' Denominators lookup 17 subtable" one.dnom
Substitution2: "'numr' Numerators lookup 16 subtable" one.numr
Substitution2: "'sups' Superscript lookup 15 subtable" uni00B9
Substitution2: "'subs' Subscript lookup 14 subtable" uni2081
Substitution2: "'sinf' Scientific Inferiors lookup 13 subtable" uni2081
Substitution2: "'smcp' Lowercase to Small Capitals lookup 12 subtable" one.sc
Substitution2: "'c2sc' Capitals to Small Capitals lookup 11 subtable" one.sc
AlternateSubs2: "'aalt' Access All Alternates lookup 1 subtable" one.sc uni2081 uni00B9 one.numr one.dnom uni2780 one.tf one.osf
EndChar

StartChar: two
Encoding: 50 50 21
Width: 604
GlyphClass: 2
Flags: W
LayerCount: 2
Fore
SplineSet
7 0 m 1,0,-1
 22 65 l 1,1,2
 258 213 258 213 349 295 c 128,-1,3
 440 377 440 377 460 463 c 0,4,5
 474 522 474 522 444 558.5 c 128,-1,6
 414 595 414 595 350 595 c 0,7,8
 283 595 283 595 231.5 551 c 128,-1,9
 180 507 180 507 156 432 c 1,10,-1
 95 474 l 1,11,12
 129 563 129 563 201 616.5 c 128,-1,13
 273 670 273 670 371 670 c 0,14,15
 471 670 471 670 518 612.5 c 128,-1,16
 565 555 565 555 544 463 c 0,17,18
 522 368 522 368 430 278 c 128,-1,19
 338 188 338 188 138 73 c 1,20,-1
 138 72 l 1,21,22
 204 75 204 75 237 75 c 2,23,-1
 468 75 l 1,24,-1
 451 0 l 1,25,-1
 7 0 l 1,0,-1
EndSplineSet
Substitution2: "'onum' Oldstyle Figures lookup 27 subtable" two.osf
Substitution2: "'tnum' Tabular Numbers lookup 26 subtable" two.tf
Substitution2: "'nalt' Alternate Annotation Forms lookup 23 subtable" uni2781
Substitution2: "'frac' Diagonal Fractions lookup 19 subtable" two.numr
Substitution2: "'dnom' Denominators lookup 17 subtable" two.dnom
Substitution2: "'numr' Numerators lookup 16 subtable" two.numr
Substitution2: "'sups' Superscript lookup 15 subtable" uni00B2
Substitution2: "'subs' Subscript lookup 14 subtable" uni2082
Substitution2: "'sinf' Scientific Inferiors lookup 13 subtable" uni2082
Substitution2: "'smcp' Lowercase to Small Capitals lookup 12 subtable" two.sc
Substitution2: "'c2sc' Capitals to Small Capitals lookup 11 subtable" two.sc
AlternateSubs2: "'aalt' Access All Alternates lookup 1 subtable" two.sc uni2082 uni00B2 two.numr two.dnom uni2781 two.tf two.osf
EndChar

StartChar: three
Encoding: 51 51 22
Width: 604
GlyphClass: 2
Flags: W
LayerCount: 2
Fore
SplineSet
386 670 m 0,0,1
 483 670 483 670 526 620 c 128,-1,2
 569 570 569 570 552 498 c 0,3,4
 536 429 536 429 488.5 382 c 128,-1,5
 441 335 441 335 390 335 c 1,6,-1
 390 333 l 1,7,8
 453 333 453 333 480.5 287.5 c 128,-1,9
 508 242 508 242 493 177 c 0,10,11
 474 96 474 96 398 43 c 128,-1,12
 322 -10 322 -10 218 -10 c 0,13,14
 135 -10 135 -10 87 30 c 128,-1,15
 39 70 39 70 26 148 c 1,16,-1
 114 189 l 1,17,18
 116 127 116 127 144 96 c 128,-1,19
 172 65 172 65 241 65 c 0,20,21
 309 65 309 65 354.5 99 c 128,-1,22
 400 133 400 133 412 187 c 0,23,24
 425 246 425 246 394 270.5 c 128,-1,25
 363 295 363 295 285 295 c 2,26,-1
 259 295 l 1,27,-1
 276 370 l 1,28,-1
 302 370 l 2,29,30
 438 370 438 370 465 479 c 0,31,32
 479 536 479 536 454 565.5 c 128,-1,33
 429 595 429 595 369 595 c 0,34,35
 256 595 256 595 206 494 c 1,36,-1
 139 529 l 1,37,38
 178 594 178 594 244 632 c 128,-1,39
 310 670 310 670 386 670 c 0,0,1
EndSplineSet
Substitution2: "'onum' Oldstyle Figures lookup 27 subtable" three.osf
Substitution2: "'tnum' Tabular Numbers lookup 26 subtable" three.tf
Substitution2: "'nalt' Alternate Annotation Forms lookup 23 subtable" uni2782
Substitution2: "'frac' Diagonal Fractions lookup 19 subtable" three.numr
Substitution2: "'dnom' Denominators lookup 17 subtable" three.dnom
Substitution2: "'numr' Numerators lookup 16 subtable" three.numr
Substitution2: "'sups' Superscript lookup 15 subtable" uni00B3
Substitution2: "'subs' Subscript lookup 14 subtable" uni2083
Substitution2: "'sinf' Scientific Inferiors lookup 13 subtable" uni2083
Substitution2: "'smcp' Lowercase to Small Capitals lookup 12 subtable" three.sc
Substitution2: "'c2sc' Capitals to Small Capitals lookup 11 subtable" three.sc
AlternateSubs2: "'aalt' Access All Alternates lookup 1 subtable" three.sc uni2083 uni00B3 three.numr three.dnom uni2782 three.tf three.osf
EndChar

StartChar: four
Encoding: 52 52 23
Width: 604
GlyphClass: 2
Flags: W
LayerCount: 2
Fore
SplineSet
284 0 m 1,0,-1
 324 173 l 1,1,-1
 8 173 l 1,2,-1
 22 232 l 1,3,-1
 412 660 l 1,4,-1
 516 660 l 1,5,-1
 420 242 l 1,6,-1
 543 242 l 1,7,-1
 527 173 l 1,8,-1
 404 173 l 1,9,-1
 364 0 l 1,10,-1
 284 0 l 1,0,-1
107 242 m 1,11,-1
 340 242 l 1,12,-1
 390 457 l 2,13,14
 406 529 406 529 424 590 c 1,15,-1
 422 590 l 1,16,17
 390 543 390 543 336 486 c 2,18,-1
 107 242 l 1,11,-1
EndSplineSet
Substitution2: "'onum' Oldstyle Figures lookup 27 subtable" four.osf
Substitution2: "'tnum' Tabular Numbers lookup 26 subtable" four.tf
Substitution2: "'nalt' Alternate Annotation Forms lookup 23 subtable" uni2783
Substitution2: "'frac' Diagonal Fractions lookup 19 subtable" four.numr
Substitution2: "'dnom' Denominators lookup 17 subtable" four.dnom
Substitution2: "'numr' Numerators lookup 16 subtable" four.numr
Substitution2: "'sups' Superscript lookup 15 subtable" uni2074
Substitution2: "'subs' Subscript lookup 14 subtable" uni2084
Substitution2: "'sinf' Scientific Inferiors lookup 13 subtable" uni2084
Substitution2: "'smcp' Lowercase to Small Capitals lookup 12 subtable" four.sc
Substitution2: "'c2sc' Capitals to Small Capitals lookup 11 subtable" four.sc
AlternateSubs2: "'aalt' Access All Alternates lookup 1 subtable" four.sc uni2084 uni2074 four.numr four.dnom uni2783 four.tf four.osf
EndChar

StartChar: five
Encoding: 53 53 24
Width: 604
GlyphClass: 2
Flags: W
LayerCount: 2
Fore
SplineSet
346 423 m 0,0,1
 440 423 440 423 483.5 364.5 c 128,-1,2
 527 306 527 306 504 210 c 0,3,4
 481 107 481 107 407 48.5 c 128,-1,5
 333 -10 333 -10 228 -10 c 0,6,7
 138 -10 138 -10 91.5 28.5 c 128,-1,8
 45 67 45 67 33 141 c 1,9,-1
 120 182 l 1,10,11
 124 124 124 124 150.5 94.5 c 128,-1,12
 177 65 177 65 242 65 c 0,13,14
 310 65 310 65 358 102.5 c 128,-1,15
 406 140 406 140 421 206 c 0,16,17
 436 275 436 275 408 311.5 c 128,-1,18
 380 348 380 348 313 348 c 0,19,20
 210 348 210 348 152 284 c 1,21,-1
 81 284 l 1,22,-1
 207 660 l 1,23,-1
 578 660 l 1,24,-1
 561 585 l 1,25,-1
 258 585 l 1,26,-1
 184 377 l 1,27,-1
 181 368 l 1,28,-1
 182 368 l 1,29,30
 248 423 248 423 346 423 c 0,0,1
EndSplineSet
Substitution2: "'onum' Oldstyle Figures lookup 27 subtable" five.osf
Substitution2: "'tnum' Tabular Numbers lookup 26 subtable" five.tf
Substitution2: "'nalt' Alternate Annotation Forms lookup 23 subtable" uni2784
Substitution2: "'frac' Diagonal Fractions lookup 19 subtable" five.numr
Substitution2: "'dnom' Denominators lookup 17 subtable" five.dnom
Substitution2: "'numr' Numerators lookup 16 subtable" five.numr
Substitution2: "'sups' Superscript lookup 15 subtable" uni2075
Substitution2: "'subs' Subscript lookup 14 subtable" uni2085
Substitution2: "'sinf' Scientific Inferiors lookup 13 subtable" uni2085
Substitution2: "'smcp' Lowercase to Small Capitals lookup 12 subtable" five.sc
Substitution2: "'c2sc' Capitals to Small Capitals lookup 11 subtable" five.sc
AlternateSubs2: "'aalt' Access All Alternates lookup 1 subtable" five.sc uni2085 uni2075 five.numr five.dnom uni2784 five.tf five.osf
EndChar

StartChar: six
Encoding: 54 54 25
Width: 604
GlyphClass: 2
Flags: W
LayerCount: 2
Fore
SplineSet
408 670 m 0,0,1
 487 670 487 670 529.5 637 c 128,-1,2
 572 604 572 604 586 531 c 1,3,-1
 504 496 l 1,4,5
 494 595 494 595 385 595 c 0,6,7
 307 595 307 595 238.5 514.5 c 128,-1,8
 170 434 170 434 143 315 c 2,9,-1
 139 297 l 1,10,-1
 143 297 l 1,11,12
 172 356 172 356 231.5 387 c 128,-1,13
 291 418 291 418 352 418 c 0,14,15
 452 418 452 418 499.5 360 c 128,-1,16
 547 302 547 302 524 204 c 256,17,18
 501 106 501 106 426.5 48 c 128,-1,19
 352 -10 352 -10 248 -10 c 0,20,21
 167 -10 167 -10 118 34.5 c 128,-1,22
 69 79 69 79 59.5 154.5 c 128,-1,23
 50 230 50 230 71 330 c 0,24,25
 108 491 108 491 201 580.5 c 128,-1,26
 294 670 294 670 408 670 c 0,0,1
328 341 m 0,27,28
 263 341 263 341 214.5 303 c 128,-1,29
 166 265 166 265 152 205 c 0,30,31
 138 143 138 143 169 105 c 128,-1,32
 200 67 200 67 264 67 c 0,33,34
 333 67 333 67 379 103.5 c 128,-1,35
 425 140 425 140 440 205 c 0,36,37
 455 268 455 268 425.5 304.5 c 128,-1,38
 396 341 396 341 328 341 c 0,27,28
EndSplineSet
Substitution2: "'onum' Oldstyle Figures lookup 27 subtable" six.osf
Substitution2: "'tnum' Tabular Numbers lookup 26 subtable" six.tf
Substitution2: "'nalt' Alternate Annotation Forms lookup 23 subtable" uni2785
Substitution2: "'frac' Diagonal Fractions lookup 19 subtable" six.numr
Substitution2: "'dnom' Denominators lookup 17 subtable" six.dnom
Substitution2: "'numr' Numerators lookup 16 subtable" six.numr
Substitution2: "'sups' Superscript lookup 15 subtable" uni2076
Substitution2: "'subs' Subscript lookup 14 subtable" uni2086
Substitution2: "'sinf' Scientific Inferiors lookup 13 subtable" uni2086
Substitution2: "'smcp' Lowercase to Small Capitals lookup 12 subtable" six.sc
Substitution2: "'c2sc' Capitals to Small Capitals lookup 11 subtable" six.sc
AlternateSubs2: "'aalt' Access All Alternates lookup 1 subtable" six.sc uni2086 uni2076 six.numr six.dnom uni2785 six.tf six.osf
EndChar

StartChar: seven
Encoding: 55 55 26
Width: 604
GlyphClass: 2
Flags: W
LayerCount: 2
Fore
SplineSet
128 660 m 1,0,-1
 639 660 l 1,1,-1
 622 585 l 1,2,3
 462 453 462 453 367 310 c 128,-1,4
 272 167 272 167 233 0 c 1,5,-1
 151 0 l 1,6,7
 188 160 188 160 286.5 310.5 c 128,-1,8
 385 461 385 461 534 585 c 1,9,-1
 111 585 l 1,10,-1
 128 660 l 1,0,-1
EndSplineSet
Substitution2: "'onum' Oldstyle Figures lookup 27 subtable" seven.osf
Substitution2: "'tnum' Tabular Numbers lookup 26 subtable" seven.tf
Substitution2: "'nalt' Alternate Annotation Forms lookup 23 subtable" uni2786
Substitution2: "'frac' Diagonal Fractions lookup 19 subtable" seven.numr
Substitution2: "'dnom' Denominators lookup 17 subtable" seven.dnom
Substitution2: "'numr' Numerators lookup 16 subtable" seven.numr
Substitution2: "'sups' Superscript lookup 15 subtable" uni2077
Substitution2: "'subs' Subscript lookup 14 subtable" uni2087
Substitution2: "'sinf' Scientific Inferiors lookup 13 subtable" uni2087
Substitution2: "'smcp' Lowercase to Small Capitals lookup 12 subtable" seven.sc
Substitution2: "'c2sc' Capitals to Small Capitals lookup 11 subtable" seven.sc
AlternateSubs2: "'aalt' Access All Alternates lookup 1 subtable" seven.sc uni2087 uni2077 seven.numr seven.dnom uni2786 seven.tf seven.osf
EndChar

StartChar: eight
Encoding: 56 56 27
Width: 604
GlyphClass: 2
Flags: W
LayerCount: 2
Fore
SplineSet
380.5 669 m 128,-1,1
 473 669 473 669 518 622.5 c 128,-1,2
 563 576 563 576 545 496 c 0,3,4
 533 446 533 446 499.5 407 c 128,-1,5
 466 368 466 368 419 348 c 1,6,-1
 419 347 l 1,7,8
 470 325 470 325 492 282 c 128,-1,9
 514 239 514 239 500 178 c 0,10,11
 480 92 480 92 405 41 c 128,-1,12
 330 -10 330 -10 224 -10 c 256,13,14
 118 -10 118 -10 66 41 c 128,-1,15
 14 92 14 92 34 178 c 0,16,17
 48 238 48 238 90.5 282 c 128,-1,18
 133 326 133 326 194 347 c 1,19,-1
 194 348 l 1,20,21
 157 367 157 367 141 406 c 128,-1,22
 125 445 125 445 137 496 c 0,23,24
 155 576 155 576 221.5 622.5 c 128,-1,0
 288 669 288 669 380.5 669 c 128,-1,1
363 594 m 128,-1,26
 307 594 307 594 268 566 c 128,-1,27
 229 538 229 538 218 488 c 0,28,29
 207 440 207 440 233.5 411.5 c 128,-1,30
 260 383 260 383 314.5 383 c 128,-1,31
 369 383 369 383 409 411.5 c 128,-1,32
 449 440 449 440 460 488 c 0,33,34
 471 538 471 538 445 566 c 128,-1,25
 419 594 419 594 363 594 c 128,-1,26
241 65 m 0,35,36
 311 65 311 65 358.5 97.5 c 128,-1,37
 406 130 406 130 419 186 c 0,38,39
 432 243 432 243 399 275.5 c 128,-1,40
 366 308 366 308 297 308 c 0,41,42
 229 308 229 308 180.5 275 c 128,-1,43
 132 242 132 242 119 186 c 256,44,45
 106 130 106 130 139 97.5 c 128,-1,46
 172 65 172 65 241 65 c 0,35,36
EndSplineSet
Substitution2: "'onum' Oldstyle Figures lookup 27 subtable" eight.osf
Substitution2: "'tnum' Tabular Numbers lookup 26 subtable" eight.tf
Substitution2: "'nalt' Alternate Annotation Forms lookup 23 subtable" uni2787
Substitution2: "'frac' Diagonal Fractions lookup 19 subtable" eight.numr
Substitution2: "'dnom' Denominators lookup 17 subtable" eight.dnom
Substitution2: "'numr' Numerators lookup 16 subtable" eight.numr
Substitution2: "'sups' Superscript lookup 15 subtable" uni2078
Substitution2: "'subs' Subscript lookup 14 subtable" uni2088
Substitution2: "'sinf' Scientific Inferiors lookup 13 subtable" uni2088
Substitution2: "'smcp' Lowercase to Small Capitals lookup 12 subtable" eight.sc
Substitution2: "'c2sc' Capitals to Small Capitals lookup 11 subtable" eight.sc
AlternateSubs2: "'aalt' Access All Alternates lookup 1 subtable" eight.sc uni2088 uni2078 eight.numr eight.dnom uni2787 eight.tf eight.osf
EndChar

StartChar: nine
Encoding: 57 57 28
Width: 604
GlyphClass: 2
Flags: W
LayerCount: 2
Fore
SplineSet
363 670 m 0,0,1
 484 670 484 670 529.5 577 c 128,-1,2
 575 484 575 484 539 330 c 0,3,4
 501 164 501 164 416 77 c 128,-1,5
 331 -10 331 -10 207 -10 c 0,6,7
 117 -10 117 -10 70.5 27 c 128,-1,8
 24 64 24 64 12 139 c 1,9,-1
 101 181 l 1,10,11
 105 122 105 122 130 93.5 c 128,-1,12
 155 65 155 65 223 65 c 0,13,14
 322 65 322 65 381 140 c 128,-1,15
 440 215 440 215 472 357 c 2,16,-1
 474 366 l 1,17,-1
 470 366 l 1,18,19
 450 321 450 321 412 292 c 128,-1,20
 374 263 374 263 336.5 252.5 c 128,-1,21
 299 242 299 242 258 242 c 0,22,23
 158 242 158 242 111 300 c 128,-1,24
 64 358 64 358 86 456 c 0,25,26
 109 554 109 554 183.5 612 c 128,-1,27
 258 670 258 670 363 670 c 0,0,1
346 593 m 0,28,29
 278 593 278 593 231.5 556.5 c 128,-1,30
 185 520 185 520 170 455 c 0,31,32
 155 392 155 392 185 355.5 c 128,-1,33
 215 319 215 319 283 319 c 0,34,35
 347 319 347 319 395.5 357 c 128,-1,36
 444 395 444 395 458 455 c 0,37,38
 472 517 472 517 441.5 555 c 128,-1,39
 411 593 411 593 346 593 c 0,28,29
EndSplineSet
Substitution2: "'onum' Oldstyle Figures lookup 27 subtable" nine.osf
Substitution2: "'tnum' Tabular Numbers lookup 26 subtable" nine.tf
Substitution2: "'nalt' Alternate Annotation Forms lookup 23 subtable" uni2788
Substitution2: "'frac' Diagonal Fractions lookup 19 subtable" nine.numr
Substitution2: "'dnom' Denominators lookup 17 subtable" nine.dnom
Substitution2: "'numr' Numerators lookup 16 subtable" nine.numr
Substitution2: "'sups' Superscript lookup 15 subtable" uni2079
Substitution2: "'subs' Subscript lookup 14 subtable" uni2089
Substitution2: "'sinf' Scientific Inferiors lookup 13 subtable" uni2089
Substitution2: "'smcp' Lowercase to Small Capitals lookup 12 subtable" nine.sc
Substitution2: "'c2sc' Capitals to Small Capitals lookup 11 subtable" nine.sc
AlternateSubs2: "'aalt' Access All Alternates lookup 1 subtable" nine.sc uni2089 uni2079 nine.numr nine.dnom uni2788 nine.tf nine.osf
EndChar

StartChar: colon
Encoding: 58 58 29
Width: 296
GlyphClass: 2
Flags: W
LayerCount: 2
Fore
SplineSet
189.5 510 m 128,-1,1
 219 510 219 510 232.5 492 c 128,-1,2
 246 474 246 474 239.5 445 c 128,-1,3
 233 416 233 416 211 398 c 128,-1,4
 189 380 189 380 159.5 380 c 128,-1,5
 130 380 130 380 116.5 398 c 128,-1,6
 103 416 103 416 109.5 445 c 128,-1,7
 116 474 116 474 138 492 c 128,-1,0
 160 510 160 510 189.5 510 c 128,-1,1
99.5 120 m 128,-1,9
 129 120 129 120 142.5 102 c 128,-1,10
 156 84 156 84 149.5 55 c 128,-1,11
 143 26 143 26 121 8 c 128,-1,12
 99 -10 99 -10 69.5 -10 c 128,-1,13
 40 -10 40 -10 26.5 8 c 128,-1,14
 13 26 13 26 19.5 55 c 128,-1,15
 26 84 26 84 48 102 c 128,-1,8
 70 120 70 120 99.5 120 c 128,-1,9
EndSplineSet
Substitution2: "'tnum' Tabular Numbers lookup 26 subtable" colon.tf
Substitution2: "'sups' Superscript lookup 15 subtable" colonsuperior
Substitution2: "'subs' Subscript lookup 14 subtable" coloninferior
Substitution2: "'sinf' Scientific Inferiors lookup 13 subtable" coloninferior
AlternateSubs2: "'aalt' Access All Alternates lookup 1 subtable" coloninferior colonsuperior colon.tf
EndChar

StartChar: semicolon
Encoding: 59 59 30
Width: 296
GlyphClass: 2
Flags: W
LayerCount: 2
Fore
SplineSet
165.5 380 m 128,-1,1
 136 380 136 380 122.5 398 c 128,-1,2
 109 416 109 416 115.5 445 c 128,-1,3
 122 474 122 474 144 492 c 128,-1,4
 166 510 166 510 195.5 510 c 128,-1,5
 225 510 225 510 238.5 492 c 128,-1,6
 252 474 252 474 245.5 445 c 128,-1,7
 239 416 239 416 217 398 c 128,-1,0
 195 380 195 380 165.5 380 c 128,-1,1
102 120 m 0,8,9
 136 120 136 120 150 93 c 128,-1,10
 164 66 164 66 154 23 c 0,11,12
 142 -30 142 -30 104.5 -75 c 128,-1,13
 67 -120 67 -120 6 -146 c 1,14,-1
 -27 -107 l 1,15,16
 15 -94 15 -94 47.5 -66 c 128,-1,17
 80 -38 80 -38 95 -5 c 1,18,-1
 91 -3 l 1,19,20
 81 -10 81 -10 62 -10 c 0,21,22
 41 -10 41 -10 27.5 6.5 c 128,-1,23
 14 23 14 23 21 53 c 0,24,25
 28 80 28 80 51.5 100 c 128,-1,26
 75 120 75 120 102 120 c 0,8,9
EndSplineSet
Substitution2: "'tnum' Tabular Numbers lookup 26 subtable" semicolon.tf
Substitution2: "'aalt' Access All Alternates lookup 0 subtable" semicolon.tf
EndChar

StartChar: less
Encoding: 60 60 31
Width: 604
GlyphClass: 2
Flags: W
LayerCount: 2
Fore
SplineSet
603 571 m 1,0,-1
 584 488 l 1,1,-1
 128 300 l 1,2,-1
 497 111 l 1,3,-1
 477 28 l 1,4,-1
 53 253 l 1,5,-1
 75 346 l 1,6,-1
 603 571 l 1,0,-1
EndSplineSet
EndChar

StartChar: equal
Encoding: 61 61 32
Width: 604
GlyphClass: 2
Flags: W
LayerCount: 2
Fore
SplineSet
566 441 m 1,0,-1
 548 366 l 1,1,-1
 72 366 l 1,2,-1
 90 441 l 1,3,-1
 566 441 l 1,0,-1
520 241 m 1,4,-1
 502 166 l 1,5,-1
 26 166 l 1,6,-1
 44 241 l 1,7,-1
 520 241 l 1,4,-1
EndSplineSet
Substitution2: "'sups' Superscript lookup 15 subtable" uni207C
Substitution2: "'subs' Subscript lookup 14 subtable" uni208C
Substitution2: "'sinf' Scientific Inferiors lookup 13 subtable" uni208C
AlternateSubs2: "'aalt' Access All Alternates lookup 1 subtable" uni208C uni207C
EndChar

StartChar: greater
Encoding: 62 62 33
Width: 604
GlyphClass: 2
Flags: W
LayerCount: 2
Fore
SplineSet
113 571 m 1,0,-1
 537 346 l 1,1,-1
 515 253 l 1,2,-1
 -13 28 l 1,3,-1
 7 111 l 1,4,-1
 462 300 l 1,5,-1
 94 488 l 1,6,-1
 113 571 l 1,0,-1
EndSplineSet
EndChar

StartChar: question
Encoding: 63 63 34
Width: 542
GlyphClass: 2
Flags: W
LayerCount: 2
Fore
SplineSet
352 670 m 0,0,1
 449 670 449 670 499 624 c 128,-1,2
 549 578 549 578 531 500 c 0,3,4
 512 417 512 417 449 370.5 c 128,-1,5
 386 324 386 324 301 315 c 1,6,-1
 276 208 l 1,7,-1
 193 208 l 1,8,-1
 228 358 l 1,9,10
 332 373 332 373 382 403 c 128,-1,11
 432 433 432 433 445 490 c 0,12,13
 456 539 456 539 427 567 c 128,-1,14
 398 595 398 595 328 595 c 0,15,16
 263 595 263 595 212.5 558.5 c 128,-1,17
 162 522 162 522 140 459 c 1,18,-1
 78 500 l 1,19,20
 113 578 113 578 186 624 c 128,-1,21
 259 670 259 670 352 670 c 0,0,1
212.5 120 m 128,-1,23
 242 120 242 120 255.5 102 c 128,-1,24
 269 84 269 84 262.5 55 c 128,-1,25
 256 26 256 26 234 8 c 128,-1,26
 212 -10 212 -10 182.5 -10 c 128,-1,27
 153 -10 153 -10 139.5 8 c 128,-1,28
 126 26 126 26 132.5 55 c 128,-1,29
 139 84 139 84 161 102 c 128,-1,22
 183 120 183 120 212.5 120 c 128,-1,23
EndSplineSet
Substitution2: "'smcp' Lowercase to Small Capitals lookup 12 subtable" question.sc
Substitution2: "'c2sc' Capitals to Small Capitals lookup 11 subtable" question.sc
Substitution2: "'aalt' Access All Alternates lookup 0 subtable" question.sc
EndChar

StartChar: at
Encoding: 64 64 35
Width: 985
GlyphClass: 2
Flags: W
LayerCount: 2
Fore
SplineSet
583 660 m 0,0,1
 666 660 666 660 729 639.5 c 128,-1,2
 792 619 792 619 830.5 582.5 c 128,-1,3
 869 546 869 546 891 496 c 128,-1,4
 913 446 913 446 913 386.5 c 128,-1,5
 913 327 913 327 899 260 c 0,6,7
 871 138 871 138 804.5 66.5 c 128,-1,8
 738 -5 738 -5 654 -5 c 0,9,10
 603 -5 603 -5 581 21.5 c 128,-1,11
 559 48 559 48 559 87 c 1,12,13
 482 0 482 0 362 0 c 0,14,15
 289 0 289 0 252.5 55 c 128,-1,16
 216 110 216 110 238 203 c 0,17,18
 256 283 256 283 304.5 344 c 128,-1,19
 353 405 353 405 411.5 435 c 128,-1,20
 470 465 470 465 529 465 c 0,21,22
 646 465 646 465 659 378 c 1,23,-1
 698 459 l 1,24,-1
 750 459 l 1,25,-1
 639 148 l 2,26,27
 606 51 606 51 679 51 c 0,28,29
 732 51 732 51 772.5 104 c 128,-1,30
 813 157 813 157 837 260 c 0,31,32
 856 334 856 334 847 396.5 c 128,-1,33
 838 459 838 459 807 504.5 c 128,-1,34
 776 550 776 550 715 575.5 c 128,-1,35
 654 601 654 601 570 601 c 0,36,37
 396 601 396 601 272.5 498.5 c 128,-1,38
 149 396 149 396 108 223 c 0,39,40
 71 59 71 59 147.5 -38.5 c 128,-1,41
 224 -136 224 -136 377 -136 c 0,42,43
 455 -136 455 -136 506 -119 c 128,-1,44
 557 -102 557 -102 608 -71 c 1,45,-1
 632 -117 l 1,46,47
 570 -155 570 -155 510.5 -175 c 128,-1,48
 451 -195 451 -195 363 -195 c 0,49,50
 174 -195 174 -195 86 -80 c 128,-1,51
 -2 35 -2 35 41 223 c 0,52,53
 86 418 86 418 235 539 c 128,-1,54
 384 660 384 660 583 660 c 0,0,1
524 406 m 0,55,56
 447 406 447 406 389.5 353 c 128,-1,57
 332 300 332 300 311 207 c 0,58,59
 295 138 295 138 318 99 c 128,-1,60
 341 60 341 60 400 60 c 0,61,62
 460 60 460 60 514 98 c 128,-1,63
 568 136 568 136 593 206 c 2,64,-1
 610 255 l 2,65,66
 623 298 623 298 623 331.5 c 128,-1,67
 623 365 623 365 598 385.5 c 128,-1,68
 573 406 573 406 524 406 c 0,55,56
EndSplineSet
Substitution2: "'case' Case-Sensitive Forms lookup 29 subtable" at.case
Substitution2: "'aalt' Access All Alternates lookup 0 subtable" at.case
EndChar

StartChar: A
Encoding: 65 65 36
Width: 660
GlyphClass: 2
Flags: W
LayerCount: 2
Fore
SplineSet
473 0 m 1,0,-1
 445 183 l 1,1,-1
 146 183 l 1,2,-1
 34 0 l 1,3,-1
 -50 0 l 1,4,-1
 359 660 l 1,5,-1
 454 660 l 1,6,-1
 558 0 l 1,7,-1
 473 0 l 1,0,-1
193 258 m 1,8,-1
 434 258 l 1,9,-1
 399 492 l 1,10,-1
 389 584 l 1,11,-1
 387 584 l 1,12,-1
 337 495 l 1,13,-1
 193 258 l 1,8,-1
EndSplineSet
Substitution2: "Single Substitution lookup 56 subtable" A.swsh
Substitution2: "Single Substitution lookup 55 subtable" ordfeminine
Substitution2: "'swsh' Swash lookup 32 subtable" A.swsh
Substitution2: "'c2sc' Capitals to Small Capitals lookup 11 subtable" a.sc
AlternateSubs2: "'aalt' Access All Alternates lookup 1 subtable" a.sc ordfeminine A.swsh
EndChar

StartChar: B
Encoding: 66 66 37
Width: 653
GlyphClass: 2
Flags: W
LayerCount: 2
Fore
SplineSet
32 0 m 1,0,-1
 184 660 l 1,1,-1
 419 660 l 2,2,3
 533 660 533 660 577.5 612.5 c 128,-1,4
 622 565 622 565 602 478 c 0,5,6
 590 426 590 426 551.5 386 c 128,-1,7
 513 346 513 346 459 336 c 1,8,-1
 458 335 l 1,9,10
 513 324 513 324 538.5 282 c 128,-1,11
 564 240 564 240 552 185 c 0,12,13
 532 100 532 100 456.5 50 c 128,-1,14
 381 0 381 0 266 0 c 2,15,-1
 32 0 l 1,0,-1
197 370 m 1,16,-1
 353 370 l 2,17,18
 493 370 493 370 518 478 c 0,19,20
 531 532 531 532 502.5 558.5 c 128,-1,21
 474 585 474 585 403 585 c 2,22,-1
 247 585 l 1,23,-1
 197 370 l 1,16,-1
129 75 m 1,24,-1
 302 75 l 2,25,26
 442 75 442 75 468 185 c 0,27,28
 480 238 480 238 451.5 266.5 c 128,-1,29
 423 295 423 295 353 295 c 2,30,-1
 180 295 l 1,31,-1
 129 75 l 1,24,-1
EndSplineSet
Substitution2: "'c2sc' Capitals to Small Capitals lookup 11 subtable" b.sc
Substitution2: "'aalt' Access All Alternates lookup 0 subtable" b.sc
EndChar

StartChar: C
Encoding: 67 67 38
Width: 686
GlyphClass: 2
Flags: W
LayerCount: 2
Fore
SplineSet
603 169 m 1,0,1
 552 85 552 85 470.5 37.5 c 128,-1,2
 389 -10 389 -10 296 -10 c 0,3,4
 155 -10 155 -10 93.5 81.5 c 128,-1,5
 32 173 32 173 68 330 c 0,6,7
 104 486 104 486 208 578 c 128,-1,8
 312 670 312 670 451 670 c 0,9,10
 642 670 642 670 671 516 c 1,11,-1
 584 479 l 1,12,13
 566 595 566 595 439 595 c 0,14,15
 337 595 337 595 259 524.5 c 128,-1,16
 181 454 181 454 152 330 c 0,17,18
 124 206 124 206 167 135.5 c 128,-1,19
 210 65 210 65 313 65 c 0,20,21
 380 65 380 65 436.5 99 c 128,-1,22
 493 133 493 133 530 199 c 1,23,-1
 603 169 l 1,0,1
EndSplineSet
Substitution2: "'c2sc' Capitals to Small Capitals lookup 11 subtable" c.sc
Substitution2: "'aalt' Access All Alternates lookup 0 subtable" c.sc
EndChar

StartChar: D
Encoding: 68 68 39
Width: 721
GlyphClass: 2
Flags: W
LayerCount: 2
Fore
SplineSet
397 660 m 2,0,1
 554 660 554 660 622 574 c 128,-1,2
 690 488 690 488 653.5 330 c 128,-1,3
 617 172 617 172 509 86 c 128,-1,4
 401 0 401 0 245 0 c 2,5,-1
 32 0 l 1,6,-1
 184 660 l 1,7,-1
 397 660 l 2,0,1
270 75 m 2,8,9
 383 75 383 75 462 142.5 c 128,-1,10
 541 210 541 210 569 330 c 128,-1,11
 597 450 597 450 549 517.5 c 128,-1,12
 501 585 501 585 388 585 c 2,13,-1
 247 585 l 1,14,-1
 129 75 l 1,15,-1
 270 75 l 2,8,9
EndSplineSet
Substitution2: "'c2sc' Capitals to Small Capitals lookup 11 subtable" d.sc
Substitution2: "'aalt' Access All Alternates lookup 0 subtable" d.sc
EndChar

StartChar: E
Encoding: 69 69 40
Width: 638
GlyphClass: 2
Flags: W
AnchorPoint: "Anchor-0" 263 0 basechar 0
LayerCount: 2
Fore
SplineSet
129 75 m 1,0,-1
 527 75 l 1,1,-1
 510 0 l 1,2,-1
 32 0 l 1,3,-1
 184 660 l 1,4,-1
 647 660 l 1,5,-1
 630 585 l 1,6,-1
 247 585 l 1,7,-1
 198 372 l 1,8,-1
 496 372 l 1,9,-1
 479 297 l 1,10,-1
 181 297 l 1,11,-1
 129 75 l 1,0,-1
EndSplineSet
Substitution2: "Single Substitution lookup 57 subtable" E.swsh.001
Substitution2: "Single Substitution lookup 56 subtable" E.swsh
AlternateSubs2: "'swsh' Swash lookup 33 subtable" E.swsh E.swsh.001
Substitution2: "'c2sc' Capitals to Small Capitals lookup 11 subtable" e.sc
AlternateSubs2: "'aalt' Access All Alternates lookup 1 subtable" e.sc E.swsh E.swsh.001
EndChar

StartChar: F
Encoding: 70 70 41
Width: 610
GlyphClass: 2
Flags: W
LayerCount: 2
Fore
SplineSet
629 585 m 1,0,-1
 247 585 l 1,1,-1
 198 372 l 1,2,-1
 496 372 l 1,3,-1
 479 297 l 1,4,-1
 181 297 l 1,5,-1
 112 0 l 1,6,-1
 32 0 l 1,7,-1
 184 660 l 1,8,-1
 646 660 l 1,9,-1
 629 585 l 1,0,-1
EndSplineSet
Substitution2: "Single Substitution lookup 56 subtable" F.swsh
Substitution2: "'swsh' Swash lookup 34 subtable" F.swsh
Substitution2: "'c2sc' Capitals to Small Capitals lookup 11 subtable" f.sc
AlternateSubs2: "'aalt' Access All Alternates lookup 1 subtable" f.sc F.swsh
EndChar

StartChar: G
Encoding: 71 71 42
Width: 724
GlyphClass: 2
Flags: W
AnchorPoint: "Anchor-0" 329 0 basechar 0
LayerCount: 2
Fore
SplineSet
363 333 m 1,0,-1
 646 333 l 1,1,-1
 569 0 l 1,2,-1
 509 0 l 1,3,-1
 527 89 l 1,4,5
 443 -10 443 -10 296 -10 c 0,6,7
 155 -10 155 -10 93.5 81.5 c 128,-1,8
 32 173 32 173 68 330 c 0,9,10
 104 486 104 486 209.5 578 c 128,-1,11
 315 670 315 670 455 670 c 0,12,13
 552 670 552 670 607.5 633 c 128,-1,14
 663 596 663 596 684 519 c 1,15,-1
 602 479 l 1,16,17
 593 535 593 535 550 565 c 128,-1,18
 507 595 507 595 437 595 c 0,19,20
 336 595 336 595 258.5 524 c 128,-1,21
 181 453 181 453 152 330 c 0,22,23
 123 204 123 204 165 134.5 c 128,-1,24
 207 65 207 65 316 65 c 0,25,26
 402 65 402 65 466.5 109 c 128,-1,27
 531 153 531 153 550 235 c 2,28,-1
 556 258 l 1,29,-1
 346 258 l 1,30,-1
 363 333 l 1,0,-1
EndSplineSet
Substitution2: "'ss04' Style Set 4 lookup 50 subtable" G.ss04
Substitution2: "'salt' Stylistic Alternatives lookup 42 subtable" G.ss04
Substitution2: "'c2sc' Capitals to Small Capitals lookup 11 subtable" g.sc
AlternateSubs2: "'aalt' Access All Alternates lookup 1 subtable" g.sc G.ss04
EndChar

StartChar: H
Encoding: 72 72 43
Width: 734
GlyphClass: 2
Flags: W
LayerCount: 2
Fore
SplineSet
622 660 m 1,0,-1
 702 660 l 1,1,-1
 550 0 l 1,2,-1
 470 0 l 1,3,-1
 539 297 l 1,4,-1
 181 297 l 1,5,-1
 112 0 l 1,6,-1
 32 0 l 1,7,-1
 184 660 l 1,8,-1
 264 660 l 1,9,-1
 198 372 l 1,10,-1
 556 372 l 1,11,-1
 622 660 l 1,0,-1
EndSplineSet
Substitution2: "'sups' Superscript lookup 15 subtable" Hsuperior
Substitution2: "'subs' Subscript lookup 14 subtable" Hinferior
Substitution2: "'sinf' Scientific Inferiors lookup 13 subtable" Hinferior
Substitution2: "'c2sc' Capitals to Small Capitals lookup 11 subtable" h.sc
AlternateSubs2: "'aalt' Access All Alternates lookup 1 subtable" h.sc Hinferior Hsuperior
EndChar

StartChar: I
Encoding: 73 73 44
Width: 296
GlyphClass: 2
Flags: W
LayerCount: 2
Fore
SplineSet
264 660 m 1,0,-1
 112 0 l 1,1,-1
 32 0 l 1,2,-1
 184 660 l 1,3,-1
 264 660 l 1,0,-1
EndSplineSet
Substitution2: "'c2sc' Capitals to Small Capitals lookup 11 subtable" i.sc
Substitution2: "'aalt' Access All Alternates lookup 0 subtable" i.sc
EndChar

StartChar: J
Encoding: 74 74 45
Width: 566
GlyphClass: 2
Flags: W
LayerCount: 2
Fore
SplineSet
541 660 m 1,0,-1
 441 226 l 2,1,2
 416 115 416 115 342 52.5 c 128,-1,3
 268 -10 268 -10 163 -10 c 0,4,5
 52 -10 52 -10 14.5 52 c 128,-1,6
 -23 114 -23 114 21 218 c 1,7,-1
 99 233 l 1,8,9
 67 148 67 148 85 106.5 c 128,-1,10
 103 65 103 65 177 65 c 0,11,12
 259 65 259 65 301.5 109 c 128,-1,13
 344 153 344 153 366 246 c 2,14,-1
 461 660 l 1,15,-1
 541 660 l 1,0,-1
EndSplineSet
Substitution2: "'c2sc' Capitals to Small Capitals lookup 11 subtable" j.sc
Substitution2: "'aalt' Access All Alternates lookup 0 subtable" j.sc
EndChar

StartChar: K
Encoding: 75 75 46
Width: 656
GlyphClass: 2
Flags: W
AnchorPoint: "Anchor-0" 297 0 basechar 0
LayerCount: 2
Fore
SplineSet
456 0 m 1,0,-1
 307 332 l 1,1,-1
 161 212 l 1,2,-1
 112 0 l 1,3,-1
 32 0 l 1,4,-1
 184 660 l 1,5,-1
 264 660 l 1,6,-1
 186 320 l 1,7,-1
 596 660 l 1,8,-1
 701 660 l 1,9,-1
 376 391 l 1,10,-1
 552 0 l 1,11,-1
 456 0 l 1,0,-1
EndSplineSet
Substitution2: "'c2sc' Capitals to Small Capitals lookup 11 subtable" k.sc
Substitution2: "'aalt' Access All Alternates lookup 0 subtable" k.sc
EndChar

StartChar: L
Encoding: 76 76 47
Width: 598
GlyphClass: 2
Flags: W
AnchorPoint: "Anchor-0" 286 0 basechar 0
LayerCount: 2
Fore
SplineSet
129 75 m 1,0,-1
 507 75 l 1,1,-1
 490 0 l 1,2,-1
 32 0 l 1,3,-1
 184 660 l 1,4,-1
 264 660 l 1,5,-1
 129 75 l 1,0,-1
EndSplineSet
Substitution2: "Single Substitution lookup 57 subtable" L.swsh
Substitution2: "'swsh' Swash lookup 34 subtable" L.swsh
Substitution2: "'c2sc' Capitals to Small Capitals lookup 11 subtable" l.sc
AlternateSubs2: "'aalt' Access All Alternates lookup 1 subtable" l.sc L.swsh
Position2: "Single Positioning lookup 6 subtable" dx=0 dy=0 dh=-152 dv=0
EndChar

StartChar: M
Encoding: 77 77 48
Width: 854
GlyphClass: 2
Flags: W
LayerCount: 2
Fore
SplineSet
822 660 m 1,0,-1
 670 0 l 1,1,-1
 594 0 l 1,2,-1
 690 415 l 1,3,-1
 739 589 l 1,4,-1
 738 589 l 1,5,-1
 385 0 l 1,6,-1
 317 0 l 1,7,-1
 236 589 l 1,8,-1
 235 589 l 1,9,-1
 204 415 l 1,10,-1
 108 0 l 1,11,-1
 32 0 l 1,12,-1
 184 660 l 1,13,-1
 307 660 l 1,14,-1
 360 259 l 1,15,-1
 372 94 l 1,16,-1
 374 94 l 1,17,-1
 463 258 l 1,18,-1
 699 660 l 1,19,-1
 822 660 l 1,0,-1
EndSplineSet
Substitution2: "Single Substitution lookup 56 subtable" M.swsh
AlternateSubs2: "'swsh' Swash lookup 35 subtable" M.swsh M.swsh.001
Substitution2: "'c2sc' Capitals to Small Capitals lookup 11 subtable" m.sc
AlternateSubs2: "'aalt' Access All Alternates lookup 1 subtable" m.sc M.swsh M.swsh.001
EndChar

StartChar: N
Encoding: 78 78 49
Width: 734
GlyphClass: 2
Flags: W
AnchorPoint: "Anchor-0" 321 0 basechar 0
LayerCount: 2
Fore
SplineSet
702 660 m 1,0,-1
 550 0 l 1,1,-1
 451 0 l 1,2,-1
 277 442 l 1,3,-1
 237 572 l 1,4,-1
 236 572 l 1,5,-1
 216 466 l 1,6,-1
 108 0 l 1,7,-1
 32 0 l 1,8,-1
 184 660 l 1,9,-1
 283 660 l 1,10,-1
 457 220 l 1,11,-1
 497 88 l 1,12,-1
 498 88 l 1,13,-1
 519 194 l 1,14,-1
 626 660 l 1,15,-1
 702 660 l 1,0,-1
EndSplineSet
Substitution2: "Single Substitution lookup 57 subtable" N.swsh
Substitution2: "'swsh' Swash lookup 36 subtable" N.swsh
Substitution2: "'c2sc' Capitals to Small Capitals lookup 11 subtable" n.sc
AlternateSubs2: "'aalt' Access All Alternates lookup 1 subtable" n.sc N.swsh
EndChar

StartChar: O
Encoding: 79 79 50
Width: 748
GlyphClass: 2
Flags: W
LayerCount: 2
Fore
SplineSet
453 670 m 128,-1,1
 594 670 594 670 655 578.5 c 128,-1,2
 716 487 716 487 680 330 c 128,-1,3
 644 173 644 173 540.5 81.5 c 128,-1,4
 437 -10 437 -10 296 -10 c 128,-1,5
 155 -10 155 -10 93.5 81.5 c 128,-1,6
 32 173 32 173 68 330 c 128,-1,7
 104 487 104 487 208 578.5 c 128,-1,0
 312 670 312 670 453 670 c 128,-1,1
435 595 m 128,-1,9
 332 595 332 595 256.5 524.5 c 128,-1,10
 181 454 181 454 152.5 330 c 128,-1,11
 124 206 124 206 167 135.5 c 128,-1,12
 210 65 210 65 313 65 c 128,-1,13
 416 65 416 65 492 135.5 c 128,-1,14
 568 206 568 206 596.5 330 c 128,-1,15
 625 454 625 454 581.5 524.5 c 128,-1,8
 538 595 538 595 435 595 c 128,-1,9
EndSplineSet
Substitution2: "Single Substitution lookup 55 subtable" ordmasculine
Substitution2: "'nalt' Alternate Annotation Forms lookup 23 subtable" indexring
Substitution2: "'sups' Superscript lookup 15 subtable" Osuperior
Substitution2: "'subs' Subscript lookup 14 subtable" Oinferior
Substitution2: "'sinf' Scientific Inferiors lookup 13 subtable" Oinferior
Substitution2: "'c2sc' Capitals to Small Capitals lookup 11 subtable" o.sc
AlternateSubs2: "'aalt' Access All Alternates lookup 1 subtable" o.sc Oinferior Osuperior ordmasculine indexring
EndChar

StartChar: P
Encoding: 80 80 51
Width: 610
GlyphClass: 2
Flags: W
LayerCount: 2
Fore
SplineSet
417 660 m 2,0,1
 518 660 518 660 566 605.5 c 128,-1,2
 614 551 614 551 593 459 c 128,-1,3
 572 367 572 367 498.5 312.5 c 128,-1,4
 425 258 425 258 325 258 c 2,5,-1
 172 258 l 1,6,-1
 112 0 l 1,7,-1
 32 0 l 1,8,-1
 184 660 l 1,9,-1
 417 660 l 2,0,1
330 333 m 2,10,11
 480 333 480 333 509 459 c 128,-1,12
 538 585 538 585 388 585 c 2,13,-1
 247 585 l 1,14,-1
 189 333 l 1,15,-1
 330 333 l 2,10,11
EndSplineSet
Substitution2: "'c2sc' Capitals to Small Capitals lookup 11 subtable" p.sc
Substitution2: "'aalt' Access All Alternates lookup 0 subtable" p.sc
EndChar

StartChar: Q
Encoding: 81 81 52
Width: 748
GlyphClass: 2
Flags: W
LayerCount: 2
Fore
SplineSet
434 -114 m 0,0,1
 511 -114 511 -114 560 -77 c 1,2,-1
 569 -151 l 1,3,4
 542 -171 542 -171 497 -183 c 128,-1,5
 452 -195 452 -195 413 -195 c 0,6,7
 375 -195 375 -195 344.5 -185.5 c 128,-1,8
 314 -176 314 -176 291 -155.5 c 128,-1,9
 268 -135 268 -135 259 -97.5 c 128,-1,10
 250 -60 250 -60 259 -8 c 1,11,12
 137 4 137 4 86 94 c 128,-1,13
 35 184 35 184 68 330 c 0,14,15
 104 487 104 487 208 578.5 c 128,-1,16
 312 670 312 670 453 670 c 128,-1,17
 594 670 594 670 655 578.5 c 128,-1,18
 716 487 716 487 680 330 c 0,19,20
 658 233 658 233 608 159 c 128,-1,21
 558 85 558 85 487 42 c 128,-1,22
 416 -1 416 -1 331 -8 c 1,23,24
 322 -70 322 -70 350 -92 c 128,-1,25
 378 -114 378 -114 434 -114 c 0,0,1
152.5 330 m 128,-1,27
 124 206 124 206 167 135.5 c 128,-1,28
 210 65 210 65 313 65 c 128,-1,29
 416 65 416 65 492 135.5 c 128,-1,30
 568 206 568 206 596.5 330 c 128,-1,31
 625 454 625 454 581.5 524.5 c 128,-1,32
 538 595 538 595 435 595 c 128,-1,33
 332 595 332 595 256.5 524.5 c 128,-1,26
 181 454 181 454 152.5 330 c 128,-1,27
EndSplineSet
Substitution2: "'c2sc' Capitals to Small Capitals lookup 11 subtable" q.sc
Substitution2: "'aalt' Access All Alternates lookup 0 subtable" q.sc
EndChar

StartChar: R
Encoding: 82 82 53
Width: 655
GlyphClass: 2
Flags: W
AnchorPoint: "Anchor-0" 289 0 basechar 0
LayerCount: 2
Fore
SplineSet
32 0 m 1,0,-1
 184 660 l 1,1,-1
 434 660 l 2,2,3
 536 660 536 660 584.5 608 c 128,-1,4
 633 556 633 556 613 467 c 0,5,6
 598 402 598 402 552.5 359 c 128,-1,7
 507 316 507 316 436 300 c 1,8,-1
 436 298 l 1,9,10
 544 279 544 279 522 164 c 0,11,12
 512 108 512 108 509.5 74 c 128,-1,13
 507 40 507 40 509 28 c 128,-1,14
 511 16 511 16 516 3 c 1,15,-1
 515 0 l 1,16,-1
 429 0 l 1,17,18
 421 41 421 41 441 156 c 0,19,20
 452 215 452 215 421.5 244.5 c 128,-1,21
 391 274 391 274 315 274 c 2,22,-1
 175 274 l 1,23,-1
 112 0 l 1,24,-1
 32 0 l 1,0,-1
193 349 m 1,25,-1
 362 349 l 2,26,27
 502 349 502 349 529 467 c 128,-1,28
 556 585 556 585 416 585 c 2,29,-1
 247 585 l 1,30,-1
 193 349 l 1,25,-1
EndSplineSet
Substitution2: "Single Substitution lookup 57 subtable" R.swsh.001
Substitution2: "Single Substitution lookup 56 subtable" R.swsh
Substitution2: "'ss03' Style Set 3 lookup 49 subtable" R.ss03
Substitution2: "'salt' Stylistic Alternatives lookup 42 subtable" R.ss03
AlternateSubs2: "'swsh' Swash lookup 37 subtable" R.swsh R.swsh.001
Substitution2: "'c2sc' Capitals to Small Capitals lookup 11 subtable" r.sc
AlternateSubs2: "'aalt' Access All Alternates lookup 1 subtable" r.sc R.swsh R.swsh.001 R.ss03
EndChar

StartChar: S
Encoding: 83 83 54
Width: 641
GlyphClass: 2
Flags: W
AnchorPoint: "Anchor-0" 283 0 basechar 0
LayerCount: 2
Fore
SplineSet
399 670 m 0,0,1
 576 670 576 670 621 530 c 1,2,-1
 539 474 l 1,3,4
 524 540 524 540 489 567.5 c 128,-1,5
 454 595 454 595 382 595 c 0,6,7
 306 595 306 595 255.5 563.5 c 128,-1,8
 205 532 205 532 194 483 c 0,9,10
 183 436 183 436 217 410 c 128,-1,11
 251 384 251 384 349 366 c 0,12,13
 475 344 475 344 519.5 300 c 128,-1,14
 564 256 564 256 546 178 c 0,15,16
 527 93 527 93 445 41.5 c 128,-1,17
 363 -10 363 -10 248 -10 c 0,18,19
 180 -10 180 -10 128.5 9 c 128,-1,20
 77 28 77 28 47 59.5 c 128,-1,21
 17 91 17 91 3 133 c 1,22,-1
 85 189 l 1,23,24
 113 65 113 65 267 65 c 0,25,26
 345 65 345 65 397.5 93.5 c 128,-1,27
 450 122 450 122 462 174 c 0,28,29
 472 218 472 218 438 244 c 128,-1,30
 404 270 404 270 306 288 c 0,31,32
 180 311 180 311 135 354 c 128,-1,33
 90 397 90 397 107 474 c 0,34,35
 126 556 126 556 206.5 613 c 128,-1,36
 287 670 287 670 399 670 c 0,0,1
EndSplineSet
Substitution2: "Single Substitution lookup 57 subtable" S.swsh
Substitution2: "Single Substitution lookup 56 subtable" S.swsh
Substitution2: "'swsh' Swash lookup 38 subtable" S.swsh
Substitution2: "'c2sc' Capitals to Small Capitals lookup 11 subtable" s.sc
AlternateSubs2: "'aalt' Access All Alternates lookup 1 subtable" s.sc S.swsh
EndChar

StartChar: T
Encoding: 84 84 55
Width: 604
GlyphClass: 2
Flags: W
AnchorPoint: "Anchor-0" 242 0 basechar 0
LayerCount: 2
Fore
SplineSet
648 660 m 1,0,-1
 631 585 l 1,1,-1
 401 585 l 1,2,-1
 266 0 l 1,3,-1
 186 0 l 1,4,-1
 321 585 l 1,5,-1
 91 585 l 1,6,-1
 108 660 l 1,7,-1
 648 660 l 1,0,-1
EndSplineSet
Substitution2: "Single Substitution lookup 56 subtable" T.swsh
Substitution2: "'swsh' Swash lookup 38 subtable" T.swsh
Substitution2: "'c2sc' Capitals to Small Capitals lookup 11 subtable" t.sc
AlternateSubs2: "'aalt' Access All Alternates lookup 1 subtable" t.sc T.swsh
EndChar

StartChar: U
Encoding: 85 85 56
Width: 720
GlyphClass: 2
Flags: W
LayerCount: 2
Fore
SplineSet
695 660 m 1,0,-1
 600 246 l 2,1,2
 571 119 571 119 489.5 54.5 c 128,-1,3
 408 -10 408 -10 282 -10 c 256,4,5
 156 -10 156 -10 104.5 55 c 128,-1,6
 53 120 53 120 82 246 c 2,7,-1
 177 660 l 1,8,-1
 257 660 l 1,9,-1
 166 266 l 2,10,11
 143 162 143 162 175 113.5 c 128,-1,12
 207 65 207 65 299 65 c 128,-1,13
 391 65 391 65 446 113.5 c 128,-1,14
 501 162 501 162 524 266 c 2,15,-1
 615 660 l 1,16,-1
 695 660 l 1,0,-1
EndSplineSet
Substitution2: "'c2sc' Capitals to Small Capitals lookup 11 subtable" u.sc
Substitution2: "'aalt' Access All Alternates lookup 0 subtable" u.sc
EndChar

StartChar: V
Encoding: 86 86 57
Width: 648
GlyphClass: 2
Flags: W
LayerCount: 2
Fore
SplineSet
696 660 m 1,0,-1
 294 0 l 1,1,-1
 203 0 l 1,2,-1
 104 660 l 1,3,-1
 190 660 l 1,4,-1
 253 204 l 1,5,-1
 265 73 l 1,6,-1
 337 203 l 1,7,-1
 610 660 l 1,8,-1
 696 660 l 1,0,-1
EndSplineSet
Substitution2: "'c2sc' Capitals to Small Capitals lookup 11 subtable" v.sc
Substitution2: "'aalt' Access All Alternates lookup 0 subtable" v.sc
EndChar

StartChar: W
Encoding: 87 87 58
Width: 961
GlyphClass: 2
Flags: W
LayerCount: 2
Fore
SplineSet
469 428 m 1,0,-1
 254 0 l 1,1,-1
 155 0 l 1,2,-1
 112 660 l 1,3,-1
 198 660 l 1,4,-1
 220 63 l 1,5,-1
 513 660 l 1,6,-1
 604 660 l 1,7,-1
 622 61 l 1,8,-1
 920 660 l 1,9,-1
 1001 660 l 1,10,-1
 655 0 l 1,11,-1
 556 0 l 1,12,-1
 538 428 l 1,13,-1
 538 577 l 1,14,-1
 537 577 l 1,15,-1
 469 428 l 1,0,-1
EndSplineSet
Substitution2: "Single Substitution lookup 56 subtable" W.swsh
Substitution2: "'swsh' Swash lookup 38 subtable" W.swsh
Substitution2: "'c2sc' Capitals to Small Capitals lookup 11 subtable" w.sc
AlternateSubs2: "'aalt' Access All Alternates lookup 1 subtable" w.sc W.swsh
EndChar

StartChar: X
Encoding: 88 88 59
Width: 601
GlyphClass: 2
Flags: W
LayerCount: 2
Fore
SplineSet
493 0 m 1,0,-1
 400 0 l 1,1,-1
 284 273 l 1,2,-1
 42 0 l 1,3,-1
 -51 0 l 1,4,-1
 258 336 l 1,5,-1
 121 660 l 1,6,-1
 216 660 l 1,7,-1
 325 402 l 1,8,-1
 553 660 l 1,9,-1
 638 660 l 1,10,-1
 351 340 l 1,11,-1
 493 0 l 1,0,-1
EndSplineSet
Substitution2: "'c2sc' Capitals to Small Capitals lookup 11 subtable" x.sc
Substitution2: "'aalt' Access All Alternates lookup 0 subtable" x.sc
EndChar

StartChar: Y
Encoding: 89 89 60
Width: 572
GlyphClass: 2
Flags: W
LayerCount: 2
Fore
SplineSet
638 660 m 1,0,-1
 310 258 l 1,1,-1
 250 0 l 1,2,-1
 170 0 l 1,3,-1
 230 258 l 1,4,-1
 86 660 l 1,5,-1
 181 660 l 1,6,-1
 288 340 l 1,7,-1
 543 660 l 1,8,-1
 638 660 l 1,0,-1
EndSplineSet
Substitution2: "'c2sc' Capitals to Small Capitals lookup 11 subtable" y.sc
Substitution2: "'aalt' Access All Alternates lookup 0 subtable" y.sc
EndChar

StartChar: Z
Encoding: 90 90 61
Width: 630
GlyphClass: 2
Flags: W
LayerCount: 2
Fore
SplineSet
92 75 m 1,0,-1
 516 75 l 1,1,-1
 499 0 l 1,2,-1
 -20 0 l 1,3,-1
 -4 71 l 1,4,-1
 526 585 l 1,5,-1
 125 585 l 1,6,-1
 142 660 l 1,7,-1
 638 660 l 1,8,-1
 622 589 l 1,9,-1
 92 75 l 1,0,-1
EndSplineSet
Substitution2: "'c2sc' Capitals to Small Capitals lookup 11 subtable" z.sc
Substitution2: "'aalt' Access All Alternates lookup 0 subtable" z.sc
EndChar

StartChar: bracketleft
Encoding: 91 91 62
Width: 348
GlyphClass: 2
Flags: W
LayerCount: 2
Fore
SplineSet
391 660 m 1,0,-1
 238 660 l 1,1,-1
 63 -98 l 1,2,-1
 216 -98 l 1,3,-1
 200 -168 l 1,4,-1
 -28 -168 l 1,5,-1
 180 730 l 1,6,-1
 408 730 l 1,7,-1
 391 660 l 1,0,-1
EndSplineSet
Substitution2: "'case' Case-Sensitive Forms lookup 29 subtable" bracketleft.case
Substitution2: "'sups' Superscript lookup 15 subtable" bracketleftsuperior
Substitution2: "'subs' Subscript lookup 14 subtable" bracketleftinferior
Substitution2: "'sinf' Scientific Inferiors lookup 13 subtable" bracketleftinferior
AlternateSubs2: "'aalt' Access All Alternates lookup 1 subtable" bracketleftinferior bracketleftsuperior bracketleft.case
EndChar

StartChar: backslash
Encoding: 92 92 63
Width: 438
GlyphClass: 2
Flags: W
LayerCount: 2
Fore
SplineSet
122 730 m 1,0,-1
 197 730 l 1,1,-1
 318 -70 l 1,2,-1
 243 -70 l 1,3,-1
 122 730 l 1,0,-1
EndSplineSet
EndChar

StartChar: bracketright
Encoding: 93 93 64
Width: 348
GlyphClass: 2
Flags: W
LayerCount: 2
Fore
SplineSet
354 730 m 1,0,-1
 146 -168 l 1,1,-1
 -82 -168 l 1,2,-1
 -66 -98 l 1,3,-1
 87 -98 l 1,4,-1
 262 660 l 1,5,-1
 109 660 l 1,6,-1
 126 730 l 1,7,-1
 354 730 l 1,0,-1
EndSplineSet
Substitution2: "'case' Case-Sensitive Forms lookup 29 subtable" bracketright.case
Substitution2: "'sups' Superscript lookup 15 subtable" bracketrightsuperior
Substitution2: "'subs' Subscript lookup 14 subtable" bracketrightinferior
Substitution2: "'sinf' Scientific Inferiors lookup 13 subtable" bracketrightinferior
AlternateSubs2: "'aalt' Access All Alternates lookup 1 subtable" bracketrightinferior bracketrightsuperior bracketright.case
EndChar

StartChar: asciicircum
Encoding: 94 94 65
Width: 560
GlyphClass: 2
Flags: W
LayerCount: 2
Fore
SplineSet
539 355 m 1,0,-1
 458 355 l 1,1,-1
 357 662 l 1,2,-1
 114 355 l 1,3,-1
 33 355 l 1,4,-1
 335 730 l 1,5,-1
 411 730 l 1,6,-1
 539 355 l 1,0,-1
EndSplineSet
EndChar

StartChar: underscore
Encoding: 95 95 66
Width: 539
GlyphClass: 2
Flags: W
LayerCount: 2
Fore
SplineSet
441 -97 m 1,0,-1
 423 -172 l 1,1,-1
 -116 -172 l 1,2,-1
 -98 -97 l 1,3,-1
 441 -97 l 1,0,-1
EndSplineSet
EndChar

StartChar: grave
Encoding: 96 96 67
Width: 500
GlyphClass: 2
Flags: W
LayerCount: 2
Fore
SplineSet
313 750 m 1,0,-1
 351 583 l 1,1,-1
 286 583 l 1,2,-1
 226 750 l 1,3,-1
 313 750 l 1,0,-1
EndSplineSet
EndChar

StartChar: a
Encoding: 97 97 68
Width: 566
GlyphClass: 2
Flags: W
LayerCount: 2
Fore
SplineSet
440 58 m 256,0,1
 460 58 460 58 482 63 c 1,2,-1
 462 0 l 1,3,4
 432 -10 432 -10 400 -10 c 0,5,6
 361 -10 361 -10 342.5 7 c 128,-1,7
 324 24 324 24 327 64 c 1,8,9
 295 29 295 29 246.5 9.5 c 128,-1,10
 198 -10 198 -10 149 -10 c 0,11,12
 74 -10 74 -10 34.5 24.5 c 128,-1,13
 -5 59 -5 59 10 124 c 0,14,15
 23 181 23 181 82.5 222.5 c 128,-1,16
 142 264 142 264 241 280 c 2,17,-1
 379 302 l 1,18,-1
 385 330 l 2,19,20
 397 380 397 380 373 410 c 128,-1,21
 349 440 349 440 294 440 c 0,22,23
 191 440 191 440 129 345 c 1,24,-1
 80 388 l 1,25,26
 112 444 112 444 174.5 477 c 128,-1,27
 237 510 237 510 310 510 c 0,28,29
 399 510 399 510 443 467 c 128,-1,30
 487 424 487 424 467 340 c 2,31,-1
 411 94 l 2,32,33
 406 75 406 75 413 66.5 c 128,-1,34
 420 58 420 58 440 58 c 256,0,1
169 60 m 0,35,36
 231 60 231 60 284 90 c 128,-1,37
 337 120 337 120 348 168 c 2,38,-1
 364 237 l 1,39,-1
 247 216 l 2,40,41
 108 192 108 192 93 124 c 0,42,43
 85 93 85 93 105.5 76.5 c 128,-1,44
 126 60 126 60 169 60 c 0,35,36
EndSplineSet
Substitution2: "Single Substitution lookup 55 subtable" ordfeminine
Substitution2: "'smcp' Lowercase to Small Capitals lookup 12 subtable" a.sc
AlternateSubs2: "'aalt' Access All Alternates lookup 1 subtable" a.sc ordfeminine
EndChar

StartChar: b
Encoding: 98 98 69
Width: 630
GlyphClass: 2
Flags: W
LayerCount: 2
Fore
SplineSet
381 510 m 0,0,1
 486 510 486 510 531.5 440.5 c 128,-1,2
 577 371 577 371 549 250 c 128,-1,3
 521 129 521 129 443.5 59.5 c 128,-1,4
 366 -10 366 -10 261 -10 c 0,5,6
 203 -10 203 -10 163.5 16.5 c 128,-1,7
 124 43 124 43 112 87 c 1,8,-1
 87 0 l 1,9,-1
 17 0 l 1,10,-1
 186 730 l 1,11,-1
 266 730 l 1,12,-1
 194 422 l 1,13,14
 228 462 228 462 277 486 c 128,-1,15
 326 510 326 510 381 510 c 0,0,1
268 60 m 0,16,17
 341 60 341 60 395 111.5 c 128,-1,18
 449 163 449 163 469 250 c 128,-1,19
 489 337 489 337 459 388.5 c 128,-1,20
 429 440 429 440 356 440 c 0,21,22
 284 440 284 440 230 390 c 128,-1,23
 176 340 176 340 156 256 c 2,24,-1
 153 244 l 2,25,26
 134 160 134 160 165 110 c 128,-1,27
 196 60 196 60 268 60 c 0,16,17
EndSplineSet
Substitution2: "'smcp' Lowercase to Small Capitals lookup 12 subtable" b.sc
Substitution2: "'aalt' Access All Alternates lookup 0 subtable" b.sc
EndChar

StartChar: c
Encoding: 99 99 70
Width: 564
GlyphClass: 2
Flags: W
LayerCount: 2
Fore
SplineSet
346 510 m 0,0,1
 493 510 493 510 522 377 c 1,2,-1
 438 341 l 1,3,4
 428 440 428 440 328 440 c 0,5,6
 253 440 253 440 198.5 389.5 c 128,-1,7
 144 339 144 339 123.5 250 c 128,-1,8
 103 161 103 161 134 110.5 c 128,-1,9
 165 60 165 60 240 60 c 0,10,11
 356 60 356 60 404 163 c 1,12,-1
 472 137 l 1,13,14
 429 67 429 67 366.5 28.5 c 128,-1,15
 304 -10 304 -10 226 -10 c 0,16,17
 112 -10 112 -10 64 59 c 128,-1,18
 16 128 16 128 44 250 c 128,-1,19
 72 372 72 372 152.5 441 c 128,-1,20
 233 510 233 510 346 510 c 0,0,1
EndSplineSet
Substitution2: "'smcp' Lowercase to Small Capitals lookup 12 subtable" c.sc
Substitution2: "'aalt' Access All Alternates lookup 0 subtable" c.sc
EndChar

StartChar: d
Encoding: 100 100 71
Width: 630
GlyphClass: 2
Flags: W
LayerCount: 2
Fore
SplineSet
550 730 m 1,0,-1
 630 730 l 1,1,-1
 461 0 l 1,2,-1
 391 0 l 1,3,-1
 406 87 l 1,4,5
 374 43 374 43 322.5 16.5 c 128,-1,6
 271 -10 271 -10 213 -10 c 0,7,8
 108 -10 108 -10 62.5 59.5 c 128,-1,9
 17 129 17 129 45 250 c 128,-1,10
 73 371 73 371 150.5 440.5 c 128,-1,11
 228 510 228 510 333 510 c 0,12,13
 388 510 388 510 426 486 c 128,-1,14
 464 462 464 462 478 422 c 1,15,-1
 550 730 l 1,0,-1
238 60 m 0,16,17
 309 60 309 60 363.5 110 c 128,-1,18
 418 160 418 160 437 244 c 2,19,-1
 440 256 l 2,20,21
 460 340 460 340 428.5 390 c 128,-1,22
 397 440 397 440 326 440 c 0,23,24
 252 440 252 440 198.5 388.5 c 128,-1,25
 145 337 145 337 125 250 c 128,-1,26
 105 163 105 163 135 111.5 c 128,-1,27
 165 60 165 60 238 60 c 0,16,17
EndSplineSet
Substitution2: "'smcp' Lowercase to Small Capitals lookup 12 subtable" d.sc
Substitution2: "'aalt' Access All Alternates lookup 0 subtable" d.sc
EndChar

StartChar: e
Encoding: 101 101 72
Width: 581
GlyphClass: 2
Flags: W
AnchorPoint: "Anchor-0" 228 0 basechar 0
LayerCount: 2
Fore
SplineSet
510 276 m 0,0,1
 503 248 503 248 493 220 c 1,2,-1
 116 220 l 1,3,4
 106 144 106 144 139.5 102 c 128,-1,5
 173 60 173 60 242 60 c 0,6,7
 355 60 355 60 400 134 c 1,8,-1
 459 99 l 1,9,10
 373 -10 373 -10 226 -10 c 0,11,12
 112 -10 112 -10 64 59 c 128,-1,13
 16 128 16 128 44 250 c 256,14,15
 72 372 72 372 149.5 441 c 128,-1,16
 227 510 227 510 340 510 c 0,17,18
 445 510 445 510 489 443.5 c 128,-1,19
 533 377 533 377 510 276 c 0,0,1
324 440 m 0,20,21
 257 440 257 440 208 401 c 128,-1,22
 159 362 159 362 133 291 c 1,23,-1
 436 291 l 1,24,25
 444 361 444 361 415 400.5 c 128,-1,26
 386 440 386 440 324 440 c 0,20,21
EndSplineSet
Substitution2: "'smcp' Lowercase to Small Capitals lookup 12 subtable" e.sc
Substitution2: "'aalt' Access All Alternates lookup 0 subtable" e.sc
EndChar

StartChar: f
Encoding: 102 102 73
Width: 393
GlyphClass: 2
Flags: W
LayerCount: 2
Fore
SplineSet
269 576 m 2,0,-1
 251 500 l 1,1,-1
 418 500 l 1,2,-1
 403 431 l 1,3,-1
 236 431 l 1,4,-1
 136 0 l 1,5,-1
 56 0 l 1,6,-1
 156 431 l 1,7,-1
 56 431 l 1,8,-1
 71 500 l 1,9,-1
 171 500 l 1,10,-1
 191 584 l 2,11,12
 207 653 207 653 258.5 694 c 128,-1,13
 310 735 310 735 390 735 c 0,14,15
 447 735 447 735 469 712 c 1,16,-1
 433 647 l 1,17,18
 413 662 413 662 380 662 c 0,19,20
 289 662 289 662 269 576 c 2,0,-1
EndSplineSet
Substitution2: "'smcp' Lowercase to Small Capitals lookup 12 subtable" f.sc
Substitution2: "'aalt' Access All Alternates lookup 0 subtable" f.sc
EndChar

StartChar: g
Encoding: 103 103 74
Width: 630
GlyphClass: 2
Flags: W
LayerCount: 2
Fore
SplineSet
510 500 m 1,0,-1
 576 500 l 1,1,-1
 470 40 l 2,2,3
 411 -215 411 -215 157 -215 c 0,4,5
 77 -215 77 -215 28.5 -184 c 128,-1,6
 -20 -153 -20 -153 -19 -92 c 1,7,-1
 64 -59 l 1,8,9
 63 -102 63 -102 92.5 -123.5 c 128,-1,10
 122 -145 122 -145 186 -145 c 0,11,12
 256 -145 256 -145 312 -98.5 c 128,-1,13
 368 -52 368 -52 385 21 c 2,14,-1
 398 78 l 1,15,16
 325 0 325 0 214 0 c 0,17,18
 109 0 109 0 63 68 c 128,-1,19
 17 136 17 136 44.5 255 c 128,-1,20
 72 374 72 374 149.5 442 c 128,-1,21
 227 510 227 510 332 510 c 0,22,23
 390 510 390 510 429 487 c 128,-1,24
 468 464 468 464 483 424 c 1,25,-1
 510 500 l 1,0,-1
239 70 m 0,26,27
 311 70 311 70 365 118.5 c 128,-1,28
 419 167 419 167 437 249 c 2,29,-1
 440 261 l 2,30,31
 459 343 459 343 427.5 391.5 c 128,-1,32
 396 440 396 440 325 440 c 0,33,34
 251 440 251 440 198 390 c 128,-1,35
 145 340 145 340 125 255 c 128,-1,36
 105 170 105 170 135.5 120 c 128,-1,37
 166 70 166 70 239 70 c 0,26,27
EndSplineSet
Substitution2: "'ss01' Style Set 1 lookup 47 subtable" g.ss01
Substitution2: "'salt' Stylistic Alternatives lookup 42 subtable" g.ss01
Substitution2: "'smcp' Lowercase to Small Capitals lookup 12 subtable" g.sc
AlternateSubs2: "'aalt' Access All Alternates lookup 1 subtable" g.sc g.ss01
EndChar

StartChar: h
Encoding: 104 104 75
Width: 619
GlyphClass: 2
Flags: W
LayerCount: 2
Fore
SplineSet
378 510 m 0,0,1
 463 510 463 510 506.5 461 c 128,-1,2
 550 412 550 412 529 320 c 2,3,-1
 455 0 l 1,4,-1
 375 0 l 1,5,-1
 442 292 l 2,6,7
 477 440 477 440 354 440 c 0,8,9
 314 440 314 440 277 424 c 128,-1,10
 240 408 240 408 206 366.5 c 128,-1,11
 172 325 172 325 158 265 c 2,12,-1
 97 0 l 1,13,-1
 17 0 l 1,14,-1
 186 730 l 1,15,-1
 266 730 l 1,16,-1
 195 425 l 1,17,18
 264 510 264 510 378 510 c 0,0,1
EndSplineSet
Substitution2: "'smcp' Lowercase to Small Capitals lookup 12 subtable" h.sc
Substitution2: "'aalt' Access All Alternates lookup 0 subtable" h.sc
EndChar

StartChar: i
Encoding: 105 105 76
Width: 266
GlyphClass: 2
Flags: W
LayerCount: 2
Fore
SplineSet
195 596 m 128,-1,1
 168 596 168 596 155 612.5 c 128,-1,2
 142 629 142 629 148.5 656 c 128,-1,3
 155 683 155 683 175 699.5 c 128,-1,4
 195 716 195 716 222 716 c 128,-1,5
 249 716 249 716 262 699.5 c 128,-1,6
 275 683 275 683 268.5 656 c 128,-1,7
 262 629 262 629 242 612.5 c 128,-1,0
 222 596 222 596 195 596 c 128,-1,1
212 500 m 1,8,-1
 97 0 l 1,9,-1
 17 0 l 1,10,-1
 132 500 l 1,11,-1
 212 500 l 1,8,-1
EndSplineSet
Substitution2: "'smcp' Lowercase to Small Capitals lookup 12 subtable" i.sc
Substitution2: "'locl' Localized Forms in Latin lookup 6 subtable" i.loclTRK
Substitution2: "'locl' Localized Forms in Latin lookup 5 subtable" i.loclTRK
Substitution2: "'locl' Localized Forms in Latin lookup 4 subtable" i.loclTRK
Substitution2: "'locl' Localized Forms in Latin lookup 3 subtable" i.loclTRK
Substitution2: "'locl' Localized Forms in Latin lookup 2 subtable" i.loclTRK
Substitution2: "'aalt' Access All Alternates lookup 0 subtable" i.sc
EndChar

StartChar: j
Encoding: 106 106 77
Width: 266
GlyphClass: 2
Flags: W
LayerCount: 2
Fore
SplineSet
222.5 716 m 128,-1,1
 247 716 247 716 260.5 698.5 c 128,-1,2
 274 681 274 681 268.5 656 c 128,-1,3
 263 631 263 631 241 613.5 c 128,-1,4
 219 596 219 596 194.5 596 c 128,-1,5
 170 596 170 596 156.5 613.5 c 128,-1,6
 143 631 143 631 148.5 656 c 128,-1,7
 154 681 154 681 176 698.5 c 128,-1,0
 198 716 198 716 222.5 716 c 128,-1,1
212 500 m 1,8,-1
 85 -51 l 2,9,10
 75 -96 75 -96 53.5 -129 c 128,-1,11
 32 -162 32 -162 4.5 -180 c 128,-1,12
 -23 -198 -23 -198 -50 -206.5 c 128,-1,13
 -77 -215 -77 -215 -105 -215 c 0,14,15
 -165 -215 -165 -215 -197 -182 c 1,16,-1
 -162 -106 l 1,17,18
 -135 -137 -135 -137 -88 -137 c 0,19,20
 -15 -137 -15 -137 7 -43 c 2,21,-1
 132 500 l 1,22,-1
 212 500 l 1,8,-1
EndSplineSet
Substitution2: "'smcp' Lowercase to Small Capitals lookup 12 subtable" j.sc
Substitution2: "'aalt' Access All Alternates lookup 0 subtable" j.sc
EndChar

StartChar: k
Encoding: 107 107 78
Width: 567
GlyphClass: 2
Flags: W
AnchorPoint: "Anchor-0" 239 0 basechar 0
LayerCount: 2
Fore
SplineSet
371 0 m 1,0,-1
 260 247 l 1,1,-1
 130 141 l 1,2,-1
 97 0 l 1,3,-1
 17 0 l 1,4,-1
 186 730 l 1,5,-1
 266 730 l 1,6,-1
 153 241 l 1,7,-1
 471 500 l 1,8,-1
 571 500 l 1,9,-1
 331 305 l 1,10,-1
 468 0 l 1,11,-1
 371 0 l 1,0,-1
EndSplineSet
Substitution2: "'smcp' Lowercase to Small Capitals lookup 12 subtable" k.sc
Substitution2: "'aalt' Access All Alternates lookup 0 subtable" k.sc
EndChar

StartChar: l
Encoding: 108 108 79
Width: 306
GlyphClass: 2
Flags: W
AnchorPoint: "Anchor-0" 138 0 basechar 0
LayerCount: 2
Fore
SplineSet
262 730 m 1,0,-1
 124 134 l 2,1,2
 115 96 115 96 123.5 81.5 c 128,-1,3
 132 67 132 67 162 67 c 0,4,5
 199 67 199 67 239 81 c 1,6,-1
 208 4 l 1,7,8
 172 -10 172 -10 131 -10 c 0,9,10
 70 -10 70 -10 48 23 c 128,-1,11
 26 56 26 56 42 124 c 2,12,-1
 182 730 l 1,13,-1
 262 730 l 1,0,-1
EndSplineSet
Substitution2: "'ss02' Style Set 2 lookup 48 subtable" l.ss02
Substitution2: "'salt' Stylistic Alternatives lookup 42 subtable" l.ss02
Substitution2: "'smcp' Lowercase to Small Capitals lookup 12 subtable" l.sc
AlternateSubs2: "'aalt' Access All Alternates lookup 1 subtable" l.sc l.ss02
Position2: "Single Positioning lookup 6 subtable" dx=0 dy=0 dh=-40 dv=0
EndChar

StartChar: m
Encoding: 109 109 80
Width: 953
GlyphClass: 2
Flags: W
LayerCount: 2
Fore
SplineSet
716 510 m 0,0,1
 753 510 753 510 783.5 499 c 128,-1,2
 814 488 814 488 836.5 464.5 c 128,-1,3
 859 441 859 441 866 405.5 c 128,-1,4
 873 370 873 370 863 320 c 2,5,-1
 789 0 l 1,6,-1
 709 0 l 1,7,-1
 781 312 l 2,8,9
 796 377 796 377 771 408.5 c 128,-1,10
 746 440 746 440 693 440 c 0,11,12
 631 440 631 440 577.5 395.5 c 128,-1,13
 524 351 524 351 506 274 c 2,14,-1
 443 0 l 1,15,-1
 363 0 l 1,16,-1
 435 312 l 2,17,18
 450 377 450 377 425 408.5 c 128,-1,19
 400 440 400 440 347 440 c 0,20,21
 311 440 311 440 275 423.5 c 128,-1,22
 239 407 239 407 205.5 366 c 128,-1,23
 172 325 172 325 159 267 c 2,24,-1
 97 0 l 1,25,-1
 17 0 l 1,26,-1
 132 500 l 1,27,-1
 202 500 l 1,28,-1
 189 422 l 1,29,30
 225 466 225 466 273 488 c 128,-1,31
 321 510 321 510 370 510 c 0,32,33
 425 510 425 510 465.5 485 c 128,-1,34
 506 460 506 460 519 412 c 1,35,36
 552 460 552 460 607.5 485 c 128,-1,37
 663 510 663 510 716 510 c 0,0,1
EndSplineSet
Substitution2: "'smcp' Lowercase to Small Capitals lookup 12 subtable" m.sc
Substitution2: "'aalt' Access All Alternates lookup 0 subtable" m.sc
EndChar

StartChar: n
Encoding: 110 110 81
Width: 619
GlyphClass: 2
Flags: W
AnchorPoint: "Anchor-0" 266 0 basechar 0
LayerCount: 2
Fore
SplineSet
378 510 m 0,0,1
 463 510 463 510 506.5 461 c 128,-1,2
 550 412 550 412 529 320 c 2,3,-1
 455 0 l 1,4,-1
 375 0 l 1,5,-1
 442 292 l 2,6,7
 477 440 477 440 354 440 c 0,8,9
 314 440 314 440 277 424 c 128,-1,10
 240 408 240 408 206 367 c 128,-1,11
 172 326 172 326 158 266 c 2,12,-1
 97 0 l 1,13,-1
 17 0 l 1,14,-1
 132 500 l 1,15,-1
 202 500 l 1,16,-1
 189 422 l 1,17,18
 259 510 259 510 378 510 c 0,0,1
EndSplineSet
Substitution2: "Single Substitution lookup 57 subtable" n.swsh
Substitution2: "'swsh' Swash lookup 38 subtable" n.swsh
Substitution2: "'smcp' Lowercase to Small Capitals lookup 12 subtable" n.sc
AlternateSubs2: "'aalt' Access All Alternates lookup 1 subtable" n.sc n.swsh
EndChar

StartChar: o
Encoding: 111 111 82
Width: 608
GlyphClass: 2
Flags: W
LayerCount: 2
Fore
SplineSet
346 510 m 128,-1,1
 459 510 459 510 507.5 441 c 128,-1,2
 556 372 556 372 528 250 c 128,-1,3
 500 128 500 128 419.5 59 c 128,-1,4
 339 -10 339 -10 225.5 -10 c 128,-1,5
 112 -10 112 -10 64 59 c 128,-1,6
 16 128 16 128 44 250 c 128,-1,7
 72 372 72 372 152.5 441 c 128,-1,0
 233 510 233 510 346 510 c 128,-1,1
330 441 m 128,-1,9
 254 441 254 441 199 390 c 128,-1,10
 144 339 144 339 123.5 250 c 128,-1,11
 103 161 103 161 134.5 110 c 128,-1,12
 166 59 166 59 241.5 59 c 128,-1,13
 317 59 317 59 372 110 c 128,-1,14
 427 161 427 161 447.5 250 c 128,-1,15
 468 339 468 339 437 390 c 128,-1,8
 406 441 406 441 330 441 c 128,-1,9
EndSplineSet
Substitution2: "Single Substitution lookup 55 subtable" ordmasculine
Substitution2: "'smcp' Lowercase to Small Capitals lookup 12 subtable" o.sc
AlternateSubs2: "'aalt' Access All Alternates lookup 1 subtable" o.sc ordmasculine
EndChar

StartChar: p
Encoding: 112 112 83
Width: 630
GlyphClass: 2
Flags: W
LayerCount: 2
Fore
SplineSet
381 510 m 0,0,1
 486 510 486 510 531.5 440.5 c 128,-1,2
 577 371 577 371 549 250 c 128,-1,3
 521 129 521 129 443.5 59.5 c 128,-1,4
 366 -10 366 -10 261 -10 c 0,5,6
 206 -10 206 -10 168 14 c 128,-1,7
 130 38 130 38 115 78 c 1,8,-1
 49 -210 l 1,9,-1
 -31 -210 l 1,10,-1
 132 500 l 1,11,-1
 202 500 l 1,12,-1
 187 413 l 1,13,14
 220 457 220 457 271.5 483.5 c 128,-1,15
 323 510 323 510 381 510 c 0,0,1
268 60 m 0,16,17
 341 60 341 60 395 111.5 c 128,-1,18
 449 163 449 163 469 250 c 128,-1,19
 489 337 489 337 459 388.5 c 128,-1,20
 429 440 429 440 356 440 c 0,21,22
 284 440 284 440 230 390 c 128,-1,23
 176 340 176 340 156 256 c 2,24,-1
 153 244 l 2,25,26
 134 160 134 160 165 110 c 128,-1,27
 196 60 196 60 268 60 c 0,16,17
EndSplineSet
Substitution2: "'smcp' Lowercase to Small Capitals lookup 12 subtable" p.sc
Substitution2: "'aalt' Access All Alternates lookup 0 subtable" p.sc
EndChar

StartChar: q
Encoding: 113 113 84
Width: 631
GlyphClass: 2
Flags: W
LayerCount: 2
Fore
SplineSet
507 500 m 1,0,-1
 577 500 l 1,1,-1
 414 -210 l 1,2,-1
 334 -210 l 1,3,-1
 400 78 l 1,4,5
 367 38 367 38 318 14 c 128,-1,6
 269 -10 269 -10 214 -10 c 0,7,8
 109 -10 109 -10 63.5 59.5 c 128,-1,9
 18 129 18 129 46 250 c 128,-1,10
 74 371 74 371 151.5 440.5 c 128,-1,11
 229 510 229 510 334 510 c 0,12,13
 392 510 392 510 431 483.5 c 128,-1,14
 470 457 470 457 482 413 c 1,15,-1
 507 500 l 1,0,-1
239 60 m 0,16,17
 310 60 310 60 364.5 110 c 128,-1,18
 419 160 419 160 438 244 c 2,19,-1
 441 256 l 2,20,21
 461 340 461 340 429.5 390 c 128,-1,22
 398 440 398 440 327 440 c 0,23,24
 253 440 253 440 199.5 388.5 c 128,-1,25
 146 337 146 337 126 250 c 128,-1,26
 106 163 106 163 136 111.5 c 128,-1,27
 166 60 166 60 239 60 c 0,16,17
EndSplineSet
Substitution2: "'smcp' Lowercase to Small Capitals lookup 12 subtable" q.sc
Substitution2: "'aalt' Access All Alternates lookup 0 subtable" q.sc
EndChar

StartChar: r
Encoding: 114 114 85
Width: 408
GlyphClass: 2
Flags: W
AnchorPoint: "Anchor-0" 78 0 basechar 0
LayerCount: 2
Fore
SplineSet
371 510 m 0,0,1
 407 510 407 510 423 500 c 1,2,-1
 389 422 l 1,3,4
 368 435 368 435 329 435 c 0,5,6
 279 435 279 435 228 391.5 c 128,-1,7
 177 348 177 348 159 270 c 2,8,-1
 97 0 l 1,9,-1
 17 0 l 1,10,-1
 132 500 l 1,11,-1
 197 500 l 1,12,-1
 190 418 l 1,13,14
 253 510 253 510 371 510 c 0,0,1
EndSplineSet
Substitution2: "Single Substitution lookup 57 subtable" r.swsh
Substitution2: "'swsh' Swash lookup 38 subtable" r.swsh
Substitution2: "'smcp' Lowercase to Small Capitals lookup 12 subtable" r.sc
AlternateSubs2: "'aalt' Access All Alternates lookup 1 subtable" r.sc r.swsh
EndChar

StartChar: s
Encoding: 115 115 86
Width: 527
GlyphClass: 2
Flags: W
AnchorPoint: "Anchor-0" 203 0 basechar 0
LayerCount: 2
Fore
SplineSet
185 -10 m 0,0,1
 113 -10 113 -10 61.5 18.5 c 128,-1,2
 10 47 10 47 -4 103 c 1,3,-1
 71 148 l 1,4,5
 78 104 78 104 115 82 c 128,-1,6
 152 60 152 60 209 60 c 0,7,8
 268 60 268 60 303.5 81 c 128,-1,9
 339 102 339 102 347 134 c 0,10,11
 354 163 354 163 329 180.5 c 128,-1,12
 304 198 304 198 234 211 c 0,13,14
 131 231 131 231 95.5 264 c 128,-1,15
 60 297 60 297 74.5 360 c 128,-1,16
 89 423 89 423 153 466.5 c 128,-1,17
 217 510 217 510 306 510 c 0,18,19
 386 510 386 510 427.5 480.5 c 128,-1,20
 469 451 469 451 476 390 c 1,21,-1
 399 350 l 1,22,23
 394 398 394 398 366.5 419 c 128,-1,24
 339 440 339 440 290 440 c 256,25,26
 241 440 241 440 201.5 418 c 128,-1,27
 162 396 162 396 156 367 c 0,28,29
 148 334 148 334 173.5 316 c 128,-1,30
 199 298 199 298 272 285 c 0,31,32
 372 268 372 268 407 234 c 128,-1,33
 442 200 442 200 428 138 c 0,34,35
 413 72 413 72 346.5 31 c 128,-1,36
 280 -10 280 -10 185 -10 c 0,0,1
EndSplineSet
Substitution2: "'hist' Historical Forms lookup 44 subtable" longs
Substitution2: "'smcp' Lowercase to Small Capitals lookup 12 subtable" s.sc
AlternateSubs2: "'aalt' Access All Alternates lookup 1 subtable" s.sc longs
EndChar

StartChar: t
Encoding: 116 116 87
Width: 419
GlyphClass: 2
Flags: W
AnchorPoint: "Anchor-0" 180 0 basechar 0
LayerCount: 2
Fore
SplineSet
319 102 m 1,0,-1
 331 35 l 1,1,2
 271 -10 271 -10 192 -10 c 0,3,4
 131 -10 131 -10 100 23 c 128,-1,5
 69 56 69 56 84 124 c 2,6,-1
 155 431 l 1,7,-1
 55 431 l 1,8,-1
 70 500 l 1,9,-1
 170 500 l 1,10,-1
 198 620 l 1,11,-1
 283 642 l 1,12,-1
 250 500 l 1,13,-1
 435 500 l 1,14,-1
 420 431 l 1,15,-1
 235 431 l 1,16,-1
 167 138 l 2,17,18
 159 102 159 102 175 83.5 c 128,-1,19
 191 65 191 65 225 65 c 0,20,21
 273 65 273 65 319 102 c 1,0,-1
EndSplineSet
Substitution2: "Single Substitution lookup 57 subtable" t.swsh
Substitution2: "'swsh' Swash lookup 38 subtable" t.swsh
Substitution2: "'smcp' Lowercase to Small Capitals lookup 12 subtable" t.sc
AlternateSubs2: "'aalt' Access All Alternates lookup 1 subtable" t.sc t.swsh
EndChar

StartChar: u
Encoding: 117 117 88
Width: 619
GlyphClass: 2
Flags: W
LayerCount: 2
Fore
SplineSet
485 500 m 1,0,-1
 565 500 l 1,1,-1
 450 0 l 1,2,-1
 380 0 l 1,3,-1
 393 76 l 1,4,5
 323 -10 323 -10 194 -10 c 0,6,7
 113 -10 113 -10 71.5 35 c 128,-1,8
 30 80 30 80 52 173 c 2,9,-1
 127 500 l 1,10,-1
 207 500 l 1,11,-1
 137 194 l 2,12,13
 120 121 120 121 143 90.5 c 128,-1,14
 166 60 166 60 224 60 c 0,15,16
 293 60 293 60 348 102 c 128,-1,17
 403 144 403 144 423 228 c 2,18,-1
 485 500 l 1,0,-1
EndSplineSet
Substitution2: "'smcp' Lowercase to Small Capitals lookup 12 subtable" u.sc
Substitution2: "'aalt' Access All Alternates lookup 0 subtable" u.sc
EndChar

StartChar: v
Encoding: 118 118 89
Width: 520
GlyphClass: 2
Flags: W
LayerCount: 2
Fore
SplineSet
463 500 m 1,0,-1
 547 500 l 1,1,-1
 224 0 l 1,2,-1
 144 0 l 1,3,-1
 51 500 l 1,4,-1
 142 500 l 1,5,-1
 204 81 l 1,6,-1
 463 500 l 1,0,-1
EndSplineSet
Substitution2: "'smcp' Lowercase to Small Capitals lookup 12 subtable" v.sc
Substitution2: "'aalt' Access All Alternates lookup 0 subtable" v.sc
EndChar

StartChar: w
Encoding: 119 119 90
Width: 856
GlyphClass: 2
Flags: W
LayerCount: 2
Fore
SplineSet
769 500 m 1,0,-1
 858 500 l 1,1,-1
 569 0 l 1,2,-1
 489 0 l 1,3,-1
 440 398 l 1,4,-1
 215 0 l 1,5,-1
 135 0 l 1,6,-1
 76 500 l 1,7,-1
 165 500 l 1,8,-1
 197 93 l 1,9,-1
 427 500 l 1,10,-1
 507 500 l 1,11,-1
 549 93 l 1,12,-1
 769 500 l 1,0,-1
EndSplineSet
Substitution2: "'smcp' Lowercase to Small Capitals lookup 12 subtable" w.sc
Substitution2: "'aalt' Access All Alternates lookup 0 subtable" w.sc
EndChar

StartChar: x
Encoding: 120 120 91
Width: 533
GlyphClass: 2
Flags: W
LayerCount: 2
Fore
SplineSet
424 0 m 1,0,-1
 326 0 l 1,1,-1
 233 193 l 1,2,-1
 46 0 l 1,3,-1
 -47 0 l 1,4,-1
 203 252 l 1,5,-1
 80 500 l 1,6,-1
 180 500 l 1,7,-1
 270 315 l 1,8,-1
 442 500 l 1,9,-1
 536 500 l 1,10,-1
 299 255 l 1,11,-1
 424 0 l 1,0,-1
EndSplineSet
Substitution2: "'smcp' Lowercase to Small Capitals lookup 12 subtable" x.sc
Substitution2: "'aalt' Access All Alternates lookup 0 subtable" x.sc
EndChar

StartChar: y
Encoding: 121 121 92
Width: 535
GlyphClass: 2
Flags: W
LayerCount: 2
Fore
SplineSet
557 500 m 1,0,-1
 188 -84 l 2,1,2
 142 -156 142 -156 99 -185.5 c 128,-1,3
 56 -215 56 -215 -1 -215 c 0,4,5
 -71 -215 -71 -215 -101 -173 c 1,6,-1
 -57 -105 l 1,7,8
 -38 -145 -38 -145 15 -145 c 0,9,10
 44 -145 44 -145 70 -127.5 c 128,-1,11
 96 -110 96 -110 124 -64 c 2,12,-1
 165 1 l 1,13,-1
 71 500 l 1,14,-1
 162 500 l 1,15,-1
 212 174 l 1,16,-1
 223 85 l 1,17,-1
 281 184 l 1,18,-1
 471 500 l 1,19,-1
 557 500 l 1,0,-1
EndSplineSet
Substitution2: "Single Substitution lookup 57 subtable" y.swsh
Substitution2: "'swsh' Swash lookup 38 subtable" y.swsh
Substitution2: "'smcp' Lowercase to Small Capitals lookup 12 subtable" y.sc
AlternateSubs2: "'aalt' Access All Alternates lookup 1 subtable" y.sc y.swsh
EndChar

StartChar: z
Encoding: 122 122 93
Width: 534
GlyphClass: 2
Flags: W
LayerCount: 2
Fore
SplineSet
-19 0 m 1,0,-1
 -5 61 l 1,1,-1
 328 368 l 1,2,-1
 406 433 l 1,3,-1
 317 431 l 1,4,-1
 84 431 l 1,5,-1
 99 500 l 1,6,-1
 510 500 l 1,7,-1
 496 439 l 1,8,-1
 163 132 l 1,9,-1
 86 67 l 1,10,-1
 184 69 l 1,11,-1
 419 69 l 1,12,-1
 403 0 l 1,13,-1
 -19 0 l 1,0,-1
EndSplineSet
Substitution2: "'smcp' Lowercase to Small Capitals lookup 12 subtable" z.sc
Substitution2: "'aalt' Access All Alternates lookup 0 subtable" z.sc
EndChar

StartChar: braceleft
Encoding: 123 123 94
Width: 351
GlyphClass: 2
Flags: W
LayerCount: 2
Fore
SplineSet
123 -71 m 2,0,1
 116 -98 116 -98 135.5 -111 c 128,-1,2
 155 -124 155 -124 205 -124 c 1,3,-1
 177 -189 l 1,4,5
 94 -189 94 -189 64.5 -158 c 128,-1,6
 35 -127 35 -127 49 -65 c 2,7,-1
 97 142 l 2,8,9
 110 198 110 198 89.5 222 c 128,-1,10
 69 246 69 246 9 246 c 1,11,-1
 25 316 l 1,12,13
 86 316 86 316 117 340 c 128,-1,14
 148 364 148 364 161 420 c 2,15,-1
 209 627 l 2,16,17
 223 689 223 689 267 720 c 128,-1,18
 311 751 311 751 394 751 c 1,19,-1
 392 686 l 1,20,21
 342 686 342 686 316.5 673 c 128,-1,22
 291 660 291 660 285 633 c 2,23,-1
 234 413 l 2,24,25
 210 306 210 306 90 281 c 1,26,27
 198 256 198 256 173 149 c 2,28,-1
 123 -71 l 2,0,1
EndSplineSet
Substitution2: "'case' Case-Sensitive Forms lookup 29 subtable" braceleft.case
Substitution2: "'aalt' Access All Alternates lookup 0 subtable" braceleft.case
EndChar

StartChar: bar
Encoding: 124 124 95
Width: 243
GlyphClass: 2
Flags: W
LayerCount: 2
Fore
SplineSet
249 730 m 1,0,-1
 41 -168 l 1,1,-1
 -28 -168 l 1,2,-1
 180 730 l 1,3,-1
 249 730 l 1,0,-1
EndSplineSet
Substitution2: "'case' Case-Sensitive Forms lookup 29 subtable" bar.case
Substitution2: "'aalt' Access All Alternates lookup 0 subtable" bar.case
EndChar

StartChar: braceright
Encoding: 125 125 96
Width: 351
GlyphClass: 2
Flags: W
LayerCount: 2
Fore
SplineSet
232 420 m 2,0,1
 219 364 219 364 239 340 c 128,-1,2
 259 316 259 316 320 316 c 1,3,-1
 304 246 l 1,4,5
 243 246 243 246 212 222 c 128,-1,6
 181 198 181 198 168 142 c 2,7,-1
 120 -65 l 2,8,9
 106 -127 106 -127 62 -158 c 128,-1,10
 18 -189 18 -189 -66 -189 c 1,11,-1
 -64 -124 l 1,12,13
 -13 -124 -13 -124 12 -111 c 128,-1,14
 37 -98 37 -98 44 -71 c 2,15,-1
 94 149 l 2,16,17
 119 256 119 256 239 281 c 1,18,19
 131 306 131 306 155 413 c 2,20,-1
 206 633 l 2,21,22
 212 660 212 660 193 673 c 128,-1,23
 174 686 174 686 123 686 c 1,24,-1
 151 751 l 1,25,26
 235 751 235 751 264.5 720 c 128,-1,27
 294 689 294 689 280 627 c 2,28,-1
 232 420 l 2,0,1
EndSplineSet
Substitution2: "'case' Case-Sensitive Forms lookup 29 subtable" braceright.case
Substitution2: "'aalt' Access All Alternates lookup 0 subtable" braceright.case
EndChar

StartChar: asciitilde
Encoding: 126 126 97
Width: 540
GlyphClass: 2
Flags: W
LayerCount: 2
Fore
SplineSet
510 384 m 1,0,1
 463 235 463 235 345 235 c 0,2,3
 315 235 315 235 289.5 246.5 c 128,-1,4
 264 258 264 258 250 272 c 128,-1,5
 236 286 236 286 216.5 297.5 c 128,-1,6
 197 309 197 309 176 309 c 0,7,8
 127 309 127 309 97 235 c 1,9,-1
 21 235 l 1,10,11
 68 384 68 384 187 384 c 0,12,13
 217 384 217 384 242 372.5 c 128,-1,14
 267 361 267 361 281.5 347 c 128,-1,15
 296 333 296 333 315.5 321.5 c 128,-1,16
 335 310 335 310 355 310 c 0,17,18
 403 310 403 310 434 384 c 1,19,-1
 510 384 l 1,0,1
EndSplineSet
EndChar

StartChar: exclamdown
Encoding: 161 161 99
Width: 264
GlyphClass: 2
Flags: W
LayerCount: 2
Fore
SplineSet
143.5 380 m 128,-1,1
 114 380 114 380 100.5 398 c 128,-1,2
 87 416 87 416 93.5 445 c 128,-1,3
 100 474 100 474 122 492 c 128,-1,4
 144 510 144 510 173.5 510 c 128,-1,5
 203 510 203 510 216.5 492 c 128,-1,6
 230 474 230 474 223.5 445 c 128,-1,7
 217 416 217 416 195 398 c 128,-1,0
 173 380 173 380 143.5 380 c 128,-1,1
-23 -160 m 1,8,-1
 43 126 l 1,9,-1
 93 292 l 1,10,-1
 153 292 l 1,11,-1
 127 126 l 1,12,-1
 61 -160 l 1,13,-1
 -23 -160 l 1,8,-1
EndSplineSet
Substitution2: "'case' Case-Sensitive Forms lookup 29 subtable" exclamdown.case
Substitution2: "'smcp' Lowercase to Small Capitals lookup 12 subtable" exclamdown.sc
Substitution2: "'c2sc' Capitals to Small Capitals lookup 11 subtable" exclamdown.sc
AlternateSubs2: "'aalt' Access All Alternates lookup 1 subtable" exclamdown.sc exclamdown.case
EndChar

StartChar: cent
Encoding: 162 162 100
Width: 567
GlyphClass: 2
Flags: W
LayerCount: 2
Fore
SplineSet
476 138 m 1,0,1
 439 74 439 74 383.5 36 c 128,-1,2
 328 -2 328 -2 259 -9 c 1,3,-1
 238 -100 l 1,4,-1
 171 -100 l 1,5,-1
 192 -8 l 1,6,7
 100 5 100 5 62 72.5 c 128,-1,8
 24 140 24 140 49.5 250 c 128,-1,9
 75 360 75 360 144 427.5 c 128,-1,10
 213 495 213 495 311 508 c 1,11,-1
 333 600 l 1,12,-1
 400 600 l 1,13,-1
 379 509 l 1,14,15
 502 497 502 497 526 377 c 1,16,-1
 442 341 l 1,17,18
 434 428 434 428 363 442 c 1,19,-1
 274 57 l 1,20,21
 362 70 362 70 410 163 c 1,22,-1
 476 138 l 1,0,1
124.5 250 m 128,-1,24
 106 169 106 169 127.5 119.5 c 128,-1,25
 149 70 149 70 207 58 c 1,26,-1
 296 442 l 1,27,28
 232 430 232 430 187.5 380.5 c 128,-1,23
 143 331 143 331 124.5 250 c 128,-1,24
EndSplineSet
Substitution2: "'tnum' Tabular Numbers lookup 26 subtable" cent.tf
Substitution2: "'aalt' Access All Alternates lookup 0 subtable" cent.tf
EndChar

StartChar: sterling
Encoding: 163 163 101
Width: 626
GlyphClass: 2
Flags: W
LayerCount: 2
Fore
SplineSet
483 153 m 1,0,-1
 548 153 l 1,1,2
 530 73 530 73 485 31.5 c 128,-1,3
 440 -10 440 -10 375 -10 c 0,4,5
 334 -10 334 -10 302.5 5 c 128,-1,6
 271 20 271 20 235 48 c 1,7,8
 169 -10 169 -10 82 -10 c 0,9,10
 31 -10 31 -10 7 14 c 128,-1,11
 -17 38 -17 38 -8 76 c 0,12,13
 0 113 0 113 38 139 c 128,-1,14
 76 165 76 165 130 165 c 0,15,16
 190 165 190 165 239 132 c 1,17,18
 249 154 249 154 254 173 c 0,19,20
 265 221 265 221 239 278 c 1,21,-1
 74 278 l 1,22,-1
 89 343 l 1,23,-1
 204 343 l 1,24,25
 168 414 168 414 180 467 c 0,26,27
 200 556 200 556 272.5 613 c 128,-1,28
 345 670 345 670 438 670 c 0,29,30
 594 670 594 670 601 514 c 1,31,-1
 523 476 l 1,32,33
 522 536 522 536 498 566.5 c 128,-1,34
 474 597 474 597 417 597 c 0,35,36
 356 597 356 597 312.5 565 c 128,-1,37
 269 533 269 533 257 480 c 0,38,39
 250 452 250 452 256 425 c 128,-1,40
 262 398 262 398 285 350 c 0,41,42
 286 349 286 349 286.5 346.5 c 128,-1,43
 287 344 287 344 288 343 c 2,44,-1
 476 343 l 1,45,-1
 461 278 l 1,46,-1
 313 278 l 1,47,48
 327 228 327 228 315 177 c 0,49,50
 306 138 306 138 280 98 c 1,51,52
 297 84 297 84 308.5 76 c 128,-1,53
 320 68 320 68 339 61 c 128,-1,54
 358 54 358 54 378 54 c 0,55,56
 421 54 421 54 445.5 77 c 128,-1,57
 470 100 470 100 483 153 c 1,0,-1
104 44 m 0,58,59
 156 44 156 44 197 77 c 1,60,61
 154 105 154 105 117 105 c 0,62,63
 71 105 71 105 65 76 c 0,64,65
 61 61 61 61 72 52.5 c 128,-1,66
 83 44 83 44 104 44 c 0,58,59
EndSplineSet
Substitution2: "'tnum' Tabular Numbers lookup 26 subtable" sterling.tf
Substitution2: "'aalt' Access All Alternates lookup 0 subtable" sterling.tf
EndChar

StartChar: currency
Encoding: 164 164 102
Width: 665
GlyphClass: 2
Flags: W
LayerCount: 2
Fore
SplineSet
543 329 m 0,0,1
 527 259 527 259 477 204 c 1,2,-1
 546 117 l 1,3,-1
 483 66 l 1,4,-1
 413 153 l 1,5,6
 353 118 353 118 284 118 c 256,7,8
 215 118 215 118 168 156 c 1,9,-1
 60 66 l 1,10,-1
 21 117 l 1,11,-1
 130 207 l 1,12,13
 106 259 106 259 122 329 c 0,14,15
 138 398 138 398 188 453 c 1,16,-1
 119 540 l 1,17,-1
 181 591 l 1,18,-1
 250 503 l 1,19,20
 312 539 312 539 381 539 c 0,21,22
 453 539 453 539 497 502 c 1,23,-1
 604 591 l 1,24,-1
 644 540 l 1,25,-1
 536 451 l 1,26,27
 559 397 559 397 543 329 c 0,0,1
301 190 m 0,28,29
 357 190 357 190 403 229 c 128,-1,30
 449 268 449 268 463 329 c 0,31,32
 477 389 477 389 449 428 c 128,-1,33
 421 467 421 467 365 467 c 0,34,35
 308 467 308 467 262 428 c 128,-1,36
 216 389 216 389 202 329 c 0,37,38
 188 268 188 268 216 229 c 128,-1,39
 244 190 244 190 301 190 c 0,28,29
EndSplineSet
Substitution2: "'tnum' Tabular Numbers lookup 26 subtable" currency.tf
Substitution2: "'aalt' Access All Alternates lookup 0 subtable" currency.tf
EndChar

StartChar: yen
Encoding: 165 165 103
Width: 620
GlyphClass: 2
Flags: W
LayerCount: 2
Fore
SplineSet
356 293 m 1,0,-1
 401 297 l 1,1,-1
 531 297 l 1,2,-1
 517 237 l 1,3,-1
 324 237 l 1,4,-1
 306 162 l 1,5,-1
 499 162 l 1,6,-1
 487 107 l 1,7,-1
 294 107 l 1,8,-1
 269 0 l 1,9,-1
 199 0 l 1,10,-1
 224 107 l 1,11,-1
 32 107 l 1,12,-1
 44 162 l 1,13,-1
 236 162 l 1,14,-1
 254 237 l 1,15,-1
 62 237 l 1,16,-1
 76 297 l 1,17,-1
 205 297 l 1,18,-1
 248 293 l 1,19,-1
 110 660 l 1,20,-1
 203 660 l 1,21,-1
 281 417 l 1,22,-1
 306 318 l 1,23,-1
 308 318 l 1,24,-1
 380 418 l 1,25,-1
 569 660 l 1,26,-1
 662 660 l 1,27,-1
 356 293 l 1,0,-1
EndSplineSet
Substitution2: "'tnum' Tabular Numbers lookup 26 subtable" yen.tf
Substitution2: "'aalt' Access All Alternates lookup 0 subtable" yen.tf
EndChar

StartChar: brokenbar
Encoding: 166 166 104
Width: 255
GlyphClass: 2
Flags: W
LayerCount: 2
Fore
SplineSet
255 730 m 1,0,-1
 171 367 l 1,1,-1
 102 367 l 1,2,-1
 186 730 l 1,3,-1
 255 730 l 1,0,-1
131 195 m 1,4,-1
 47 -168 l 1,5,-1
 -22 -168 l 1,6,-1
 62 195 l 1,7,-1
 131 195 l 1,4,-1
EndSplineSet
EndChar

StartChar: section
Encoding: 167 167 105
Width: 598
GlyphClass: 2
Flags: W
LayerCount: 2
Fore
SplineSet
557 271 m 0,0,1
 537 186 537 186 433 134 c 1,2,3
 456 100 456 100 442 40 c 0,4,5
 428 -24 428 -24 360.5 -67 c 128,-1,6
 293 -110 293 -110 200 -110 c 0,7,8
 148 -110 148 -110 109.5 -97.5 c 128,-1,9
 71 -85 71 -85 47 -63 c 128,-1,10
 23 -41 23 -41 8 -9 c 1,11,-1
 78 40 l 1,12,13
 92 -1 92 -1 124.5 -20.5 c 128,-1,14
 157 -40 157 -40 215 -40 c 0,15,16
 276 -40 276 -40 314.5 -20.5 c 128,-1,17
 353 -1 353 -1 361 33 c 0,18,19
 371 77 371 77 338 100 c 128,-1,20
 305 123 305 123 208 136 c 0,21,22
 91 152 91 152 49 187 c 128,-1,23
 7 222 7 222 23 289 c 0,24,25
 42 374 42 374 146 426 c 1,26,27
 123 460 123 460 137 520 c 0,28,29
 152 584 152 584 220.5 627 c 128,-1,30
 289 670 289 670 387 670 c 0,31,32
 466 670 466 670 508 643.5 c 128,-1,33
 550 617 550 617 571 569 c 1,34,-1
 504 521 l 1,35,36
 487 561 487 561 456 580.5 c 128,-1,37
 425 600 425 600 369 600 c 0,38,39
 305 600 305 600 266 581 c 128,-1,40
 227 562 227 562 219 527 c 0,41,42
 208 483 208 483 241 460 c 128,-1,43
 274 437 274 437 371 424 c 0,44,45
 488 408 488 408 530 373 c 128,-1,46
 572 338 572 338 557 271 c 0,0,1
378 177 m 1,47,48
 463 211 463 211 475 264 c 0,49,50
 484 301 484 301 452.5 321 c 128,-1,51
 421 341 421 341 333 351 c 0,52,53
 247 362 247 362 201 382 c 1,54,55
 117 351 117 351 104 296 c 0,56,57
 96 259 96 259 127 239.5 c 128,-1,58
 158 220 158 220 246 209 c 0,59,60
 333 198 333 198 378 177 c 1,47,48
EndSplineSet
EndChar

StartChar: dieresis
Encoding: 168 168 106
Width: 500
GlyphClass: 2
Flags: W
LayerCount: 2
Fore
SplineSet
240.5 696 m 128,-1,1
 266 696 266 696 278 680.5 c 128,-1,2
 290 665 290 665 284.5 639 c 128,-1,3
 279 613 279 613 259.5 597.5 c 128,-1,4
 240 582 240 582 214.5 582 c 128,-1,5
 189 582 189 582 177 598 c 128,-1,6
 165 614 165 614 170.5 639 c 128,-1,7
 176 664 176 664 195.5 680 c 128,-1,0
 215 696 215 696 240.5 696 c 128,-1,1
434.5 696 m 128,-1,9
 460 696 460 696 472 680.5 c 128,-1,10
 484 665 484 665 478.5 639 c 128,-1,11
 473 613 473 613 453.5 597.5 c 128,-1,12
 434 582 434 582 408.5 582 c 128,-1,13
 383 582 383 582 371 598 c 128,-1,14
 359 614 359 614 364.5 639 c 128,-1,15
 370 664 370 664 389.5 680 c 128,-1,8
 409 696 409 696 434.5 696 c 128,-1,9
EndSplineSet
EndChar

StartChar: copyright
Encoding: 169 169 107
Width: 820
GlyphClass: 2
Flags: W
LayerCount: 2
Fore
SplineSet
489 670 m 128,-1,1
 645 670 645 670 716.5 577.5 c 128,-1,2
 788 485 788 485 752 330 c 128,-1,3
 716 175 716 175 602 82.5 c 128,-1,4
 488 -10 488 -10 332 -10 c 128,-1,5
 176 -10 176 -10 104 82.5 c 128,-1,6
 32 175 32 175 68 330 c 128,-1,7
 104 485 104 485 218.5 577.5 c 128,-1,0
 333 670 333 670 489 670 c 128,-1,1
473.5 605 m 128,-1,9
 350 605 350 605 259 530 c 128,-1,10
 168 455 168 455 139 330 c 128,-1,11
 110 205 110 205 166.5 130 c 128,-1,12
 223 55 223 55 346.5 55 c 128,-1,13
 470 55 470 55 561 130 c 128,-1,14
 652 205 652 205 681 330 c 128,-1,15
 710 455 710 455 653.5 530 c 128,-1,8
 597 605 597 605 473.5 605 c 128,-1,9
459 513 m 0,16,17
 574 513 574 513 594 418 c 1,18,-1
 529 389 l 1,19,20
 518 453 518 453 445 453 c 0,21,22
 391 453 391 453 353 420 c 128,-1,23
 315 387 315 387 301.5 328 c 128,-1,24
 288 269 288 269 310.5 236 c 128,-1,25
 333 203 333 203 387 203 c 0,26,27
 468 203 468 203 508 270 c 1,28,-1
 558 248 l 1,29,30
 494 143 494 143 374 143 c 0,31,32
 289 143 289 143 252 192.5 c 128,-1,33
 215 242 215 242 235 328 c 128,-1,34
 255 414 255 414 315 463.5 c 128,-1,35
 375 513 375 513 459 513 c 0,16,17
EndSplineSet
EndChar

StartChar: ordfeminine
Encoding: 170 170 108
Width: 382
GlyphClass: 2
Flags: W
LayerCount: 2
Fore
SplineSet
352 376 m 0,0,1
 368 376 368 376 377 380 c 1,2,-1
 362 336 l 1,3,4
 340 327 340 327 320 327 c 0,5,6
 266 327 266 327 265 377 c 1,7,8
 216 327 216 327 128 327 c 0,9,10
 77 327 77 327 52.5 348.5 c 128,-1,11
 28 370 28 370 38 410 c 0,12,13
 57 492 57 492 192 515 c 2,14,-1
 289 531 l 1,15,-1
 292 545 l 2,16,17
 299 576 299 576 283.5 593.5 c 128,-1,18
 268 611 268 611 233 611 c 0,19,20
 162 611 162 611 125 550 c 1,21,-1
 83 579 l 1,22,23
 103 618 103 618 146.5 641.5 c 128,-1,24
 190 665 190 665 249 665 c 0,25,26
 316 665 316 665 345 635 c 128,-1,27
 374 605 374 605 360 547 c 2,28,-1
 328 407 l 2,29,30
 321 376 321 376 352 376 c 0,0,1
159 381 m 0,31,32
 195 381 195 381 228.5 399.5 c 128,-1,33
 262 418 262 418 269 448 c 2,34,-1
 278 486 l 1,35,-1
 204 472 l 2,36,37
 158 463 158 463 136.5 451.5 c 128,-1,38
 115 440 115 440 110 418 c 0,39,40
 105 398 105 398 117 389.5 c 128,-1,41
 129 381 129 381 159 381 c 0,31,32
-4 201 m 1,42,-1
 9 254 l 1,43,-1
 329 254 l 1,44,-1
 316 201 l 1,45,-1
 -4 201 l 1,42,-1
EndSplineSet
EndChar

StartChar: guillemotleft
Encoding: 171 171 109
Width: 493
GlyphClass: 2
Flags: W
LayerCount: 2
Fore
SplineSet
294 461 m 1,0,-1
 121 265 l 1,1,-1
 204 69 l 1,2,-1
 117 69 l 1,3,-1
 36 265 l 1,4,-1
 207 461 l 1,5,-1
 294 461 l 1,0,-1
471 461 m 1,6,-1
 298 265 l 1,7,-1
 381 69 l 1,8,-1
 294 69 l 1,9,-1
 213 265 l 1,10,-1
 384 461 l 1,11,-1
 471 461 l 1,6,-1
EndSplineSet
Substitution2: "'case' Case-Sensitive Forms lookup 29 subtable" guillemotleft.case
Substitution2: "'aalt' Access All Alternates lookup 0 subtable" guillemotleft.case
EndChar

StartChar: logicalnot
Encoding: 172 172 110
Width: 604
GlyphClass: 2
Flags: W
LayerCount: 2
Fore
SplineSet
65 354 m 1,0,-1
 551 354 l 1,1,-1
 499 131 l 1,2,-1
 419 131 l 1,3,-1
 453 279 l 1,4,-1
 47 279 l 1,5,-1
 65 354 l 1,0,-1
EndSplineSet
EndChar

StartChar: uni00AD
Encoding: 173 173 111
Width: 510
GlyphClass: 2
Flags: W
LayerCount: 2
Fore
SplineSet
414 303 m 1,0,-1
 395 220 l 1,1,-1
 65 220 l 1,2,-1
 84 303 l 1,3,-1
 414 303 l 1,0,-1
EndSplineSet
EndChar

StartChar: registered
Encoding: 174 174 112
Width: 820
GlyphClass: 2
Flags: W
LayerCount: 2
Fore
SplineSet
489 670 m 128,-1,1
 645 670 645 670 716.5 577.5 c 128,-1,2
 788 485 788 485 752 330 c 128,-1,3
 716 175 716 175 602 82.5 c 128,-1,4
 488 -10 488 -10 332 -10 c 128,-1,5
 176 -10 176 -10 104 82.5 c 128,-1,6
 32 175 32 175 68 330 c 128,-1,7
 104 485 104 485 218.5 577.5 c 128,-1,0
 333 670 333 670 489 670 c 128,-1,1
346.5 55 m 128,-1,9
 470 55 470 55 561 130 c 128,-1,10
 652 205 652 205 681 330 c 128,-1,11
 710 455 710 455 653.5 530 c 128,-1,12
 597 605 597 605 473.5 605 c 128,-1,13
 350 605 350 605 259 530 c 128,-1,14
 168 455 168 455 139 330 c 128,-1,15
 110 205 110 205 166.5 130 c 128,-1,8
 223 55 223 55 346.5 55 c 128,-1,9
588 395 m 0,16,17
 578 353 578 353 547.5 323.5 c 128,-1,18
 517 294 517 294 472 283 c 1,19,-1
 538 143 l 1,20,-1
 462 143 l 1,21,-1
 404 277 l 1,22,-1
 336 277 l 1,23,-1
 305 143 l 1,24,-1
 238 143 l 1,25,-1
 323 513 l 1,26,-1
 475 513 l 2,27,28
 538 513 538 513 569.5 481 c 128,-1,29
 601 449 601 449 588 395 c 0,16,17
379 462 m 1,30,-1
 348 328 l 1,31,-1
 432 328 l 2,32,33
 506 328 506 328 521.5 395 c 128,-1,34
 537 462 537 462 463 462 c 2,35,-1
 379 462 l 1,30,-1
EndSplineSet
Substitution2: "'ordn' Ordinals lookup 22 subtable" registeredsuperior
Substitution2: "'sups' Superscript lookup 15 subtable" registeredsuperior
Substitution2: "'aalt' Access All Alternates lookup 0 subtable" registeredsuperior
EndChar

StartChar: macron
Encoding: 175 175 113
Width: 500
GlyphClass: 2
Flags: W
LayerCount: 2
Fore
SplineSet
501 663 m 1,0,-1
 486 596 l 1,1,-1
 138 596 l 1,2,-1
 153 663 l 1,3,-1
 501 663 l 1,0,-1
EndSplineSet
EndChar

StartChar: degree
Encoding: 176 176 114
Width: 460
GlyphClass: 2
Flags: W
LayerCount: 2
Fore
SplineSet
232.5 340 m 128,-1,1
 158 340 158 340 121 386.5 c 128,-1,2
 84 433 84 433 100.5 505 c 128,-1,3
 117 577 117 577 175.5 623.5 c 128,-1,4
 234 670 234 670 308.5 670 c 128,-1,5
 383 670 383 670 420 623.5 c 128,-1,6
 457 577 457 577 440.5 505 c 128,-1,7
 424 433 424 433 365.5 386.5 c 128,-1,0
 307 340 307 340 232.5 340 c 128,-1,1
247.5 405 m 128,-1,9
 291 405 291 405 326 433 c 128,-1,10
 361 461 361 461 371 505 c 128,-1,11
 381 549 381 549 359 577 c 128,-1,12
 337 605 337 605 293.5 605 c 128,-1,13
 250 605 250 605 215.5 576.5 c 128,-1,14
 181 548 181 548 171 505 c 128,-1,15
 161 462 161 462 182.5 433.5 c 128,-1,8
 204 405 204 405 247.5 405 c 128,-1,9
EndSplineSet
EndChar

StartChar: plusminus
Encoding: 177 177 115
Width: 604
GlyphClass: 2
Flags: W
LayerCount: 2
Fore
SplineSet
364 434 m 1,0,-1
 569 434 l 1,1,-1
 552 359 l 1,2,-1
 347 359 l 1,3,-1
 300 154 l 1,4,-1
 225 154 l 1,5,-1
 272 359 l 1,6,-1
 66 359 l 1,7,-1
 83 434 l 1,8,-1
 289 434 l 1,9,-1
 337 640 l 1,10,-1
 412 640 l 1,11,-1
 364 434 l 1,0,-1
-17 0 m 1,12,-1
 0 75 l 1,13,-1
 486 75 l 1,14,-1
 469 0 l 1,15,-1
 -17 0 l 1,12,-1
EndSplineSet
EndChar

StartChar: uni00B2
Encoding: 178 178 116
Width: 365
GlyphClass: 2
Flags: W
LayerCount: 2
Fore
SplineSet
40 333 m 1,0,-1
 51 381 l 1,1,2
 127 427 127 427 158 448 c 0,3,4
 244 505 244 505 276.5 537.5 c 128,-1,5
 309 570 309 570 317 604 c 0,6,7
 325 637 325 637 309.5 657 c 128,-1,8
 294 677 294 677 257 677 c 0,9,10
 218 677 218 677 189.5 652.5 c 128,-1,11
 161 628 161 628 150 584 c 1,12,-1
 92 606 l 1,13,14
 110 666 110 666 158.5 700.5 c 128,-1,15
 207 735 207 735 274 735 c 0,16,17
 344 735 344 735 374 698 c 128,-1,18
 404 661 404 661 391 608 c 0,19,20
 381 564 381 564 335.5 519.5 c 128,-1,21
 290 475 290 475 204 423 c 0,22,23
 194 417 194 417 144 388 c 1,24,-1
 143 387 l 1,25,26
 180 390 180 390 208 390 c 2,27,-1
 350 390 l 1,28,-1
 337 333 l 1,29,-1
 40 333 l 1,0,-1
EndSplineSet
EndChar

StartChar: uni00B3
Encoding: 179 179 117
Width: 362
GlyphClass: 2
Flags: W
LayerCount: 2
Fore
SplineSet
275 735 m 0,0,1
 340 735 340 735 369.5 705.5 c 128,-1,2
 399 676 399 676 388 627 c 0,3,4
 378 585 378 585 347.5 560 c 128,-1,5
 317 535 317 535 287 533 c 1,6,-1
 287 532 l 1,7,8
 320 531 320 531 341.5 506.5 c 128,-1,9
 363 482 363 482 354 440 c 0,10,11
 342 389 342 389 292.5 358 c 128,-1,12
 243 327 243 327 177 327 c 0,13,14
 55 327 55 327 46 423 c 1,15,-1
 120 453 l 1,16,17
 118 418 118 418 135 401.5 c 128,-1,18
 152 385 152 385 190 385 c 0,19,20
 225 385 225 385 250.5 402.5 c 128,-1,21
 276 420 276 420 283 450 c 0,22,23
 289 478 289 478 273 492 c 128,-1,24
 257 506 257 506 218 506 c 2,25,-1
 194 506 l 1,26,-1
 205 556 l 1,27,-1
 226 556 l 2,28,29
 297 556 297 556 311 616 c 0,30,31
 318 646 318 646 304 661.5 c 128,-1,32
 290 677 290 677 257 677 c 0,33,34
 193 677 193 677 167 617 c 1,35,-1
 108 640 l 1,36,37
 131 687 131 687 175 711 c 128,-1,38
 219 735 219 735 275 735 c 0,0,1
EndSplineSet
EndChar

StartChar: acute
Encoding: 180 180 118
Width: 500
GlyphClass: 2
Flags: W
LayerCount: 2
Fore
SplineSet
381 750 m 1,0,-1
 468 750 l 1,1,-1
 332 583 l 1,2,-1
 267 583 l 1,3,-1
 381 750 l 1,0,-1
EndSplineSet
EndChar

StartChar: uni00B5
Encoding: 181 181 119
Width: 611
GlyphClass: 2
Flags: W
LayerCount: 2
Fore
SplineSet
484 500 m 1,0,-1
 564 500 l 1,1,-1
 449 0 l 1,2,-1
 384 0 l 1,3,-1
 396 81 l 1,4,5
 323 -10 323 -10 193 -10 c 0,6,7
 126 -10 126 -10 99 35 c 1,8,-1
 43 -210 l 1,9,-1
 -37 -210 l 1,10,-1
 126 500 l 1,11,-1
 206 500 l 1,12,-1
 136 194 l 2,13,14
 119 121 119 121 142 90.5 c 128,-1,15
 165 60 165 60 223 60 c 0,16,17
 288 60 288 60 338 93 c 128,-1,18
 388 126 388 126 411 184 c 1,19,-1
 484 500 l 1,0,-1
EndSplineSet
EndChar

StartChar: paragraph
Encoding: 182 182 120
Width: 637
GlyphClass: 2
Flags: W
LayerCount: 2
Fore
SplineSet
622 660 m 1,0,-1
 447 -100 l 1,1,-1
 377 -100 l 1,2,-1
 537 593 l 1,3,-1
 408 593 l 1,4,-1
 248 -100 l 1,5,-1
 175 -100 l 1,6,-1
 254 241 l 1,7,8
 146 242 146 242 96.5 298.5 c 128,-1,9
 47 355 47 355 69 450 c 0,10,11
 92 548 92 548 170.5 604 c 128,-1,12
 249 660 249 660 371 660 c 2,13,-1
 622 660 l 1,0,-1
EndSplineSet
Substitution2: "'ornm' Ornaments lookup 40 subtable" uni2761
Substitution2: "'aalt' Access All Alternates lookup 0 subtable" uni2761
EndChar

StartChar: periodcentered
Encoding: 183 183 121
Width: 226
GlyphClass: 2
Flags: W
LayerCount: 2
Fore
SplineSet
134 420 m 128,-1,1
 163 420 163 420 177 402 c 128,-1,2
 191 384 191 384 184 355 c 128,-1,3
 177 326 177 326 155 308 c 128,-1,4
 133 290 133 290 104 290 c 128,-1,5
 75 290 75 290 61 308 c 128,-1,6
 47 326 47 326 54 355 c 128,-1,7
 61 384 61 384 83 402 c 128,-1,0
 105 420 105 420 134 420 c 128,-1,1
EndSplineSet
Substitution2: "Single Substitution lookup 55 subtable" periodcentered.loclCAT.sc
Substitution2: "Single Substitution lookup 54 subtable" periodcentered.loclCAT.case
Substitution2: "Single Substitution lookup 53 subtable" periodcentered.loclCAT
Substitution2: "'case' Case-Sensitive Forms lookup 29 subtable" periodcentered.case
Substitution2: "'smcp' Lowercase to Small Capitals lookup 12 subtable" periodcentered.sc
Substitution2: "'c2sc' Capitals to Small Capitals lookup 11 subtable" periodcentered.sc
AlternateSubs2: "'aalt' Access All Alternates lookup 1 subtable" periodcentered.sc periodcentered.case
Position2: "Single Positioning lookup 6 subtable" dx=0 dy=0 dh=-30 dv=0
EndChar

StartChar: cedilla
Encoding: 184 184 122
Width: 500
GlyphClass: 2
Flags: W
LayerCount: 2
Fore
SplineSet
128 3 m 1,0,-1
 178 29 l 1,1,2
 233 11 233 11 257 -27 c 128,-1,3
 281 -65 281 -65 271 -108 c 0,4,5
 261 -152 261 -152 222.5 -183.5 c 128,-1,6
 184 -215 184 -215 130 -215 c 0,7,8
 60 -215 60 -215 28 -180 c 1,9,-1
 71 -125 l 1,10,11
 92 -155 92 -155 133 -155 c 0,12,13
 158 -155 158 -155 178 -139 c 128,-1,14
 198 -123 198 -123 204 -97 c 0,15,16
 211 -65 211 -65 195.5 -44 c 128,-1,17
 180 -23 180 -23 128 3 c 1,0,-1
EndSplineSet
EndChar

StartChar: uni00B9
Encoding: 185 185 123
Width: 242
GlyphClass: 2
Flags: W
LayerCount: 2
Fore
SplineSet
220 730 m 1,0,-1
 282 730 l 1,1,-1
 190 333 l 1,2,-1
 120 333 l 1,3,-1
 178 584 l 2,4,5
 182 604 182 604 196 656 c 1,6,7
 134 608 134 608 72 598 c 1,8,-1
 86 658 l 1,9,10
 116 664 116 664 157.5 685.5 c 128,-1,11
 199 707 199 707 220 730 c 1,0,-1
EndSplineSet
EndChar

StartChar: ordmasculine
Encoding: 186 186 124
Width: 360
GlyphClass: 2
Flags: W
LayerCount: 2
Fore
SplineSet
179.5 327 m 128,-1,1
 103 327 103 327 73 371.5 c 128,-1,2
 43 416 43 416 61.5 496 c 128,-1,3
 80 576 80 576 130.5 620.5 c 128,-1,4
 181 665 181 665 257.5 665 c 128,-1,5
 334 665 334 665 364 620.5 c 128,-1,6
 394 576 394 576 375.5 496 c 128,-1,7
 357 416 357 416 306.5 371.5 c 128,-1,0
 256 327 256 327 179.5 327 c 128,-1,1
192 382 m 128,-1,9
 279 382 279 382 306 496 c 0,10,11
 318 551 318 551 303 581 c 128,-1,12
 288 611 288 611 245 611 c 128,-1,13
 202 611 202 611 173 581 c 128,-1,14
 144 551 144 551 132 496 c 0,15,8
 105 382 105 382 192 382 c 128,-1,9
6 201 m 1,16,-1
 19 254 l 1,17,-1
 307 254 l 1,18,-1
 294 201 l 1,19,-1
 6 201 l 1,16,-1
EndSplineSet
EndChar

StartChar: guillemotright
Encoding: 187 187 125
Width: 492
GlyphClass: 2
Flags: W
LayerCount: 2
Fore
SplineSet
81 461 m 1,0,-1
 168 461 l 1,1,-1
 249 265 l 1,2,-1
 78 69 l 1,3,-1
 -9 69 l 1,4,-1
 164 265 l 1,5,-1
 81 461 l 1,0,-1
258 461 m 1,6,-1
 345 461 l 1,7,-1
 426 265 l 1,8,-1
 255 69 l 1,9,-1
 168 69 l 1,10,-1
 341 265 l 1,11,-1
 258 461 l 1,6,-1
EndSplineSet
Substitution2: "'case' Case-Sensitive Forms lookup 29 subtable" guillemotright.case
Substitution2: "'aalt' Access All Alternates lookup 0 subtable" guillemotright.case
EndChar

StartChar: onequarter
Encoding: 188 188 126
Width: 788
GlyphClass: 2
Flags: W
LayerCount: 2
Fore
SplineSet
163 519 m 2,0,1
 167 539 167 539 181 591 c 1,2,3
 119 543 119 543 57 533 c 1,4,-1
 71 593 l 1,5,6
 101 599 101 599 142.5 620.5 c 128,-1,7
 184 642 184 642 205 665 c 1,8,-1
 267 665 l 1,9,-1
 175 268 l 1,10,-1
 105 268 l 1,11,-1
 163 519 l 2,0,1
641 660 m 1,12,-1
 720 660 l 1,13,-1
 91 0 l 1,14,-1
 12 0 l 1,15,-1
 641 660 l 1,12,-1
654 145 m 1,16,-1
 725 145 l 1,17,-1
 714 95 l 1,18,-1
 643 95 l 1,19,-1
 620 -4 l 1,20,-1
 561 -4 l 1,21,-1
 584 95 l 1,22,-1
 385 95 l 1,23,-1
 393 132 l 1,24,-1
 636 393 l 1,25,-1
 712 393 l 1,26,-1
 654 145 l 1,16,-1
622 259 m 2,27,28
 631 297 631 297 642 335 c 1,29,-1
 639 335 l 1,30,31
 614 302 614 302 595 281 c 2,32,-1
 464 145 l 1,33,-1
 595 145 l 1,34,-1
 622 259 l 2,27,28
EndSplineSet
EndChar

StartChar: onehalf
Encoding: 189 189 127
Width: 855
GlyphClass: 2
Flags: W
LayerCount: 2
Fore
SplineSet
163 519 m 2,0,1
 167 539 167 539 181 591 c 1,2,3
 119 543 119 543 57 533 c 1,4,-1
 71 593 l 1,5,6
 101 599 101 599 142.5 620.5 c 128,-1,7
 184 642 184 642 205 665 c 1,8,-1
 267 665 l 1,9,-1
 175 268 l 1,10,-1
 105 268 l 1,11,-1
 163 519 l 2,0,1
641 660 m 1,12,-1
 720 660 l 1,13,-1
 91 0 l 1,14,-1
 12 0 l 1,15,-1
 641 660 l 1,12,-1
620 53 m 2,16,-1
 762 53 l 1,17,-1
 749 -4 l 1,18,-1
 452 -4 l 1,19,-1
 463 44 l 1,20,21
 539 90 539 90 571 111 c 0,22,23
 656 168 656 168 689 200.5 c 128,-1,24
 722 233 722 233 730 267 c 0,25,26
 737 300 737 300 721.5 320 c 128,-1,27
 706 340 706 340 669 340 c 0,28,29
 631 340 631 340 602.5 315.5 c 128,-1,30
 574 291 574 291 562 247 c 1,31,-1
 504 269 l 1,32,33
 522 329 522 329 570.5 363.5 c 128,-1,34
 619 398 619 398 686 398 c 0,35,36
 756 398 756 398 786 361 c 128,-1,37
 816 324 816 324 804 271 c 0,38,39
 793 227 793 227 748 182.5 c 128,-1,40
 703 138 703 138 616 86 c 0,41,42
 606 80 606 80 556 51 c 1,43,-1
 556 50 l 1,44,45
 592 53 592 53 620 53 c 2,16,-1
EndSplineSet
EndChar

StartChar: threequarters
Encoding: 190 190 128
Width: 908
GlyphClass: 2
Flags: W
LayerCount: 2
Fore
SplineSet
260 670 m 0,0,1
 325 670 325 670 354.5 640.5 c 128,-1,2
 384 611 384 611 373 562 c 0,3,4
 363 520 363 520 332.5 495 c 128,-1,5
 302 470 302 470 272 468 c 1,6,-1
 272 467 l 1,7,8
 305 466 305 466 326.5 441.5 c 128,-1,9
 348 417 348 417 339 375 c 0,10,11
 327 324 327 324 277.5 293 c 128,-1,12
 228 262 228 262 162 262 c 0,13,14
 40 262 40 262 31 358 c 1,15,-1
 105 388 l 1,16,17
 103 353 103 353 120 336.5 c 128,-1,18
 137 320 137 320 175 320 c 0,19,20
 210 320 210 320 235.5 337.5 c 128,-1,21
 261 355 261 355 268 385 c 0,22,23
 274 413 274 413 258 427 c 128,-1,24
 242 441 242 441 203 441 c 2,25,-1
 179 441 l 1,26,-1
 190 491 l 1,27,-1
 211 491 l 2,28,29
 282 491 282 491 296 551 c 0,30,31
 303 581 303 581 289 596.5 c 128,-1,32
 275 612 275 612 242 612 c 0,33,34
 178 612 178 612 152 552 c 1,35,-1
 93 575 l 1,36,37
 116 622 116 622 160 646 c 128,-1,38
 204 670 204 670 260 670 c 0,0,1
132 0 m 1,39,-1
 761 660 l 1,40,-1
 840 660 l 1,41,-1
 211 0 l 1,42,-1
 132 0 l 1,39,-1
845 145 m 1,43,-1
 834 95 l 1,44,-1
 763 95 l 1,45,-1
 740 -4 l 1,46,-1
 681 -4 l 1,47,-1
 704 95 l 1,48,-1
 505 95 l 1,49,-1
 513 132 l 1,50,-1
 756 393 l 1,51,-1
 832 393 l 1,52,-1
 774 145 l 1,53,-1
 845 145 l 1,43,-1
584 145 m 1,54,-1
 715 145 l 1,55,-1
 742 259 l 2,56,57
 751 297 751 297 762 335 c 1,58,-1
 759 335 l 1,59,60
 734 302 734 302 715 281 c 2,61,-1
 584 145 l 1,54,-1
EndSplineSet
EndChar

StartChar: questiondown
Encoding: 191 191 129
Width: 537
GlyphClass: 2
Flags: W
LayerCount: 2
Fore
SplineSet
289.5 380 m 128,-1,1
 260 380 260 380 246.5 398 c 128,-1,2
 233 416 233 416 239.5 445 c 128,-1,3
 246 474 246 474 268 492 c 128,-1,4
 290 510 290 510 319.5 510 c 128,-1,5
 349 510 349 510 362.5 492 c 128,-1,6
 376 474 376 474 369.5 445 c 128,-1,7
 363 416 363 416 341 398 c 128,-1,0
 319 380 319 380 289.5 380 c 128,-1,1
151 -170 m 0,8,9
 53 -170 53 -170 3 -124 c 128,-1,10
 -47 -78 -47 -78 -29 0 c 0,11,12
 -10 83 -10 83 53 129.5 c 128,-1,13
 116 176 116 176 202 185 c 1,14,-1
 226 292 l 1,15,-1
 309 292 l 1,16,-1
 275 142 l 1,17,18
 171 127 171 127 120.5 97 c 128,-1,19
 70 67 70 67 57 10 c 0,20,21
 46 -39 46 -39 75.5 -67 c 128,-1,22
 105 -95 105 -95 174 -95 c 0,23,24
 240 -95 240 -95 290 -58.5 c 128,-1,25
 340 -22 340 -22 362 41 c 1,26,-1
 424 0 l 1,27,28
 389 -78 389 -78 316.5 -124 c 128,-1,29
 244 -170 244 -170 151 -170 c 0,8,9
EndSplineSet
Substitution2: "'case' Case-Sensitive Forms lookup 29 subtable" questiondown.case
Substitution2: "'smcp' Lowercase to Small Capitals lookup 12 subtable" questiondown.sc
Substitution2: "'c2sc' Capitals to Small Capitals lookup 11 subtable" questiondown.sc
AlternateSubs2: "'aalt' Access All Alternates lookup 1 subtable" questiondown.sc questiondown.case
EndChar

StartChar: Agrave
Encoding: 192 192 130
Width: 660
GlyphClass: 2
Flags: W
LayerCount: 2
Fore
SplineSet
459 743 m 1,0,-1
 394 743 l 1,1,-1
 342 891 l 1,2,-1
 436 891 l 1,3,-1
 459 743 l 1,0,-1
473 0 m 1,4,-1
 445 183 l 1,5,-1
 146 183 l 1,6,-1
 34 0 l 1,7,-1
 -50 0 l 1,8,-1
 359 660 l 1,9,-1
 454 660 l 1,10,-1
 558 0 l 1,11,-1
 473 0 l 1,4,-1
193 258 m 1,12,-1
 434 258 l 1,13,-1
 399 492 l 1,14,-1
 389 584 l 1,15,-1
 387 584 l 1,16,-1
 337 495 l 1,17,-1
 193 258 l 1,12,-1
EndSplineSet
Substitution2: "Single Substitution lookup 56 subtable" Agrave.swsh
Substitution2: "'swsh' Swash lookup 32 subtable" Agrave.swsh
Substitution2: "'c2sc' Capitals to Small Capitals lookup 11 subtable" agrave.sc
AlternateSubs2: "'aalt' Access All Alternates lookup 1 subtable" agrave.sc Agrave.swsh
EndChar

StartChar: Aacute
Encoding: 193 193 131
Width: 660
GlyphClass: 2
Flags: W
LayerCount: 2
Fore
SplineSet
569 891 m 1,0,-1
 449 743 l 1,1,-1
 384 743 l 1,2,-1
 475 891 l 1,3,-1
 569 891 l 1,0,-1
473 0 m 1,4,-1
 445 183 l 1,5,-1
 146 183 l 1,6,-1
 34 0 l 1,7,-1
 -50 0 l 1,8,-1
 359 660 l 1,9,-1
 454 660 l 1,10,-1
 558 0 l 1,11,-1
 473 0 l 1,4,-1
193 258 m 1,12,-1
 434 258 l 1,13,-1
 399 492 l 1,14,-1
 389 584 l 1,15,-1
 387 584 l 1,16,-1
 337 495 l 1,17,-1
 193 258 l 1,12,-1
EndSplineSet
Substitution2: "Single Substitution lookup 56 subtable" Aacute.swsh
Substitution2: "'swsh' Swash lookup 32 subtable" Aacute.swsh
Substitution2: "'c2sc' Capitals to Small Capitals lookup 11 subtable" aacute.sc
AlternateSubs2: "'aalt' Access All Alternates lookup 1 subtable" aacute.sc Aacute.swsh
EndChar

StartChar: Acircumflex
Encoding: 194 194 132
Width: 660
GlyphClass: 2
Flags: W
LayerCount: 2
Fore
SplineSet
450 851 m 1,0,-1
 338 736 l 1,1,-1
 265 736 l 1,2,-1
 417 903 l 1,3,-1
 507 903 l 1,4,-1
 583 736 l 1,5,-1
 510 736 l 1,6,-1
 450 851 l 1,0,-1
473 0 m 1,7,-1
 445 183 l 1,8,-1
 146 183 l 1,9,-1
 34 0 l 1,10,-1
 -50 0 l 1,11,-1
 359 660 l 1,12,-1
 454 660 l 1,13,-1
 558 0 l 1,14,-1
 473 0 l 1,7,-1
193 258 m 1,15,-1
 434 258 l 1,16,-1
 399 492 l 1,17,-1
 389 584 l 1,18,-1
 387 584 l 1,19,-1
 337 495 l 1,20,-1
 193 258 l 1,15,-1
EndSplineSet
Substitution2: "Single Substitution lookup 56 subtable" Acircumflex.swsh
Substitution2: "'swsh' Swash lookup 32 subtable" Acircumflex.swsh
Substitution2: "'c2sc' Capitals to Small Capitals lookup 11 subtable" acircumflex.sc
AlternateSubs2: "'aalt' Access All Alternates lookup 1 subtable" acircumflex.sc Acircumflex.swsh
EndChar

StartChar: Atilde
Encoding: 195 195 133
Width: 660
GlyphClass: 2
Flags: W
LayerCount: 2
Fore
SplineSet
371 811 m 0,0,1
 350 811 350 811 335 794 c 128,-1,2
 320 777 320 777 306 742 c 1,3,-1
 243 742 l 1,4,5
 285 876 285 876 387 876 c 0,6,7
 412 876 412 876 431 865.5 c 128,-1,8
 450 855 450 855 459.5 842 c 128,-1,9
 469 829 469 829 482 818.5 c 128,-1,10
 495 808 495 808 508 808 c 0,11,12
 529 808 529 808 544.5 825.5 c 128,-1,13
 560 843 560 843 573 877 c 1,14,-1
 636 877 l 1,15,16
 595 743 595 743 494 743 c 0,17,18
 468 743 468 743 449 753.5 c 128,-1,19
 430 764 430 764 420.5 777 c 128,-1,20
 411 790 411 790 398 800.5 c 128,-1,21
 385 811 385 811 371 811 c 0,0,1
473 0 m 1,22,-1
 445 183 l 1,23,-1
 146 183 l 1,24,-1
 34 0 l 1,25,-1
 -50 0 l 1,26,-1
 359 660 l 1,27,-1
 454 660 l 1,28,-1
 558 0 l 1,29,-1
 473 0 l 1,22,-1
193 258 m 1,30,-1
 434 258 l 1,31,-1
 399 492 l 1,32,-1
 389 584 l 1,33,-1
 387 584 l 1,34,-1
 337 495 l 1,35,-1
 193 258 l 1,30,-1
EndSplineSet
Substitution2: "Single Substitution lookup 56 subtable" Atilde.swsh
Substitution2: "'swsh' Swash lookup 32 subtable" Atilde.swsh
Substitution2: "'c2sc' Capitals to Small Capitals lookup 11 subtable" atilde.sc
AlternateSubs2: "'aalt' Access All Alternates lookup 1 subtable" atilde.sc Atilde.swsh
EndChar

StartChar: Adieresis
Encoding: 196 196 134
Width: 660
GlyphClass: 2
Flags: W
LayerCount: 2
Fore
SplineSet
328.5 742 m 128,-1,1
 303 742 303 742 291 757.5 c 128,-1,2
 279 773 279 773 284.5 799 c 128,-1,3
 290 825 290 825 309.5 840.5 c 128,-1,4
 329 856 329 856 354.5 856 c 128,-1,5
 380 856 380 856 392 840 c 128,-1,6
 404 824 404 824 398.5 799 c 128,-1,7
 393 774 393 774 373.5 758 c 128,-1,0
 354 742 354 742 328.5 742 c 128,-1,1
522.5 742 m 128,-1,9
 497 742 497 742 485 757.5 c 128,-1,10
 473 773 473 773 478.5 799 c 128,-1,11
 484 825 484 825 503.5 840.5 c 128,-1,12
 523 856 523 856 548.5 856 c 128,-1,13
 574 856 574 856 586 840 c 128,-1,14
 598 824 598 824 592.5 799 c 128,-1,15
 587 774 587 774 567.5 758 c 128,-1,8
 548 742 548 742 522.5 742 c 128,-1,9
473 0 m 1,16,-1
 445 183 l 1,17,-1
 146 183 l 1,18,-1
 34 0 l 1,19,-1
 -50 0 l 1,20,-1
 359 660 l 1,21,-1
 454 660 l 1,22,-1
 558 0 l 1,23,-1
 473 0 l 1,16,-1
193 258 m 1,24,-1
 434 258 l 1,25,-1
 399 492 l 1,26,-1
 389 584 l 1,27,-1
 387 584 l 1,28,-1
 337 495 l 1,29,-1
 193 258 l 1,24,-1
EndSplineSet
Substitution2: "Single Substitution lookup 56 subtable" Adieresis.swsh
Substitution2: "'titl' Titling lookup 41 subtable" Adieresis.titl
Substitution2: "'swsh' Swash lookup 32 subtable" Adieresis.swsh
Substitution2: "'c2sc' Capitals to Small Capitals lookup 11 subtable" adieresis.sc
AlternateSubs2: "'aalt' Access All Alternates lookup 1 subtable" adieresis.sc Adieresis.swsh Adieresis.titl
EndChar

StartChar: Aring
Encoding: 197 197 135
Width: 660
GlyphClass: 2
Flags: W
LayerCount: 2
Fore
SplineSet
473 0 m 1,0,-1
 445 183 l 1,1,-1
 146 183 l 1,2,-1
 34 0 l 1,3,-1
 -50 0 l 1,4,-1
 339 627 l 1,5,6
 312 641 312 641 301 669 c 128,-1,7
 290 697 290 697 298 734 c 0,8,9
 311 787 311 787 353 819.5 c 128,-1,10
 395 852 395 852 451.5 852 c 128,-1,11
 508 852 508 852 535 819.5 c 128,-1,12
 562 787 562 787 549 734 c 0,13,14
 541 697 541 697 517.5 669 c 128,-1,15
 494 641 494 641 460 627 c 1,16,-1
 558 0 l 1,17,-1
 473 0 l 1,0,-1
439.5 803 m 128,-1,19
 409 803 409 803 384 783.5 c 128,-1,20
 359 764 359 764 352.5 734 c 128,-1,21
 346 704 346 704 361.5 684.5 c 128,-1,22
 377 665 377 665 407.5 665 c 128,-1,23
 438 665 438 665 463 684.5 c 128,-1,24
 488 704 488 704 494.5 734 c 128,-1,25
 501 764 501 764 485.5 783.5 c 128,-1,18
 470 803 470 803 439.5 803 c 128,-1,19
193 258 m 1,26,-1
 434 258 l 1,27,-1
 399 492 l 1,28,-1
 389 584 l 1,29,-1
 387 584 l 1,30,-1
 337 495 l 1,31,-1
 193 258 l 1,26,-1
EndSplineSet
Substitution2: "'c2sc' Capitals to Small Capitals lookup 11 subtable" aring.sc
Substitution2: "'aalt' Access All Alternates lookup 0 subtable" aring.sc
EndChar

StartChar: AE
Encoding: 198 198 136
Width: 954
GlyphClass: 2
Flags: W
LayerCount: 2
Fore
SplineSet
472 75 m 1,0,-1
 843 75 l 1,1,-1
 826 0 l 1,2,-1
 375 0 l 1,3,-1
 424 213 l 1,4,-1
 188 213 l 1,5,-1
 16 0 l 1,6,-1
 -70 0 l 1,7,-1
 468 660 l 1,8,-1
 963 660 l 1,9,-1
 946 585 l 1,10,-1
 590 585 l 1,11,-1
 541 372 l 1,12,-1
 812 372 l 1,13,-1
 795 297 l 1,14,-1
 524 297 l 1,15,-1
 472 75 l 1,0,-1
249 288 m 1,16,-1
 441 288 l 1,17,-1
 510 585 l 1,18,-1
 490 585 l 1,19,-1
 249 288 l 1,16,-1
EndSplineSet
Substitution2: "'c2sc' Capitals to Small Capitals lookup 11 subtable" ae.sc
Substitution2: "'aalt' Access All Alternates lookup 0 subtable" ae.sc
EndChar

StartChar: Ccedilla
Encoding: 199 199 137
Width: 686
GlyphClass: 2
Flags: W
LayerCount: 2
Fore
SplineSet
603 169 m 1,0,1
 574 121 574 121 534.5 84.5 c 128,-1,2
 495 48 495 48 449 25.5 c 128,-1,3
 403 3 403 3 352 -5 c 1,4,5
 398 -49 398 -49 384 -108 c 0,6,7
 374 -152 374 -152 335.5 -183.5 c 128,-1,8
 297 -215 297 -215 243 -215 c 0,9,10
 173 -215 173 -215 141 -180 c 1,11,-1
 184 -125 l 1,12,13
 205 -155 205 -155 246 -155 c 0,14,15
 271 -155 271 -155 291 -139 c 128,-1,16
 311 -123 311 -123 317 -97 c 0,17,18
 323 -68 323 -68 312 -48.5 c 128,-1,19
 301 -29 301 -29 263 -9 c 1,20,21
 139 2 139 2 86.5 92.5 c 128,-1,22
 34 183 34 183 68 330 c 0,23,24
 104 486 104 486 208 578 c 128,-1,25
 312 670 312 670 451 670 c 0,26,27
 642 670 642 670 671 516 c 1,28,-1
 584 479 l 1,29,30
 566 595 566 595 439 595 c 0,31,32
 337 595 337 595 259 524.5 c 128,-1,33
 181 454 181 454 152 330 c 0,34,35
 124 206 124 206 167 135.5 c 128,-1,36
 210 65 210 65 313 65 c 0,37,38
 380 65 380 65 436.5 99 c 128,-1,39
 493 133 493 133 530 199 c 1,40,-1
 603 169 l 1,0,1
EndSplineSet
Substitution2: "'c2sc' Capitals to Small Capitals lookup 11 subtable" ccedilla.sc
Substitution2: "'aalt' Access All Alternates lookup 0 subtable" ccedilla.sc
EndChar

StartChar: Egrave
Encoding: 200 200 138
Width: 638
GlyphClass: 2
Flags: W
AnchorPoint: "Anchor-0" 263 0 basechar 0
LayerCount: 2
Fore
SplineSet
483 743 m 1,0,-1
 418 743 l 1,1,-1
 366 891 l 1,2,-1
 460 891 l 1,3,-1
 483 743 l 1,0,-1
129 75 m 1,4,-1
 527 75 l 1,5,-1
 510 0 l 1,6,-1
 32 0 l 1,7,-1
 184 660 l 1,8,-1
 647 660 l 1,9,-1
 630 585 l 1,10,-1
 247 585 l 1,11,-1
 198 372 l 1,12,-1
 496 372 l 1,13,-1
 479 297 l 1,14,-1
 181 297 l 1,15,-1
 129 75 l 1,4,-1
EndSplineSet
Substitution2: "Single Substitution lookup 57 subtable" Egrave.swsh.001
Substitution2: "Single Substitution lookup 56 subtable" Egrave.swsh
AlternateSubs2: "'swsh' Swash lookup 33 subtable" Egrave.swsh Egrave.swsh.001
Substitution2: "'c2sc' Capitals to Small Capitals lookup 11 subtable" egrave.sc
AlternateSubs2: "'aalt' Access All Alternates lookup 1 subtable" egrave.sc Egrave.swsh Egrave.swsh.001
EndChar

StartChar: Eacute
Encoding: 201 201 139
Width: 638
GlyphClass: 2
Flags: W
AnchorPoint: "Anchor-0" 263 0 basechar 0
LayerCount: 2
Fore
SplineSet
578 891 m 1,0,-1
 458 743 l 1,1,-1
 393 743 l 1,2,-1
 484 891 l 1,3,-1
 578 891 l 1,0,-1
129 75 m 1,4,-1
 527 75 l 1,5,-1
 510 0 l 1,6,-1
 32 0 l 1,7,-1
 184 660 l 1,8,-1
 647 660 l 1,9,-1
 630 585 l 1,10,-1
 247 585 l 1,11,-1
 198 372 l 1,12,-1
 496 372 l 1,13,-1
 479 297 l 1,14,-1
 181 297 l 1,15,-1
 129 75 l 1,4,-1
EndSplineSet
Substitution2: "Single Substitution lookup 57 subtable" Eacute.swsh.001
Substitution2: "Single Substitution lookup 56 subtable" Eacute.swsh
AlternateSubs2: "'swsh' Swash lookup 33 subtable" Eacute.swsh Eacute.swsh.001
Substitution2: "'c2sc' Capitals to Small Capitals lookup 11 subtable" eacute.sc
AlternateSubs2: "'aalt' Access All Alternates lookup 1 subtable" eacute.sc Eacute.swsh Eacute.swsh.001
EndChar

StartChar: Ecircumflex
Encoding: 202 202 140
Width: 638
GlyphClass: 2
Flags: W
AnchorPoint: "Anchor-0" 263 0 basechar 0
LayerCount: 2
Fore
SplineSet
459 851 m 1,0,-1
 347 736 l 1,1,-1
 274 736 l 1,2,-1
 426 903 l 1,3,-1
 516 903 l 1,4,-1
 592 736 l 1,5,-1
 519 736 l 1,6,-1
 459 851 l 1,0,-1
129 75 m 1,7,-1
 527 75 l 1,8,-1
 510 0 l 1,9,-1
 32 0 l 1,10,-1
 184 660 l 1,11,-1
 647 660 l 1,12,-1
 630 585 l 1,13,-1
 247 585 l 1,14,-1
 198 372 l 1,15,-1
 496 372 l 1,16,-1
 479 297 l 1,17,-1
 181 297 l 1,18,-1
 129 75 l 1,7,-1
EndSplineSet
Substitution2: "Single Substitution lookup 57 subtable" Ecircumflex.swsh.001
Substitution2: "Single Substitution lookup 56 subtable" Ecircumflex.swsh
AlternateSubs2: "'swsh' Swash lookup 33 subtable" Ecircumflex.swsh Ecircumflex.swsh.001
Substitution2: "'c2sc' Capitals to Small Capitals lookup 11 subtable" ecircumflex.sc
AlternateSubs2: "'aalt' Access All Alternates lookup 1 subtable" ecircumflex.sc Ecircumflex.swsh Ecircumflex.swsh.001
EndChar

StartChar: Edieresis
Encoding: 203 203 141
Width: 638
GlyphClass: 2
Flags: W
AnchorPoint: "Anchor-0" 263 0 basechar 0
LayerCount: 2
Fore
SplineSet
337.5 742 m 128,-1,1
 312 742 312 742 300 757.5 c 128,-1,2
 288 773 288 773 293.5 799 c 128,-1,3
 299 825 299 825 318.5 840.5 c 128,-1,4
 338 856 338 856 363.5 856 c 128,-1,5
 389 856 389 856 401 840 c 128,-1,6
 413 824 413 824 407.5 799 c 128,-1,7
 402 774 402 774 382.5 758 c 128,-1,0
 363 742 363 742 337.5 742 c 128,-1,1
531.5 742 m 128,-1,9
 506 742 506 742 494 757.5 c 128,-1,10
 482 773 482 773 487.5 799 c 128,-1,11
 493 825 493 825 512.5 840.5 c 128,-1,12
 532 856 532 856 557.5 856 c 128,-1,13
 583 856 583 856 595 840 c 128,-1,14
 607 824 607 824 601.5 799 c 128,-1,15
 596 774 596 774 576.5 758 c 128,-1,8
 557 742 557 742 531.5 742 c 128,-1,9
129 75 m 1,16,-1
 527 75 l 1,17,-1
 510 0 l 1,18,-1
 32 0 l 1,19,-1
 184 660 l 1,20,-1
 647 660 l 1,21,-1
 630 585 l 1,22,-1
 247 585 l 1,23,-1
 198 372 l 1,24,-1
 496 372 l 1,25,-1
 479 297 l 1,26,-1
 181 297 l 1,27,-1
 129 75 l 1,16,-1
EndSplineSet
Substitution2: "Single Substitution lookup 57 subtable" Edieresis.swsh.001
Substitution2: "Single Substitution lookup 56 subtable" Edieresis.swsh
AlternateSubs2: "'swsh' Swash lookup 33 subtable" Edieresis.swsh Edieresis.swsh.001
Substitution2: "'c2sc' Capitals to Small Capitals lookup 11 subtable" edieresis.sc
AlternateSubs2: "'aalt' Access All Alternates lookup 1 subtable" edieresis.sc Edieresis.swsh Edieresis.swsh.001
EndChar

StartChar: Igrave
Encoding: 204 204 142
Width: 296
GlyphClass: 2
Flags: W
LayerCount: 2
Fore
SplineSet
254 891 m 1,0,-1
 277 743 l 1,1,-1
 212 743 l 1,2,-1
 160 891 l 1,3,-1
 254 891 l 1,0,-1
264 660 m 1,4,-1
 112 0 l 1,5,-1
 32 0 l 1,6,-1
 184 660 l 1,7,-1
 264 660 l 1,4,-1
EndSplineSet
Substitution2: "'c2sc' Capitals to Small Capitals lookup 11 subtable" igrave.sc
Substitution2: "'aalt' Access All Alternates lookup 0 subtable" igrave.sc
EndChar

StartChar: Iacute
Encoding: 205 205 143
Width: 296
GlyphClass: 2
Flags: W
LayerCount: 2
Fore
SplineSet
293 891 m 1,0,-1
 387 891 l 1,1,-1
 267 743 l 1,2,-1
 202 743 l 1,3,-1
 293 891 l 1,0,-1
264 660 m 1,4,-1
 112 0 l 1,5,-1
 32 0 l 1,6,-1
 184 660 l 1,7,-1
 264 660 l 1,4,-1
EndSplineSet
Substitution2: "'c2sc' Capitals to Small Capitals lookup 11 subtable" iacute.sc
Substitution2: "'aalt' Access All Alternates lookup 0 subtable" iacute.sc
EndChar

StartChar: Icircumflex
Encoding: 206 206 144
Width: 296
GlyphClass: 2
Flags: W
LayerCount: 2
Fore
SplineSet
401 736 m 1,0,-1
 328 736 l 1,1,-1
 268 851 l 1,2,-1
 156 736 l 1,3,-1
 83 736 l 1,4,-1
 235 903 l 1,5,-1
 325 903 l 1,6,-1
 401 736 l 1,0,-1
264 660 m 1,7,-1
 112 0 l 1,8,-1
 32 0 l 1,9,-1
 184 660 l 1,10,-1
 264 660 l 1,7,-1
EndSplineSet
Substitution2: "'c2sc' Capitals to Small Capitals lookup 11 subtable" icircumflex.sc
Substitution2: "'aalt' Access All Alternates lookup 0 subtable" icircumflex.sc
EndChar

StartChar: Idieresis
Encoding: 207 207 145
Width: 296
GlyphClass: 2
Flags: W
LayerCount: 2
Fore
SplineSet
183.5 856 m 128,-1,1
 209 856 209 856 221 840 c 128,-1,2
 233 824 233 824 227.5 799 c 128,-1,3
 222 774 222 774 202.5 758 c 128,-1,4
 183 742 183 742 157.5 742 c 128,-1,5
 132 742 132 742 120 757.5 c 128,-1,6
 108 773 108 773 113.5 799 c 128,-1,7
 119 825 119 825 138.5 840.5 c 128,-1,0
 158 856 158 856 183.5 856 c 128,-1,1
355.5 856 m 128,-1,9
 381 856 381 856 393 840 c 128,-1,10
 405 824 405 824 399.5 799 c 128,-1,11
 394 774 394 774 374.5 758 c 128,-1,12
 355 742 355 742 329.5 742 c 128,-1,13
 304 742 304 742 292 757.5 c 128,-1,14
 280 773 280 773 285.5 799 c 128,-1,15
 291 825 291 825 310.5 840.5 c 128,-1,8
 330 856 330 856 355.5 856 c 128,-1,9
264 660 m 1,16,-1
 112 0 l 1,17,-1
 32 0 l 1,18,-1
 184 660 l 1,19,-1
 264 660 l 1,16,-1
EndSplineSet
Substitution2: "'c2sc' Capitals to Small Capitals lookup 11 subtable" idieresis.sc
Substitution2: "'aalt' Access All Alternates lookup 0 subtable" idieresis.sc
EndChar

StartChar: Eth
Encoding: 208 208 146
Width: 737
GlyphClass: 2
Flags: W
LayerCount: 2
Fore
SplineSet
413 660 m 2,0,1
 570 660 570 660 638 574 c 128,-1,2
 706 488 706 488 669.5 330 c 128,-1,3
 633 172 633 172 525 86 c 128,-1,4
 417 0 417 0 261 0 c 2,5,-1
 48 0 l 1,6,-1
 118 303 l 1,7,-1
 20 303 l 1,8,-1
 34 363 l 1,9,-1
 132 363 l 1,10,-1
 200 660 l 1,11,-1
 413 660 l 2,0,1
286 75 m 2,12,13
 399 75 399 75 478 142.5 c 128,-1,14
 557 210 557 210 585 330 c 128,-1,15
 613 450 613 450 565 517.5 c 128,-1,16
 517 585 517 585 404 585 c 2,17,-1
 263 585 l 1,18,-1
 212 363 l 1,19,-1
 409 363 l 1,20,-1
 395 303 l 1,21,-1
 198 303 l 1,22,-1
 145 75 l 1,23,-1
 286 75 l 2,12,13
EndSplineSet
Substitution2: "'c2sc' Capitals to Small Capitals lookup 11 subtable" eth.sc
Substitution2: "'aalt' Access All Alternates lookup 0 subtable" eth.sc
EndChar

StartChar: Ntilde
Encoding: 209 209 147
Width: 734
GlyphClass: 2
Flags: W
AnchorPoint: "Anchor-0" 321 0 basechar 0
LayerCount: 2
Fore
SplineSet
677 877 m 1,0,1
 636 743 636 743 535 743 c 0,2,3
 509 743 509 743 490 753.5 c 128,-1,4
 471 764 471 764 461.5 777 c 128,-1,5
 452 790 452 790 439 800.5 c 128,-1,6
 426 811 426 811 412 811 c 0,7,8
 391 811 391 811 376 794 c 128,-1,9
 361 777 361 777 347 742 c 1,10,-1
 284 742 l 1,11,12
 326 876 326 876 428 876 c 0,13,14
 453 876 453 876 472 865.5 c 128,-1,15
 491 855 491 855 500.5 842 c 128,-1,16
 510 829 510 829 523 818.5 c 128,-1,17
 536 808 536 808 549 808 c 0,18,19
 570 808 570 808 585.5 825.5 c 128,-1,20
 601 843 601 843 614 877 c 1,21,-1
 677 877 l 1,0,1
702 660 m 1,22,-1
 550 0 l 1,23,-1
 451 0 l 1,24,-1
 277 442 l 1,25,-1
 237 572 l 1,26,-1
 236 572 l 1,27,-1
 216 466 l 1,28,-1
 108 0 l 1,29,-1
 32 0 l 1,30,-1
 184 660 l 1,31,-1
 283 660 l 1,32,-1
 457 220 l 1,33,-1
 497 88 l 1,34,-1
 498 88 l 1,35,-1
 519 194 l 1,36,-1
 626 660 l 1,37,-1
 702 660 l 1,22,-1
EndSplineSet
Substitution2: "Single Substitution lookup 57 subtable" Ntilde.swsh
Substitution2: "'swsh' Swash lookup 36 subtable" Ntilde.swsh
Substitution2: "'c2sc' Capitals to Small Capitals lookup 11 subtable" ntilde.sc
AlternateSubs2: "'aalt' Access All Alternates lookup 1 subtable" ntilde.sc Ntilde.swsh
EndChar

StartChar: Ograve
Encoding: 210 210 148
Width: 748
GlyphClass: 2
Flags: W
LayerCount: 2
Fore
SplineSet
480 891 m 1,0,-1
 503 743 l 1,1,-1
 438 743 l 1,2,-1
 386 891 l 1,3,-1
 480 891 l 1,0,-1
453 670 m 128,-1,5
 594 670 594 670 655 578.5 c 128,-1,6
 716 487 716 487 680 330 c 128,-1,7
 644 173 644 173 540.5 81.5 c 128,-1,8
 437 -10 437 -10 296 -10 c 128,-1,9
 155 -10 155 -10 93.5 81.5 c 128,-1,10
 32 173 32 173 68 330 c 128,-1,11
 104 487 104 487 208 578.5 c 128,-1,4
 312 670 312 670 453 670 c 128,-1,5
435 595 m 128,-1,13
 332 595 332 595 256.5 524.5 c 128,-1,14
 181 454 181 454 152.5 330 c 128,-1,15
 124 206 124 206 167 135.5 c 128,-1,16
 210 65 210 65 313 65 c 128,-1,17
 416 65 416 65 492 135.5 c 128,-1,18
 568 206 568 206 596.5 330 c 128,-1,19
 625 454 625 454 581.5 524.5 c 128,-1,12
 538 595 538 595 435 595 c 128,-1,13
EndSplineSet
Substitution2: "'c2sc' Capitals to Small Capitals lookup 11 subtable" ograve.sc
Substitution2: "'aalt' Access All Alternates lookup 0 subtable" ograve.sc
EndChar

StartChar: Oacute
Encoding: 211 211 149
Width: 748
GlyphClass: 2
Flags: W
LayerCount: 2
Fore
SplineSet
519 891 m 1,0,-1
 613 891 l 1,1,-1
 493 743 l 1,2,-1
 428 743 l 1,3,-1
 519 891 l 1,0,-1
453 670 m 128,-1,5
 594 670 594 670 655 578.5 c 128,-1,6
 716 487 716 487 680 330 c 128,-1,7
 644 173 644 173 540.5 81.5 c 128,-1,8
 437 -10 437 -10 296 -10 c 128,-1,9
 155 -10 155 -10 93.5 81.5 c 128,-1,10
 32 173 32 173 68 330 c 128,-1,11
 104 487 104 487 208 578.5 c 128,-1,4
 312 670 312 670 453 670 c 128,-1,5
435 595 m 128,-1,13
 332 595 332 595 256.5 524.5 c 128,-1,14
 181 454 181 454 152.5 330 c 128,-1,15
 124 206 124 206 167 135.5 c 128,-1,16
 210 65 210 65 313 65 c 128,-1,17
 416 65 416 65 492 135.5 c 128,-1,18
 568 206 568 206 596.5 330 c 128,-1,19
 625 454 625 454 581.5 524.5 c 128,-1,12
 538 595 538 595 435 595 c 128,-1,13
EndSplineSet
Substitution2: "'c2sc' Capitals to Small Capitals lookup 11 subtable" oacute.sc
Substitution2: "'aalt' Access All Alternates lookup 0 subtable" oacute.sc
EndChar

StartChar: Ocircumflex
Encoding: 212 212 150
Width: 748
GlyphClass: 2
Flags: W
LayerCount: 2
Fore
SplineSet
627 736 m 1,0,-1
 554 736 l 1,1,-1
 494 851 l 1,2,-1
 382 736 l 1,3,-1
 309 736 l 1,4,-1
 461 903 l 1,5,-1
 551 903 l 1,6,-1
 627 736 l 1,0,-1
453 670 m 128,-1,8
 594 670 594 670 655 578.5 c 128,-1,9
 716 487 716 487 680 330 c 128,-1,10
 644 173 644 173 540.5 81.5 c 128,-1,11
 437 -10 437 -10 296 -10 c 128,-1,12
 155 -10 155 -10 93.5 81.5 c 128,-1,13
 32 173 32 173 68 330 c 128,-1,14
 104 487 104 487 208 578.5 c 128,-1,7
 312 670 312 670 453 670 c 128,-1,8
435 595 m 128,-1,16
 332 595 332 595 256.5 524.5 c 128,-1,17
 181 454 181 454 152.5 330 c 128,-1,18
 124 206 124 206 167 135.5 c 128,-1,19
 210 65 210 65 313 65 c 128,-1,20
 416 65 416 65 492 135.5 c 128,-1,21
 568 206 568 206 596.5 330 c 128,-1,22
 625 454 625 454 581.5 524.5 c 128,-1,15
 538 595 538 595 435 595 c 128,-1,16
EndSplineSet
Substitution2: "'c2sc' Capitals to Small Capitals lookup 11 subtable" ocircumflex.sc
Substitution2: "'aalt' Access All Alternates lookup 0 subtable" ocircumflex.sc
EndChar

StartChar: Otilde
Encoding: 213 213 151
Width: 748
GlyphClass: 2
Flags: W
LayerCount: 2
Fore
SplineSet
680 877 m 1,0,1
 639 743 639 743 538 743 c 0,2,3
 512 743 512 743 493 753.5 c 128,-1,4
 474 764 474 764 464.5 777 c 128,-1,5
 455 790 455 790 442 800.5 c 128,-1,6
 429 811 429 811 415 811 c 0,7,8
 394 811 394 811 379 794 c 128,-1,9
 364 777 364 777 350 742 c 1,10,-1
 287 742 l 1,11,12
 329 876 329 876 431 876 c 0,13,14
 456 876 456 876 475 865.5 c 128,-1,15
 494 855 494 855 503.5 842 c 128,-1,16
 513 829 513 829 526 818.5 c 128,-1,17
 539 808 539 808 552 808 c 0,18,19
 573 808 573 808 588.5 825.5 c 128,-1,20
 604 843 604 843 617 877 c 1,21,-1
 680 877 l 1,0,1
453 670 m 128,-1,23
 594 670 594 670 655 578.5 c 128,-1,24
 716 487 716 487 680 330 c 128,-1,25
 644 173 644 173 540.5 81.5 c 128,-1,26
 437 -10 437 -10 296 -10 c 128,-1,27
 155 -10 155 -10 93.5 81.5 c 128,-1,28
 32 173 32 173 68 330 c 128,-1,29
 104 487 104 487 208 578.5 c 128,-1,22
 312 670 312 670 453 670 c 128,-1,23
435 595 m 128,-1,31
 332 595 332 595 256.5 524.5 c 128,-1,32
 181 454 181 454 152.5 330 c 128,-1,33
 124 206 124 206 167 135.5 c 128,-1,34
 210 65 210 65 313 65 c 128,-1,35
 416 65 416 65 492 135.5 c 128,-1,36
 568 206 568 206 596.5 330 c 128,-1,37
 625 454 625 454 581.5 524.5 c 128,-1,30
 538 595 538 595 435 595 c 128,-1,31
EndSplineSet
Substitution2: "'c2sc' Capitals to Small Capitals lookup 11 subtable" otilde.sc
Substitution2: "'aalt' Access All Alternates lookup 0 subtable" otilde.sc
EndChar

StartChar: Odieresis
Encoding: 214 214 152
Width: 748
GlyphClass: 2
Flags: W
LayerCount: 2
Fore
SplineSet
398.5 856 m 128,-1,1
 424 856 424 856 436 840 c 128,-1,2
 448 824 448 824 442.5 799 c 128,-1,3
 437 774 437 774 417.5 758 c 128,-1,4
 398 742 398 742 372.5 742 c 128,-1,5
 347 742 347 742 335 757.5 c 128,-1,6
 323 773 323 773 328.5 799 c 128,-1,7
 334 825 334 825 353.5 840.5 c 128,-1,0
 373 856 373 856 398.5 856 c 128,-1,1
592.5 856 m 128,-1,9
 618 856 618 856 630 840 c 128,-1,10
 642 824 642 824 636.5 799 c 128,-1,11
 631 774 631 774 611.5 758 c 128,-1,12
 592 742 592 742 566.5 742 c 128,-1,13
 541 742 541 742 529 757.5 c 128,-1,14
 517 773 517 773 522.5 799 c 128,-1,15
 528 825 528 825 547.5 840.5 c 128,-1,8
 567 856 567 856 592.5 856 c 128,-1,9
453 670 m 128,-1,17
 594 670 594 670 655 578.5 c 128,-1,18
 716 487 716 487 680 330 c 128,-1,19
 644 173 644 173 540.5 81.5 c 128,-1,20
 437 -10 437 -10 296 -10 c 128,-1,21
 155 -10 155 -10 93.5 81.5 c 128,-1,22
 32 173 32 173 68 330 c 128,-1,23
 104 487 104 487 208 578.5 c 128,-1,16
 312 670 312 670 453 670 c 128,-1,17
435 595 m 128,-1,25
 332 595 332 595 256.5 524.5 c 128,-1,26
 181 454 181 454 152.5 330 c 128,-1,27
 124 206 124 206 167 135.5 c 128,-1,28
 210 65 210 65 313 65 c 128,-1,29
 416 65 416 65 492 135.5 c 128,-1,30
 568 206 568 206 596.5 330 c 128,-1,31
 625 454 625 454 581.5 524.5 c 128,-1,24
 538 595 538 595 435 595 c 128,-1,25
EndSplineSet
Substitution2: "'titl' Titling lookup 41 subtable" Odieresis.titl
Substitution2: "'c2sc' Capitals to Small Capitals lookup 11 subtable" odieresis.sc
AlternateSubs2: "'aalt' Access All Alternates lookup 1 subtable" odieresis.sc Odieresis.titl
EndChar

StartChar: multiply
Encoding: 215 215 153
Width: 604
GlyphClass: 2
Flags: W
LayerCount: 2
Fore
SplineSet
558 485 m 1,0,-1
 352 318 l 1,1,-1
 481 150 l 1,2,-1
 415 97 l 1,3,-1
 287 265 l 1,4,-1
 80 97 l 1,5,-1
 40 150 l 1,6,-1
 246 318 l 1,7,-1
 117 485 l 1,8,-1
 182 538 l 1,9,-1
 312 371 l 1,10,-1
 517 538 l 1,11,-1
 558 485 l 1,0,-1
EndSplineSet
EndChar

StartChar: Oslash
Encoding: 216 216 154
Width: 748
GlyphClass: 2
Flags: W
LayerCount: 2
Fore
SplineSet
651 584 m 1,0,1
 717 491 717 491 680 330 c 0,2,3
 644 173 644 173 540.5 81.5 c 128,-1,4
 437 -10 437 -10 296 -10 c 0,5,6
 200 -10 200 -10 140 33 c 1,7,-1
 74 -37 l 1,8,-1
 3 -37 l 1,9,-1
 102 70 l 1,10,11
 30 162 30 162 68 330 c 0,12,13
 104 487 104 487 208 578.5 c 128,-1,14
 312 670 312 670 453 670 c 0,15,16
 553 670 553 670 615 622 c 1,17,-1
 672 683 l 1,18,-1
 743 683 l 1,19,-1
 651 584 l 1,0,1
152 330 m 0,20,21
 124 207 124 207 165 138 c 1,22,-1
 555 557 l 1,23,24
 510 595 510 595 435 595 c 0,25,26
 332 595 332 595 256.5 524.5 c 128,-1,27
 181 454 181 454 152 330 c 0,20,21
313 65 m 0,28,29
 416 65 416 65 492 135.5 c 128,-1,30
 568 206 568 206 596 330 c 0,31,32
 623 446 623 446 587 515 c 1,33,-1
 200 98 l 1,34,35
 243 65 243 65 313 65 c 0,28,29
EndSplineSet
Substitution2: "'c2sc' Capitals to Small Capitals lookup 11 subtable" oslash.sc
Substitution2: "'aalt' Access All Alternates lookup 0 subtable" oslash.sc
EndChar

StartChar: Ugrave
Encoding: 217 217 155
Width: 720
GlyphClass: 2
Flags: W
LayerCount: 2
Fore
SplineSet
466 891 m 1,0,-1
 489 743 l 1,1,-1
 424 743 l 1,2,-1
 372 891 l 1,3,-1
 466 891 l 1,0,-1
695 660 m 1,4,-1
 600 246 l 2,5,6
 571 119 571 119 489.5 54.5 c 128,-1,7
 408 -10 408 -10 282 -10 c 256,8,9
 156 -10 156 -10 104.5 55 c 128,-1,10
 53 120 53 120 82 246 c 2,11,-1
 177 660 l 1,12,-1
 257 660 l 1,13,-1
 166 266 l 2,14,15
 143 162 143 162 175 113.5 c 128,-1,16
 207 65 207 65 299 65 c 128,-1,17
 391 65 391 65 446 113.5 c 128,-1,18
 501 162 501 162 524 266 c 2,19,-1
 615 660 l 1,20,-1
 695 660 l 1,4,-1
EndSplineSet
Substitution2: "'c2sc' Capitals to Small Capitals lookup 11 subtable" ugrave.sc
Substitution2: "'aalt' Access All Alternates lookup 0 subtable" ugrave.sc
EndChar

StartChar: Uacute
Encoding: 218 218 156
Width: 720
GlyphClass: 2
Flags: W
LayerCount: 2
Fore
SplineSet
505 891 m 1,0,-1
 599 891 l 1,1,-1
 479 743 l 1,2,-1
 414 743 l 1,3,-1
 505 891 l 1,0,-1
695 660 m 1,4,-1
 600 246 l 2,5,6
 571 119 571 119 489.5 54.5 c 128,-1,7
 408 -10 408 -10 282 -10 c 256,8,9
 156 -10 156 -10 104.5 55 c 128,-1,10
 53 120 53 120 82 246 c 2,11,-1
 177 660 l 1,12,-1
 257 660 l 1,13,-1
 166 266 l 2,14,15
 143 162 143 162 175 113.5 c 128,-1,16
 207 65 207 65 299 65 c 128,-1,17
 391 65 391 65 446 113.5 c 128,-1,18
 501 162 501 162 524 266 c 2,19,-1
 615 660 l 1,20,-1
 695 660 l 1,4,-1
EndSplineSet
Substitution2: "'c2sc' Capitals to Small Capitals lookup 11 subtable" uacute.sc
Substitution2: "'aalt' Access All Alternates lookup 0 subtable" uacute.sc
EndChar

StartChar: Ucircumflex
Encoding: 219 219 157
Width: 720
GlyphClass: 2
Flags: W
LayerCount: 2
Fore
SplineSet
613 736 m 1,0,-1
 540 736 l 1,1,-1
 480 851 l 1,2,-1
 368 736 l 1,3,-1
 295 736 l 1,4,-1
 447 903 l 1,5,-1
 537 903 l 1,6,-1
 613 736 l 1,0,-1
695 660 m 1,7,-1
 600 246 l 2,8,9
 571 119 571 119 489.5 54.5 c 128,-1,10
 408 -10 408 -10 282 -10 c 256,11,12
 156 -10 156 -10 104.5 55 c 128,-1,13
 53 120 53 120 82 246 c 2,14,-1
 177 660 l 1,15,-1
 257 660 l 1,16,-1
 166 266 l 2,17,18
 143 162 143 162 175 113.5 c 128,-1,19
 207 65 207 65 299 65 c 128,-1,20
 391 65 391 65 446 113.5 c 128,-1,21
 501 162 501 162 524 266 c 2,22,-1
 615 660 l 1,23,-1
 695 660 l 1,7,-1
EndSplineSet
Substitution2: "'c2sc' Capitals to Small Capitals lookup 11 subtable" ucircumflex.sc
Substitution2: "'aalt' Access All Alternates lookup 0 subtable" ucircumflex.sc
EndChar

StartChar: Udieresis
Encoding: 220 220 158
Width: 720
GlyphClass: 2
Flags: W
LayerCount: 2
Fore
SplineSet
384.5 856 m 128,-1,1
 410 856 410 856 422 840 c 128,-1,2
 434 824 434 824 428.5 799 c 128,-1,3
 423 774 423 774 403.5 758 c 128,-1,4
 384 742 384 742 358.5 742 c 128,-1,5
 333 742 333 742 321 757.5 c 128,-1,6
 309 773 309 773 314.5 799 c 128,-1,7
 320 825 320 825 339.5 840.5 c 128,-1,0
 359 856 359 856 384.5 856 c 128,-1,1
578.5 856 m 128,-1,9
 604 856 604 856 616 840 c 128,-1,10
 628 824 628 824 622.5 799 c 128,-1,11
 617 774 617 774 597.5 758 c 128,-1,12
 578 742 578 742 552.5 742 c 128,-1,13
 527 742 527 742 515 757.5 c 128,-1,14
 503 773 503 773 508.5 799 c 128,-1,15
 514 825 514 825 533.5 840.5 c 128,-1,8
 553 856 553 856 578.5 856 c 128,-1,9
695 660 m 1,16,-1
 600 246 l 2,17,18
 571 119 571 119 489.5 54.5 c 128,-1,19
 408 -10 408 -10 282 -10 c 256,20,21
 156 -10 156 -10 104.5 55 c 128,-1,22
 53 120 53 120 82 246 c 2,23,-1
 177 660 l 1,24,-1
 257 660 l 1,25,-1
 166 266 l 2,26,27
 143 162 143 162 175 113.5 c 128,-1,28
 207 65 207 65 299 65 c 128,-1,29
 391 65 391 65 446 113.5 c 128,-1,30
 501 162 501 162 524 266 c 2,31,-1
 615 660 l 1,32,-1
 695 660 l 1,16,-1
EndSplineSet
Substitution2: "'titl' Titling lookup 41 subtable" Udieresis.titl
Substitution2: "'c2sc' Capitals to Small Capitals lookup 11 subtable" udieresis.sc
AlternateSubs2: "'aalt' Access All Alternates lookup 1 subtable" udieresis.sc Udieresis.titl
EndChar

StartChar: Yacute
Encoding: 221 221 159
Width: 572
GlyphClass: 2
Flags: W
LayerCount: 2
Fore
SplineSet
431 891 m 1,0,-1
 525 891 l 1,1,-1
 405 743 l 1,2,-1
 340 743 l 1,3,-1
 431 891 l 1,0,-1
638 660 m 1,4,-1
 310 258 l 1,5,-1
 250 0 l 1,6,-1
 170 0 l 1,7,-1
 230 258 l 1,8,-1
 86 660 l 1,9,-1
 181 660 l 1,10,-1
 288 340 l 1,11,-1
 543 660 l 1,12,-1
 638 660 l 1,4,-1
EndSplineSet
Substitution2: "'c2sc' Capitals to Small Capitals lookup 11 subtable" yacute.sc
Substitution2: "'aalt' Access All Alternates lookup 0 subtable" yacute.sc
EndChar

StartChar: Thorn
Encoding: 222 222 160
Width: 627
GlyphClass: 2
Flags: W
LayerCount: 2
Fore
SplineSet
376 542 m 2,0,1
 498 542 498 542 548 489.5 c 128,-1,2
 598 437 598 437 575 337 c 0,3,4
 552 238 552 238 477.5 185 c 128,-1,5
 403 132 403 132 281 132 c 2,6,-1
 142 132 l 1,7,-1
 112 0 l 1,8,-1
 32 0 l 1,9,-1
 184 660 l 1,10,-1
 264 660 l 1,11,-1
 237 542 l 1,12,-1
 376 542 l 2,0,1
307 207 m 2,13,14
 461 207 461 207 491 337 c 0,15,16
 506 403 506 403 475.5 435 c 128,-1,17
 445 467 445 467 367 467 c 2,18,-1
 220 467 l 1,19,-1
 160 207 l 1,20,-1
 307 207 l 2,13,14
EndSplineSet
Substitution2: "'c2sc' Capitals to Small Capitals lookup 11 subtable" thorn.sc
Substitution2: "'aalt' Access All Alternates lookup 0 subtable" thorn.sc
EndChar

StartChar: germandbls
Encoding: 223 223 161
Width: 620
GlyphClass: 2
Flags: W
LayerCount: 2
Fore
SplineSet
387 391 m 1,0,1
 427 391 427 391 457 379.5 c 128,-1,2
 487 368 487 368 503 348.5 c 128,-1,3
 519 329 519 329 528 304 c 128,-1,4
 537 279 537 279 535.5 251.5 c 128,-1,5
 534 224 534 224 529 197 c 0,6,7
 510 111 510 111 438 50.5 c 128,-1,8
 366 -10 366 -10 261 -10 c 0,9,10
 228 -10 228 -10 201.5 -0.5 c 128,-1,11
 175 9 175 9 163 23 c 1,12,-1
 201 88 l 1,13,14
 227 63 227 63 282 63 c 0,15,16
 348 63 348 63 394 102.5 c 128,-1,17
 440 142 440 142 455 206 c 0,18,19
 471 275 471 275 434.5 311 c 128,-1,20
 398 347 398 347 313 347 c 2,21,-1
 274 347 l 1,22,-1
 291 422 l 1,23,-1
 330 422 l 2,24,25
 397 422 397 422 443 456 c 128,-1,26
 489 490 489 490 502 544 c 0,27,28
 528 660 528 660 394 660 c 0,29,30
 313 660 313 660 271 615 c 128,-1,31
 229 570 229 570 206 473 c 2,32,-1
 97 0 l 1,33,-1
 17 0 l 1,34,-1
 132 497 l 2,35,36
 158 609 158 609 226 672 c 128,-1,37
 294 735 294 735 420 735 c 0,38,39
 464 735 464 735 498 723.5 c 128,-1,40
 532 712 532 712 550 693 c 128,-1,41
 568 674 568 674 579 650 c 128,-1,42
 590 626 590 626 589.5 600 c 128,-1,43
 589 574 589 574 585 549 c 0,44,45
 579 523 579 523 563.5 496.5 c 128,-1,46
 548 470 548 470 524.5 446.5 c 128,-1,47
 501 423 501 423 465 408 c 128,-1,48
 429 393 429 393 388 393 c 1,49,-1
 387 391 l 1,0,1
EndSplineSet
Substitution2: "Single Substitution lookup 57 subtable" germandbls.calt
Substitution2: "'smcp' Lowercase to Small Capitals lookup 12 subtable" germandbls.sc
AlternateSubs2: "'aalt' Access All Alternates lookup 1 subtable" germandbls.sc germandbls.calt
EndChar

StartChar: agrave
Encoding: 224 224 162
Width: 566
GlyphClass: 2
Flags: W
LayerCount: 2
Fore
SplineSet
377 583 m 1,0,-1
 312 583 l 1,1,-1
 252 750 l 1,2,-1
 339 750 l 1,3,-1
 377 583 l 1,0,-1
440 58 m 256,4,5
 460 58 460 58 482 63 c 1,6,-1
 462 0 l 1,7,8
 432 -10 432 -10 400 -10 c 0,9,10
 361 -10 361 -10 342.5 7 c 128,-1,11
 324 24 324 24 327 64 c 1,12,13
 295 29 295 29 246.5 9.5 c 128,-1,14
 198 -10 198 -10 149 -10 c 0,15,16
 74 -10 74 -10 34.5 24.5 c 128,-1,17
 -5 59 -5 59 10 124 c 0,18,19
 23 181 23 181 82.5 222.5 c 128,-1,20
 142 264 142 264 241 280 c 2,21,-1
 379 302 l 1,22,-1
 385 330 l 2,23,24
 397 380 397 380 373 410 c 128,-1,25
 349 440 349 440 294 440 c 0,26,27
 191 440 191 440 129 345 c 1,28,-1
 80 388 l 1,29,30
 112 444 112 444 174.5 477 c 128,-1,31
 237 510 237 510 310 510 c 0,32,33
 399 510 399 510 443 467 c 128,-1,34
 487 424 487 424 467 340 c 2,35,-1
 411 94 l 2,36,37
 406 75 406 75 413 66.5 c 128,-1,38
 420 58 420 58 440 58 c 256,4,5
169 60 m 0,39,40
 231 60 231 60 284 90 c 128,-1,41
 337 120 337 120 348 168 c 2,42,-1
 364 237 l 1,43,-1
 247 216 l 2,44,45
 108 192 108 192 93 124 c 0,46,47
 85 93 85 93 105.5 76.5 c 128,-1,48
 126 60 126 60 169 60 c 0,39,40
EndSplineSet
Substitution2: "'smcp' Lowercase to Small Capitals lookup 12 subtable" agrave.sc
Substitution2: "'aalt' Access All Alternates lookup 0 subtable" agrave.sc
EndChar

StartChar: aacute
Encoding: 225 225 163
Width: 566
GlyphClass: 2
Flags: W
LayerCount: 2
Fore
SplineSet
487 750 m 1,0,-1
 351 583 l 1,1,-1
 286 583 l 1,2,-1
 400 750 l 1,3,-1
 487 750 l 1,0,-1
440 58 m 256,4,5
 460 58 460 58 482 63 c 1,6,-1
 462 0 l 1,7,8
 432 -10 432 -10 400 -10 c 0,9,10
 361 -10 361 -10 342.5 7 c 128,-1,11
 324 24 324 24 327 64 c 1,12,13
 295 29 295 29 246.5 9.5 c 128,-1,14
 198 -10 198 -10 149 -10 c 0,15,16
 74 -10 74 -10 34.5 24.5 c 128,-1,17
 -5 59 -5 59 10 124 c 0,18,19
 23 181 23 181 82.5 222.5 c 128,-1,20
 142 264 142 264 241 280 c 2,21,-1
 379 302 l 1,22,-1
 385 330 l 2,23,24
 397 380 397 380 373 410 c 128,-1,25
 349 440 349 440 294 440 c 0,26,27
 191 440 191 440 129 345 c 1,28,-1
 80 388 l 1,29,30
 112 444 112 444 174.5 477 c 128,-1,31
 237 510 237 510 310 510 c 0,32,33
 399 510 399 510 443 467 c 128,-1,34
 487 424 487 424 467 340 c 2,35,-1
 411 94 l 2,36,37
 406 75 406 75 413 66.5 c 128,-1,38
 420 58 420 58 440 58 c 256,4,5
169 60 m 0,39,40
 231 60 231 60 284 90 c 128,-1,41
 337 120 337 120 348 168 c 2,42,-1
 364 237 l 1,43,-1
 247 216 l 2,44,45
 108 192 108 192 93 124 c 0,46,47
 85 93 85 93 105.5 76.5 c 128,-1,48
 126 60 126 60 169 60 c 0,39,40
EndSplineSet
Substitution2: "'smcp' Lowercase to Small Capitals lookup 12 subtable" aacute.sc
Substitution2: "'aalt' Access All Alternates lookup 0 subtable" aacute.sc
EndChar

StartChar: acircumflex
Encoding: 226 226 164
Width: 566
GlyphClass: 2
Flags: W
LayerCount: 2
Fore
SplineSet
359 687 m 1,0,-1
 248 576 l 1,1,-1
 175 576 l 1,2,-1
 326 743 l 1,3,-1
 418 743 l 1,4,-1
 491 576 l 1,5,-1
 418 576 l 1,6,-1
 359 687 l 1,0,-1
440 58 m 256,7,8
 460 58 460 58 482 63 c 1,9,-1
 462 0 l 1,10,11
 432 -10 432 -10 400 -10 c 0,12,13
 361 -10 361 -10 342.5 7 c 128,-1,14
 324 24 324 24 327 64 c 1,15,16
 295 29 295 29 246.5 9.5 c 128,-1,17
 198 -10 198 -10 149 -10 c 0,18,19
 74 -10 74 -10 34.5 24.5 c 128,-1,20
 -5 59 -5 59 10 124 c 0,21,22
 23 181 23 181 82.5 222.5 c 128,-1,23
 142 264 142 264 241 280 c 2,24,-1
 379 302 l 1,25,-1
 385 330 l 2,26,27
 397 380 397 380 373 410 c 128,-1,28
 349 440 349 440 294 440 c 0,29,30
 191 440 191 440 129 345 c 1,31,-1
 80 388 l 1,32,33
 112 444 112 444 174.5 477 c 128,-1,34
 237 510 237 510 310 510 c 0,35,36
 399 510 399 510 443 467 c 128,-1,37
 487 424 487 424 467 340 c 2,38,-1
 411 94 l 2,39,40
 406 75 406 75 413 66.5 c 128,-1,41
 420 58 420 58 440 58 c 256,7,8
169 60 m 0,42,43
 231 60 231 60 284 90 c 128,-1,44
 337 120 337 120 348 168 c 2,45,-1
 364 237 l 1,46,-1
 247 216 l 2,47,48
 108 192 108 192 93 124 c 0,49,50
 85 93 85 93 105.5 76.5 c 128,-1,51
 126 60 126 60 169 60 c 0,42,43
EndSplineSet
Substitution2: "'smcp' Lowercase to Small Capitals lookup 12 subtable" acircumflex.sc
Substitution2: "'aalt' Access All Alternates lookup 0 subtable" acircumflex.sc
EndChar

StartChar: atilde
Encoding: 227 227 165
Width: 566
GlyphClass: 2
Flags: W
LayerCount: 2
Fore
SplineSet
280 651 m 0,0,1
 259 651 259 651 244 634 c 128,-1,2
 229 617 229 617 215 582 c 1,3,-1
 152 582 l 1,4,5
 194 716 194 716 296 716 c 0,6,7
 321 716 321 716 340 705.5 c 128,-1,8
 359 695 359 695 369 682 c 128,-1,9
 379 669 379 669 391.5 658.5 c 128,-1,10
 404 648 404 648 417 648 c 0,11,12
 438 648 438 648 453.5 665.5 c 128,-1,13
 469 683 469 683 483 717 c 1,14,-1
 546 717 l 1,15,16
 504 583 504 583 403 583 c 0,17,18
 377 583 377 583 358 593.5 c 128,-1,19
 339 604 339 604 329.5 617 c 128,-1,20
 320 630 320 630 307 640.5 c 128,-1,21
 294 651 294 651 280 651 c 0,0,1
440 58 m 256,22,23
 460 58 460 58 482 63 c 1,24,-1
 462 0 l 1,25,26
 432 -10 432 -10 400 -10 c 0,27,28
 361 -10 361 -10 342.5 7 c 128,-1,29
 324 24 324 24 327 64 c 1,30,31
 295 29 295 29 246.5 9.5 c 128,-1,32
 198 -10 198 -10 149 -10 c 0,33,34
 74 -10 74 -10 34.5 24.5 c 128,-1,35
 -5 59 -5 59 10 124 c 0,36,37
 23 181 23 181 82.5 222.5 c 128,-1,38
 142 264 142 264 241 280 c 2,39,-1
 379 302 l 1,40,-1
 385 330 l 2,41,42
 397 380 397 380 373 410 c 128,-1,43
 349 440 349 440 294 440 c 0,44,45
 191 440 191 440 129 345 c 1,46,-1
 80 388 l 1,47,48
 112 444 112 444 174.5 477 c 128,-1,49
 237 510 237 510 310 510 c 0,50,51
 399 510 399 510 443 467 c 128,-1,52
 487 424 487 424 467 340 c 2,53,-1
 411 94 l 2,54,55
 406 75 406 75 413 66.5 c 128,-1,56
 420 58 420 58 440 58 c 256,22,23
169 60 m 0,57,58
 231 60 231 60 284 90 c 128,-1,59
 337 120 337 120 348 168 c 2,60,-1
 364 237 l 1,61,-1
 247 216 l 2,62,63
 108 192 108 192 93 124 c 0,64,65
 85 93 85 93 105.5 76.5 c 128,-1,66
 126 60 126 60 169 60 c 0,57,58
EndSplineSet
Substitution2: "'smcp' Lowercase to Small Capitals lookup 12 subtable" atilde.sc
Substitution2: "'aalt' Access All Alternates lookup 0 subtable" atilde.sc
EndChar

StartChar: adieresis
Encoding: 228 228 166
Width: 566
GlyphClass: 2
Flags: W
LayerCount: 2
Fore
SplineSet
237.5 582 m 128,-1,1
 212 582 212 582 200 598 c 128,-1,2
 188 614 188 614 193.5 639 c 128,-1,3
 199 664 199 664 218.5 680 c 128,-1,4
 238 696 238 696 263.5 696 c 128,-1,5
 289 696 289 696 301 680.5 c 128,-1,6
 313 665 313 665 307.5 639 c 128,-1,7
 302 613 302 613 282.5 597.5 c 128,-1,0
 263 582 263 582 237.5 582 c 128,-1,1
431.5 582 m 128,-1,9
 406 582 406 582 394 598 c 128,-1,10
 382 614 382 614 387.5 639 c 128,-1,11
 393 664 393 664 412.5 680 c 128,-1,12
 432 696 432 696 457.5 696 c 128,-1,13
 483 696 483 696 495 680.5 c 128,-1,14
 507 665 507 665 501.5 639 c 128,-1,15
 496 613 496 613 476.5 597.5 c 128,-1,8
 457 582 457 582 431.5 582 c 128,-1,9
440 58 m 256,16,17
 460 58 460 58 482 63 c 1,18,-1
 462 0 l 1,19,20
 432 -10 432 -10 400 -10 c 0,21,22
 361 -10 361 -10 342.5 7 c 128,-1,23
 324 24 324 24 327 64 c 1,24,25
 295 29 295 29 246.5 9.5 c 128,-1,26
 198 -10 198 -10 149 -10 c 0,27,28
 74 -10 74 -10 34.5 24.5 c 128,-1,29
 -5 59 -5 59 10 124 c 0,30,31
 23 181 23 181 82.5 222.5 c 128,-1,32
 142 264 142 264 241 280 c 2,33,-1
 379 302 l 1,34,-1
 385 330 l 2,35,36
 397 380 397 380 373 410 c 128,-1,37
 349 440 349 440 294 440 c 0,38,39
 191 440 191 440 129 345 c 1,40,-1
 80 388 l 1,41,42
 112 444 112 444 174.5 477 c 128,-1,43
 237 510 237 510 310 510 c 0,44,45
 399 510 399 510 443 467 c 128,-1,46
 487 424 487 424 467 340 c 2,47,-1
 411 94 l 2,48,49
 406 75 406 75 413 66.5 c 128,-1,50
 420 58 420 58 440 58 c 256,16,17
169 60 m 0,51,52
 231 60 231 60 284 90 c 128,-1,53
 337 120 337 120 348 168 c 2,54,-1
 364 237 l 1,55,-1
 247 216 l 2,56,57
 108 192 108 192 93 124 c 0,58,59
 85 93 85 93 105.5 76.5 c 128,-1,60
 126 60 126 60 169 60 c 0,51,52
EndSplineSet
Substitution2: "'smcp' Lowercase to Small Capitals lookup 12 subtable" adieresis.sc
Substitution2: "'aalt' Access All Alternates lookup 0 subtable" adieresis.sc
EndChar

StartChar: aring
Encoding: 229 229 167
Width: 566
GlyphClass: 2
Flags: W
LayerCount: 2
Fore
SplineSet
329.5 575 m 128,-1,1
 273 575 273 575 246 608 c 128,-1,2
 219 641 219 641 231 694 c 256,3,4
 243 747 243 747 285.5 779.5 c 128,-1,5
 328 812 328 812 384.5 812 c 128,-1,6
 441 812 441 812 467.5 779.5 c 128,-1,7
 494 747 494 747 482 694 c 256,8,9
 470 641 470 641 428 608 c 128,-1,0
 386 575 386 575 329.5 575 c 128,-1,1
373 763 m 128,-1,11
 342 763 342 763 317.5 743.5 c 128,-1,12
 293 724 293 724 286 694 c 128,-1,13
 279 664 279 664 295 644.5 c 128,-1,14
 311 625 311 625 341.5 625 c 128,-1,15
 372 625 372 625 396.5 644.5 c 128,-1,16
 421 664 421 664 428 694 c 128,-1,17
 435 724 435 724 419.5 743.5 c 128,-1,10
 404 763 404 763 373 763 c 128,-1,11
440 58 m 256,18,19
 460 58 460 58 482 63 c 1,20,-1
 462 0 l 1,21,22
 432 -10 432 -10 400 -10 c 0,23,24
 361 -10 361 -10 342.5 7 c 128,-1,25
 324 24 324 24 327 64 c 1,26,27
 295 29 295 29 246.5 9.5 c 128,-1,28
 198 -10 198 -10 149 -10 c 0,29,30
 74 -10 74 -10 34.5 24.5 c 128,-1,31
 -5 59 -5 59 10 124 c 0,32,33
 23 181 23 181 82.5 222.5 c 128,-1,34
 142 264 142 264 241 280 c 2,35,-1
 379 302 l 1,36,-1
 385 330 l 2,37,38
 397 380 397 380 373 410 c 128,-1,39
 349 440 349 440 294 440 c 0,40,41
 191 440 191 440 129 345 c 1,42,-1
 80 388 l 1,43,44
 112 444 112 444 174.5 477 c 128,-1,45
 237 510 237 510 310 510 c 0,46,47
 399 510 399 510 443 467 c 128,-1,48
 487 424 487 424 467 340 c 2,49,-1
 411 94 l 2,50,51
 406 75 406 75 413 66.5 c 128,-1,52
 420 58 420 58 440 58 c 256,18,19
169 60 m 0,53,54
 231 60 231 60 284 90 c 128,-1,55
 337 120 337 120 348 168 c 2,56,-1
 364 237 l 1,57,-1
 247 216 l 2,58,59
 108 192 108 192 93 124 c 0,60,61
 85 93 85 93 105.5 76.5 c 128,-1,62
 126 60 126 60 169 60 c 0,53,54
EndSplineSet
Substitution2: "'smcp' Lowercase to Small Capitals lookup 12 subtable" aring.sc
Substitution2: "'aalt' Access All Alternates lookup 0 subtable" aring.sc
EndChar

StartChar: ae
Encoding: 230 230 168
Width: 884
GlyphClass: 2
Flags: W
LayerCount: 2
Fore
SplineSet
813 276 m 0,0,1
 806 248 806 248 796 220 c 1,2,-1
 439 220 l 1,3,4
 430 145 430 145 461.5 102.5 c 128,-1,5
 493 60 493 60 555 60 c 0,6,7
 658 60 658 60 703 134 c 1,8,-1
 762 99 l 1,9,10
 719 44 719 44 667.5 17 c 128,-1,11
 616 -10 616 -10 539 -10 c 0,12,13
 393 -10 393 -10 374 113 c 1,14,15
 340 53 340 53 277.5 21.5 c 128,-1,16
 215 -10 215 -10 141.5 -10 c 128,-1,17
 68 -10 68 -10 31.5 26.5 c 128,-1,18
 -5 63 -5 63 10 124 c 0,19,20
 23 182 23 182 80 221.5 c 128,-1,21
 137 261 137 261 230 273 c 2,22,-1
 383 292 l 1,23,-1
 392 330 l 2,24,25
 404 380 404 380 378.5 410 c 128,-1,26
 353 440 353 440 295 440 c 0,27,28
 191 440 191 440 129 345 c 1,29,-1
 80 388 l 1,30,31
 114 445 114 445 177 477.5 c 128,-1,32
 240 510 240 510 313 510 c 0,33,34
 372 510 372 510 408.5 484 c 128,-1,35
 445 458 445 458 456 408 c 1,36,37
 538 510 538 510 653 510 c 0,38,39
 706 510 706 510 743.5 491.5 c 128,-1,40
 781 473 781 473 798.5 441.5 c 128,-1,41
 816 410 816 410 820.5 367 c 128,-1,42
 825 324 825 324 813 276 c 0,0,1
637 440 m 0,43,44
 578 440 578 440 530 400.5 c 128,-1,45
 482 361 482 361 457 291 c 1,46,-1
 739 291 l 1,47,48
 749 362 749 362 724 401 c 128,-1,49
 699 440 699 440 637 440 c 0,43,44
172 60 m 0,50,51
 236 60 236 60 291.5 98 c 128,-1,52
 347 136 347 136 362 198 c 2,53,-1
 369 229 l 1,54,-1
 236 209 l 2,55,56
 168 198 168 198 134.5 178.5 c 128,-1,57
 101 159 101 159 93 124 c 0,58,59
 85 92 85 92 105.5 76 c 128,-1,60
 126 60 126 60 172 60 c 0,50,51
EndSplineSet
Substitution2: "'smcp' Lowercase to Small Capitals lookup 12 subtable" ae.sc
Substitution2: "'aalt' Access All Alternates lookup 0 subtable" ae.sc
EndChar

StartChar: ccedilla
Encoding: 231 231 169
Width: 564
GlyphClass: 2
Flags: W
LayerCount: 2
Fore
SplineSet
472 137 m 1,0,1
 398 15 398 15 274 -6 c 1,2,3
 319 -49 319 -49 305 -108 c 0,4,5
 295 -152 295 -152 256.5 -183.5 c 128,-1,6
 218 -215 218 -215 164 -215 c 0,7,8
 94 -215 94 -215 62 -180 c 1,9,-1
 105 -125 l 1,10,11
 126 -155 126 -155 167 -155 c 0,12,13
 192 -155 192 -155 212 -139 c 128,-1,14
 232 -123 232 -123 238 -97 c 0,15,16
 244 -68 244 -68 232 -48.5 c 128,-1,17
 220 -29 220 -29 180 -7 c 1,18,19
 91 7 91 7 55 74.5 c 128,-1,20
 19 142 19 142 44 250 c 0,21,22
 72 372 72 372 152.5 441 c 128,-1,23
 233 510 233 510 346 510 c 0,24,25
 493 510 493 510 522 377 c 1,26,-1
 438 341 l 1,27,28
 428 440 428 440 328 440 c 0,29,30
 253 440 253 440 198.5 389.5 c 128,-1,31
 144 339 144 339 123.5 250 c 128,-1,32
 103 161 103 161 134 110.5 c 128,-1,33
 165 60 165 60 240 60 c 0,34,35
 356 60 356 60 404 163 c 1,36,-1
 472 137 l 1,0,1
EndSplineSet
Substitution2: "'smcp' Lowercase to Small Capitals lookup 12 subtable" ccedilla.sc
Substitution2: "'aalt' Access All Alternates lookup 0 subtable" ccedilla.sc
EndChar

StartChar: egrave
Encoding: 232 232 170
Width: 581
GlyphClass: 2
Flags: W
AnchorPoint: "Anchor-0" 228 0 basechar 0
LayerCount: 2
Fore
SplineSet
396 583 m 1,0,-1
 331 583 l 1,1,-1
 271 750 l 1,2,-1
 358 750 l 1,3,-1
 396 583 l 1,0,-1
510 276 m 0,4,5
 503 248 503 248 493 220 c 1,6,-1
 116 220 l 1,7,8
 106 144 106 144 139.5 102 c 128,-1,9
 173 60 173 60 242 60 c 0,10,11
 355 60 355 60 400 134 c 1,12,-1
 459 99 l 1,13,14
 373 -10 373 -10 226 -10 c 0,15,16
 112 -10 112 -10 64 59 c 128,-1,17
 16 128 16 128 44 250 c 256,18,19
 72 372 72 372 149.5 441 c 128,-1,20
 227 510 227 510 340 510 c 0,21,22
 445 510 445 510 489 443.5 c 128,-1,23
 533 377 533 377 510 276 c 0,4,5
324 440 m 0,24,25
 257 440 257 440 208 401 c 128,-1,26
 159 362 159 362 133 291 c 1,27,-1
 436 291 l 1,28,29
 444 361 444 361 415 400.5 c 128,-1,30
 386 440 386 440 324 440 c 0,24,25
EndSplineSet
Substitution2: "'smcp' Lowercase to Small Capitals lookup 12 subtable" egrave.sc
Substitution2: "'aalt' Access All Alternates lookup 0 subtable" egrave.sc
EndChar

StartChar: eacute
Encoding: 233 233 171
Width: 581
GlyphClass: 2
Flags: W
AnchorPoint: "Anchor-0" 228 0 basechar 0
LayerCount: 2
Fore
SplineSet
506 750 m 1,0,-1
 370 583 l 1,1,-1
 305 583 l 1,2,-1
 419 750 l 1,3,-1
 506 750 l 1,0,-1
510 276 m 0,4,5
 503 248 503 248 493 220 c 1,6,-1
 116 220 l 1,7,8
 106 144 106 144 139.5 102 c 128,-1,9
 173 60 173 60 242 60 c 0,10,11
 355 60 355 60 400 134 c 1,12,-1
 459 99 l 1,13,14
 373 -10 373 -10 226 -10 c 0,15,16
 112 -10 112 -10 64 59 c 128,-1,17
 16 128 16 128 44 250 c 256,18,19
 72 372 72 372 149.5 441 c 128,-1,20
 227 510 227 510 340 510 c 0,21,22
 445 510 445 510 489 443.5 c 128,-1,23
 533 377 533 377 510 276 c 0,4,5
324 440 m 0,24,25
 257 440 257 440 208 401 c 128,-1,26
 159 362 159 362 133 291 c 1,27,-1
 436 291 l 1,28,29
 444 361 444 361 415 400.5 c 128,-1,30
 386 440 386 440 324 440 c 0,24,25
EndSplineSet
Substitution2: "'smcp' Lowercase to Small Capitals lookup 12 subtable" eacute.sc
Substitution2: "'aalt' Access All Alternates lookup 0 subtable" eacute.sc
EndChar

StartChar: ecircumflex
Encoding: 234 234 172
Width: 581
GlyphClass: 2
Flags: W
AnchorPoint: "Anchor-0" 228 0 basechar 0
LayerCount: 2
Fore
SplineSet
378 687 m 1,0,-1
 267 576 l 1,1,-1
 194 576 l 1,2,-1
 345 743 l 1,3,-1
 437 743 l 1,4,-1
 510 576 l 1,5,-1
 437 576 l 1,6,-1
 378 687 l 1,0,-1
510 276 m 0,7,8
 503 248 503 248 493 220 c 1,9,-1
 116 220 l 1,10,11
 106 144 106 144 139.5 102 c 128,-1,12
 173 60 173 60 242 60 c 0,13,14
 355 60 355 60 400 134 c 1,15,-1
 459 99 l 1,16,17
 373 -10 373 -10 226 -10 c 0,18,19
 112 -10 112 -10 64 59 c 128,-1,20
 16 128 16 128 44 250 c 256,21,22
 72 372 72 372 149.5 441 c 128,-1,23
 227 510 227 510 340 510 c 0,24,25
 445 510 445 510 489 443.5 c 128,-1,26
 533 377 533 377 510 276 c 0,7,8
324 440 m 0,27,28
 257 440 257 440 208 401 c 128,-1,29
 159 362 159 362 133 291 c 1,30,-1
 436 291 l 1,31,32
 444 361 444 361 415 400.5 c 128,-1,33
 386 440 386 440 324 440 c 0,27,28
EndSplineSet
Substitution2: "'smcp' Lowercase to Small Capitals lookup 12 subtable" ecircumflex.sc
Substitution2: "'aalt' Access All Alternates lookup 0 subtable" ecircumflex.sc
EndChar

StartChar: edieresis
Encoding: 235 235 173
Width: 581
GlyphClass: 2
Flags: W
AnchorPoint: "Anchor-0" 228 0 basechar 0
LayerCount: 2
Fore
SplineSet
256.5 582 m 128,-1,1
 231 582 231 582 219 598 c 128,-1,2
 207 614 207 614 212.5 639 c 128,-1,3
 218 664 218 664 237.5 680 c 128,-1,4
 257 696 257 696 282.5 696 c 128,-1,5
 308 696 308 696 320 680.5 c 128,-1,6
 332 665 332 665 326.5 639 c 128,-1,7
 321 613 321 613 301.5 597.5 c 128,-1,0
 282 582 282 582 256.5 582 c 128,-1,1
450.5 582 m 128,-1,9
 425 582 425 582 413 598 c 128,-1,10
 401 614 401 614 406.5 639 c 128,-1,11
 412 664 412 664 431.5 680 c 128,-1,12
 451 696 451 696 476.5 696 c 128,-1,13
 502 696 502 696 514 680.5 c 128,-1,14
 526 665 526 665 520.5 639 c 128,-1,15
 515 613 515 613 495.5 597.5 c 128,-1,8
 476 582 476 582 450.5 582 c 128,-1,9
510 276 m 0,16,17
 503 248 503 248 493 220 c 1,18,-1
 116 220 l 1,19,20
 106 144 106 144 139.5 102 c 128,-1,21
 173 60 173 60 242 60 c 0,22,23
 355 60 355 60 400 134 c 1,24,-1
 459 99 l 1,25,26
 373 -10 373 -10 226 -10 c 0,27,28
 112 -10 112 -10 64 59 c 128,-1,29
 16 128 16 128 44 250 c 256,30,31
 72 372 72 372 149.5 441 c 128,-1,32
 227 510 227 510 340 510 c 0,33,34
 445 510 445 510 489 443.5 c 128,-1,35
 533 377 533 377 510 276 c 0,16,17
324 440 m 0,36,37
 257 440 257 440 208 401 c 128,-1,38
 159 362 159 362 133 291 c 1,39,-1
 436 291 l 1,40,41
 444 361 444 361 415 400.5 c 128,-1,42
 386 440 386 440 324 440 c 0,36,37
EndSplineSet
Substitution2: "'smcp' Lowercase to Small Capitals lookup 12 subtable" edieresis.sc
Substitution2: "'aalt' Access All Alternates lookup 0 subtable" edieresis.sc
EndChar

StartChar: igrave
Encoding: 236 236 174
Width: 266
GlyphClass: 2
Flags: W
LayerCount: 2
Fore
SplineSet
196 750 m 1,0,-1
 234 583 l 1,1,-1
 169 583 l 1,2,-1
 109 750 l 1,3,-1
 196 750 l 1,0,-1
212 500 m 1,4,-1
 97 0 l 1,5,-1
 17 0 l 1,6,-1
 132 500 l 1,7,-1
 212 500 l 1,4,-1
EndSplineSet
Substitution2: "'smcp' Lowercase to Small Capitals lookup 12 subtable" igrave.sc
Substitution2: "'aalt' Access All Alternates lookup 0 subtable" igrave.sc
EndChar

StartChar: iacute
Encoding: 237 237 175
Width: 266
GlyphClass: 2
Flags: W
LayerCount: 2
Fore
SplineSet
267 750 m 1,0,-1
 354 750 l 1,1,-1
 218 583 l 1,2,-1
 153 583 l 1,3,-1
 267 750 l 1,0,-1
212 500 m 1,4,-1
 97 0 l 1,5,-1
 17 0 l 1,6,-1
 132 500 l 1,7,-1
 212 500 l 1,4,-1
EndSplineSet
Substitution2: "'smcp' Lowercase to Small Capitals lookup 12 subtable" iacute.sc
Substitution2: "'aalt' Access All Alternates lookup 0 subtable" iacute.sc
EndChar

StartChar: icircumflex
Encoding: 238 238 176
Width: 266
GlyphClass: 2
Flags: W
LayerCount: 2
Fore
SplineSet
348 576 m 1,0,-1
 275 576 l 1,1,-1
 216 687 l 1,2,-1
 105 576 l 1,3,-1
 32 576 l 1,4,-1
 183 743 l 1,5,-1
 275 743 l 1,6,-1
 348 576 l 1,0,-1
212 500 m 1,7,-1
 97 0 l 1,8,-1
 17 0 l 1,9,-1
 132 500 l 1,10,-1
 212 500 l 1,7,-1
EndSplineSet
Substitution2: "'smcp' Lowercase to Small Capitals lookup 12 subtable" icircumflex.sc
Substitution2: "'aalt' Access All Alternates lookup 0 subtable" icircumflex.sc
EndChar

StartChar: idieresis
Encoding: 239 239 177
Width: 266
GlyphClass: 2
Flags: W
LayerCount: 2
Fore
SplineSet
111 582 m 0,0,1
 86 582 86 582 74 598 c 128,-1,2
 62 614 62 614 67.5 639 c 128,-1,3
 73 664 73 664 92.5 680 c 128,-1,4
 112 696 112 696 138 696 c 256,5,6
 164 696 164 696 176 680.5 c 128,-1,7
 188 665 188 665 182.5 639 c 128,-1,8
 177 613 177 613 157.5 597.5 c 128,-1,9
 138 582 138 582 111 582 c 0,0,1
271 582 m 256,10,11
 245 582 245 582 233 597.5 c 128,-1,12
 221 613 221 613 226.5 639 c 128,-1,13
 232 665 232 665 252 680.5 c 128,-1,14
 272 696 272 696 298 696 c 0,15,16
 323 696 323 696 335 680.5 c 128,-1,17
 347 665 347 665 341.5 639 c 128,-1,18
 336 613 336 613 316.5 597.5 c 128,-1,19
 297 582 297 582 271 582 c 256,10,11
212 500 m 1,20,-1
 97 0 l 1,21,-1
 17 0 l 1,22,-1
 132 500 l 1,23,-1
 212 500 l 1,20,-1
EndSplineSet
Substitution2: "'smcp' Lowercase to Small Capitals lookup 12 subtable" idieresis.sc
Substitution2: "'aalt' Access All Alternates lookup 0 subtable" idieresis.sc
EndChar

StartChar: eth
Encoding: 240 240 178
Width: 620
GlyphClass: 2
Flags: W
LayerCount: 2
Fore
SplineSet
518 609 m 1,0,1
 582 485 582 485 536 288 c 0,2,3
 505 152 505 152 423.5 71 c 128,-1,4
 342 -10 342 -10 220 -10 c 0,5,6
 110 -10 110 -10 62 56 c 128,-1,7
 14 122 14 122 41 238 c 0,8,9
 67 351 67 351 148.5 418 c 128,-1,10
 230 485 230 485 332 485 c 0,11,12
 445 485 445 485 485 415 c 1,13,14
 485 523 485 523 445 593 c 1,15,-1
 248 545 l 1,16,-1
 249 594 l 1,17,-1
 419 630 l 1,18,19
 375 684 375 684 298 730 c 1,20,-1
 409 730 l 1,21,22
 462 693 462 693 494 647 c 1,23,-1
 612 678 l 1,24,-1
 614 628 l 1,25,-1
 518 609 l 1,0,1
240 60 m 0,26,27
 316 60 316 60 373 112 c 128,-1,28
 430 164 430 164 447 238 c 0,29,30
 466 320 466 320 434 367.5 c 128,-1,31
 402 415 402 415 327 415 c 0,32,33
 251 415 251 415 197 368 c 128,-1,34
 143 321 143 321 124 238 c 256,35,36
 105 155 105 155 136 107.5 c 128,-1,37
 167 60 167 60 240 60 c 0,26,27
EndSplineSet
Substitution2: "'smcp' Lowercase to Small Capitals lookup 12 subtable" eth.sc
Substitution2: "'aalt' Access All Alternates lookup 0 subtable" eth.sc
EndChar

StartChar: ntilde
Encoding: 241 241 179
Width: 619
GlyphClass: 2
Flags: W
AnchorPoint: "Anchor-0" 266 0 basechar 0
LayerCount: 2
Fore
SplineSet
322 651 m 0,0,1
 301 651 301 651 286 634 c 128,-1,2
 271 617 271 617 257 582 c 1,3,-1
 194 582 l 1,4,5
 236 716 236 716 338 716 c 0,6,7
 363 716 363 716 382 705.5 c 128,-1,8
 401 695 401 695 411 682 c 128,-1,9
 421 669 421 669 433.5 658.5 c 128,-1,10
 446 648 446 648 459 648 c 0,11,12
 480 648 480 648 495.5 665.5 c 128,-1,13
 511 683 511 683 525 717 c 1,14,-1
 588 717 l 1,15,16
 546 583 546 583 445 583 c 0,17,18
 419 583 419 583 400 593.5 c 128,-1,19
 381 604 381 604 371.5 617 c 128,-1,20
 362 630 362 630 349 640.5 c 128,-1,21
 336 651 336 651 322 651 c 0,0,1
378 510 m 0,22,23
 463 510 463 510 506.5 461 c 128,-1,24
 550 412 550 412 529 320 c 2,25,-1
 455 0 l 1,26,-1
 375 0 l 1,27,-1
 442 292 l 2,28,29
 477 440 477 440 354 440 c 0,30,31
 314 440 314 440 277 424 c 128,-1,32
 240 408 240 408 206 367 c 128,-1,33
 172 326 172 326 158 266 c 2,34,-1
 97 0 l 1,35,-1
 17 0 l 1,36,-1
 132 500 l 1,37,-1
 202 500 l 1,38,-1
 189 422 l 1,39,40
 259 510 259 510 378 510 c 0,22,23
EndSplineSet
Substitution2: "Single Substitution lookup 57 subtable" ntilde.swsh
Substitution2: "'swsh' Swash lookup 38 subtable" ntilde.swsh
Substitution2: "'smcp' Lowercase to Small Capitals lookup 12 subtable" ntilde.sc
AlternateSubs2: "'aalt' Access All Alternates lookup 1 subtable" ntilde.sc ntilde.swsh
EndChar

StartChar: ograve
Encoding: 242 242 180
Width: 608
GlyphClass: 2
Flags: W
LayerCount: 2
Fore
SplineSet
367 750 m 1,0,-1
 405 583 l 1,1,-1
 340 583 l 1,2,-1
 280 750 l 1,3,-1
 367 750 l 1,0,-1
346 510 m 128,-1,5
 459 510 459 510 507.5 441 c 128,-1,6
 556 372 556 372 528 250 c 128,-1,7
 500 128 500 128 419.5 59 c 128,-1,8
 339 -10 339 -10 225.5 -10 c 128,-1,9
 112 -10 112 -10 64 59 c 128,-1,10
 16 128 16 128 44 250 c 128,-1,11
 72 372 72 372 152.5 441 c 128,-1,4
 233 510 233 510 346 510 c 128,-1,5
330 441 m 128,-1,13
 254 441 254 441 199 390 c 128,-1,14
 144 339 144 339 123.5 250 c 128,-1,15
 103 161 103 161 134.5 110 c 128,-1,16
 166 59 166 59 241.5 59 c 128,-1,17
 317 59 317 59 372 110 c 128,-1,18
 427 161 427 161 447.5 250 c 128,-1,19
 468 339 468 339 437 390 c 128,-1,12
 406 441 406 441 330 441 c 128,-1,13
EndSplineSet
Substitution2: "'smcp' Lowercase to Small Capitals lookup 12 subtable" ograve.sc
Substitution2: "'aalt' Access All Alternates lookup 0 subtable" ograve.sc
EndChar

StartChar: oacute
Encoding: 243 243 181
Width: 608
GlyphClass: 2
Flags: W
LayerCount: 2
Fore
SplineSet
428 750 m 1,0,-1
 515 750 l 1,1,-1
 379 583 l 1,2,-1
 314 583 l 1,3,-1
 428 750 l 1,0,-1
346 510 m 128,-1,5
 459 510 459 510 507.5 441 c 128,-1,6
 556 372 556 372 528 250 c 128,-1,7
 500 128 500 128 419.5 59 c 128,-1,8
 339 -10 339 -10 225.5 -10 c 128,-1,9
 112 -10 112 -10 64 59 c 128,-1,10
 16 128 16 128 44 250 c 128,-1,11
 72 372 72 372 152.5 441 c 128,-1,4
 233 510 233 510 346 510 c 128,-1,5
330 441 m 128,-1,13
 254 441 254 441 199 390 c 128,-1,14
 144 339 144 339 123.5 250 c 128,-1,15
 103 161 103 161 134.5 110 c 128,-1,16
 166 59 166 59 241.5 59 c 128,-1,17
 317 59 317 59 372 110 c 128,-1,18
 427 161 427 161 447.5 250 c 128,-1,19
 468 339 468 339 437 390 c 128,-1,12
 406 441 406 441 330 441 c 128,-1,13
EndSplineSet
Substitution2: "'smcp' Lowercase to Small Capitals lookup 12 subtable" oacute.sc
Substitution2: "'aalt' Access All Alternates lookup 0 subtable" oacute.sc
EndChar

StartChar: ocircumflex
Encoding: 244 244 182
Width: 608
GlyphClass: 2
Flags: W
LayerCount: 2
Fore
SplineSet
519 576 m 1,0,-1
 446 576 l 1,1,-1
 387 687 l 1,2,-1
 276 576 l 1,3,-1
 203 576 l 1,4,-1
 354 743 l 1,5,-1
 446 743 l 1,6,-1
 519 576 l 1,0,-1
346 510 m 128,-1,8
 459 510 459 510 507.5 441 c 128,-1,9
 556 372 556 372 528 250 c 128,-1,10
 500 128 500 128 419.5 59 c 128,-1,11
 339 -10 339 -10 225.5 -10 c 128,-1,12
 112 -10 112 -10 64 59 c 128,-1,13
 16 128 16 128 44 250 c 128,-1,14
 72 372 72 372 152.5 441 c 128,-1,7
 233 510 233 510 346 510 c 128,-1,8
330 441 m 128,-1,16
 254 441 254 441 199 390 c 128,-1,17
 144 339 144 339 123.5 250 c 128,-1,18
 103 161 103 161 134.5 110 c 128,-1,19
 166 59 166 59 241.5 59 c 128,-1,20
 317 59 317 59 372 110 c 128,-1,21
 427 161 427 161 447.5 250 c 128,-1,22
 468 339 468 339 437 390 c 128,-1,15
 406 441 406 441 330 441 c 128,-1,16
EndSplineSet
Substitution2: "'smcp' Lowercase to Small Capitals lookup 12 subtable" ocircumflex.sc
Substitution2: "'aalt' Access All Alternates lookup 0 subtable" ocircumflex.sc
EndChar

StartChar: otilde
Encoding: 245 245 183
Width: 608
GlyphClass: 2
Flags: W
LayerCount: 2
Fore
SplineSet
574 717 m 1,0,1
 532 583 532 583 431 583 c 0,2,3
 405 583 405 583 386 593.5 c 128,-1,4
 367 604 367 604 357.5 617 c 128,-1,5
 348 630 348 630 335 640.5 c 128,-1,6
 322 651 322 651 308 651 c 0,7,8
 287 651 287 651 272 634 c 128,-1,9
 257 617 257 617 243 582 c 1,10,-1
 180 582 l 1,11,12
 222 716 222 716 324 716 c 0,13,14
 349 716 349 716 368 705.5 c 128,-1,15
 387 695 387 695 397 682 c 128,-1,16
 407 669 407 669 419.5 658.5 c 128,-1,17
 432 648 432 648 445 648 c 0,18,19
 466 648 466 648 481.5 665.5 c 128,-1,20
 497 683 497 683 511 717 c 1,21,-1
 574 717 l 1,0,1
346 510 m 128,-1,23
 459 510 459 510 507.5 441 c 128,-1,24
 556 372 556 372 528 250 c 128,-1,25
 500 128 500 128 419.5 59 c 128,-1,26
 339 -10 339 -10 225.5 -10 c 128,-1,27
 112 -10 112 -10 64 59 c 128,-1,28
 16 128 16 128 44 250 c 128,-1,29
 72 372 72 372 152.5 441 c 128,-1,22
 233 510 233 510 346 510 c 128,-1,23
330 441 m 128,-1,31
 254 441 254 441 199 390 c 128,-1,32
 144 339 144 339 123.5 250 c 128,-1,33
 103 161 103 161 134.5 110 c 128,-1,34
 166 59 166 59 241.5 59 c 128,-1,35
 317 59 317 59 372 110 c 128,-1,36
 427 161 427 161 447.5 250 c 128,-1,37
 468 339 468 339 437 390 c 128,-1,30
 406 441 406 441 330 441 c 128,-1,31
EndSplineSet
Substitution2: "'smcp' Lowercase to Small Capitals lookup 12 subtable" otilde.sc
Substitution2: "'aalt' Access All Alternates lookup 0 subtable" otilde.sc
EndChar

StartChar: odieresis
Encoding: 246 246 184
Width: 608
GlyphClass: 2
Flags: W
LayerCount: 2
Fore
SplineSet
291.5 696 m 128,-1,1
 317 696 317 696 329 680.5 c 128,-1,2
 341 665 341 665 335.5 639 c 128,-1,3
 330 613 330 613 310.5 597.5 c 128,-1,4
 291 582 291 582 265.5 582 c 128,-1,5
 240 582 240 582 228 598 c 128,-1,6
 216 614 216 614 221.5 639 c 128,-1,7
 227 664 227 664 246.5 680 c 128,-1,0
 266 696 266 696 291.5 696 c 128,-1,1
485.5 696 m 128,-1,9
 511 696 511 696 523 680.5 c 128,-1,10
 535 665 535 665 529.5 639 c 128,-1,11
 524 613 524 613 504.5 597.5 c 128,-1,12
 485 582 485 582 459.5 582 c 128,-1,13
 434 582 434 582 422 598 c 128,-1,14
 410 614 410 614 415.5 639 c 128,-1,15
 421 664 421 664 440.5 680 c 128,-1,8
 460 696 460 696 485.5 696 c 128,-1,9
346 510 m 128,-1,17
 459 510 459 510 507.5 441 c 128,-1,18
 556 372 556 372 528 250 c 128,-1,19
 500 128 500 128 419.5 59 c 128,-1,20
 339 -10 339 -10 225.5 -10 c 128,-1,21
 112 -10 112 -10 64 59 c 128,-1,22
 16 128 16 128 44 250 c 128,-1,23
 72 372 72 372 152.5 441 c 128,-1,16
 233 510 233 510 346 510 c 128,-1,17
330 441 m 128,-1,25
 254 441 254 441 199 390 c 128,-1,26
 144 339 144 339 123.5 250 c 128,-1,27
 103 161 103 161 134.5 110 c 128,-1,28
 166 59 166 59 241.5 59 c 128,-1,29
 317 59 317 59 372 110 c 128,-1,30
 427 161 427 161 447.5 250 c 128,-1,31
 468 339 468 339 437 390 c 128,-1,24
 406 441 406 441 330 441 c 128,-1,25
EndSplineSet
Substitution2: "'smcp' Lowercase to Small Capitals lookup 12 subtable" odieresis.sc
Substitution2: "'aalt' Access All Alternates lookup 0 subtable" odieresis.sc
EndChar

StartChar: divide
Encoding: 247 247 185
Width: 604
GlyphClass: 2
Flags: W
LayerCount: 2
Fore
SplineSet
359 576 m 128,-1,1
 388 576 388 576 402 558 c 128,-1,2
 416 540 416 540 409 511 c 128,-1,3
 402 482 402 482 380 464 c 128,-1,4
 358 446 358 446 329 446 c 128,-1,5
 300 446 300 446 286 464 c 128,-1,6
 272 482 272 482 279 511 c 128,-1,7
 286 540 286 540 308 558 c 128,-1,0
 330 576 330 576 359 576 c 128,-1,1
551 354 m 1,8,-1
 533 279 l 1,9,-1
 47 279 l 1,10,-1
 65 354 l 1,11,-1
 551 354 l 1,8,-1
268.5 185 m 128,-1,13
 298 185 298 185 311.5 167 c 128,-1,14
 325 149 325 149 318.5 120 c 128,-1,15
 312 91 312 91 290 73 c 128,-1,16
 268 55 268 55 238.5 55 c 128,-1,17
 209 55 209 55 195.5 73 c 128,-1,18
 182 91 182 91 188.5 120 c 128,-1,19
 195 149 195 149 217 167 c 128,-1,12
 239 185 239 185 268.5 185 c 128,-1,13
EndSplineSet
EndChar

StartChar: oslash
Encoding: 248 248 186
Width: 609
GlyphClass: 2
Flags: W
LayerCount: 2
Fore
SplineSet
346 510 m 0,0,1
 429 510 429 510 478 472 c 1,2,-1
 529 523 l 1,3,-1
 596 523 l 1,4,-1
 510 437 l 1,5,6
 555 368 555 368 528 250 c 0,7,8
 500 128 500 128 419.5 59 c 128,-1,9
 339 -10 339 -10 226 -10 c 0,10,11
 150 -10 150 -10 102 22 c 1,12,-1
 43 -37 l 1,13,-1
 -24 -37 l 1,14,-1
 67 55 l 1,15,16
 15 125 15 125 44 250 c 0,17,18
 72 372 72 372 152.5 441 c 128,-1,19
 233 510 233 510 346 510 c 0,0,1
129 118 m 1,20,-1
 130 118 l 1,21,-1
 178 167 l 1,22,-1
 419 412 l 1,23,24
 386 441 386 441 330 441 c 0,25,26
 254 441 254 441 199 390 c 128,-1,27
 144 339 144 339 124 250 c 0,28,29
 105 170 105 170 129 118 c 1,20,-1
242 59 m 0,30,31
 317 59 317 59 372 110 c 128,-1,32
 427 161 427 161 448 250 c 0,33,34
 465 324 465 324 446 372 c 1,35,-1
 445 372 l 1,36,-1
 403 328 l 1,37,-1
 161 82 l 1,38,39
 191 59 191 59 242 59 c 0,30,31
EndSplineSet
Substitution2: "'smcp' Lowercase to Small Capitals lookup 12 subtable" oslash.sc
Substitution2: "'aalt' Access All Alternates lookup 0 subtable" oslash.sc
EndChar

StartChar: ugrave
Encoding: 249 249 187
Width: 619
GlyphClass: 2
Flags: W
LayerCount: 2
Fore
SplineSet
409 583 m 1,0,-1
 344 583 l 1,1,-1
 284 750 l 1,2,-1
 371 750 l 1,3,-1
 409 583 l 1,0,-1
485 500 m 1,4,-1
 565 500 l 1,5,-1
 450 0 l 1,6,-1
 380 0 l 1,7,-1
 393 76 l 1,8,9
 323 -10 323 -10 194 -10 c 0,10,11
 113 -10 113 -10 71.5 35 c 128,-1,12
 30 80 30 80 52 173 c 2,13,-1
 127 500 l 1,14,-1
 207 500 l 1,15,-1
 137 194 l 2,16,17
 120 121 120 121 143 90.5 c 128,-1,18
 166 60 166 60 224 60 c 0,19,20
 293 60 293 60 348 102 c 128,-1,21
 403 144 403 144 423 228 c 2,22,-1
 485 500 l 1,4,-1
EndSplineSet
Substitution2: "'smcp' Lowercase to Small Capitals lookup 12 subtable" ugrave.sc
Substitution2: "'aalt' Access All Alternates lookup 0 subtable" ugrave.sc
EndChar

StartChar: uacute
Encoding: 250 250 188
Width: 619
GlyphClass: 2
Flags: W
LayerCount: 2
Fore
SplineSet
519 750 m 1,0,-1
 383 583 l 1,1,-1
 318 583 l 1,2,-1
 432 750 l 1,3,-1
 519 750 l 1,0,-1
485 500 m 1,4,-1
 565 500 l 1,5,-1
 450 0 l 1,6,-1
 380 0 l 1,7,-1
 393 76 l 1,8,9
 323 -10 323 -10 194 -10 c 0,10,11
 113 -10 113 -10 71.5 35 c 128,-1,12
 30 80 30 80 52 173 c 2,13,-1
 127 500 l 1,14,-1
 207 500 l 1,15,-1
 137 194 l 2,16,17
 120 121 120 121 143 90.5 c 128,-1,18
 166 60 166 60 224 60 c 0,19,20
 293 60 293 60 348 102 c 128,-1,21
 403 144 403 144 423 228 c 2,22,-1
 485 500 l 1,4,-1
EndSplineSet
Substitution2: "'smcp' Lowercase to Small Capitals lookup 12 subtable" uacute.sc
Substitution2: "'aalt' Access All Alternates lookup 0 subtable" uacute.sc
EndChar

StartChar: ucircumflex
Encoding: 251 251 189
Width: 619
GlyphClass: 2
Flags: W
LayerCount: 2
Fore
SplineSet
391 687 m 1,0,-1
 280 576 l 1,1,-1
 207 576 l 1,2,-1
 358 743 l 1,3,-1
 450 743 l 1,4,-1
 523 576 l 1,5,-1
 450 576 l 1,6,-1
 391 687 l 1,0,-1
485 500 m 1,7,-1
 565 500 l 1,8,-1
 450 0 l 1,9,-1
 380 0 l 1,10,-1
 393 76 l 1,11,12
 323 -10 323 -10 194 -10 c 0,13,14
 113 -10 113 -10 71.5 35 c 128,-1,15
 30 80 30 80 52 173 c 2,16,-1
 127 500 l 1,17,-1
 207 500 l 1,18,-1
 137 194 l 2,19,20
 120 121 120 121 143 90.5 c 128,-1,21
 166 60 166 60 224 60 c 0,22,23
 293 60 293 60 348 102 c 128,-1,24
 403 144 403 144 423 228 c 2,25,-1
 485 500 l 1,7,-1
EndSplineSet
Substitution2: "'smcp' Lowercase to Small Capitals lookup 12 subtable" ucircumflex.sc
Substitution2: "'aalt' Access All Alternates lookup 0 subtable" ucircumflex.sc
EndChar

StartChar: udieresis
Encoding: 252 252 190
Width: 619
GlyphClass: 2
Flags: W
LayerCount: 2
Fore
SplineSet
269.5 582 m 128,-1,1
 244 582 244 582 232 598 c 128,-1,2
 220 614 220 614 225.5 639 c 128,-1,3
 231 664 231 664 250.5 680 c 128,-1,4
 270 696 270 696 295.5 696 c 128,-1,5
 321 696 321 696 333 680.5 c 128,-1,6
 345 665 345 665 339.5 639 c 128,-1,7
 334 613 334 613 314.5 597.5 c 128,-1,0
 295 582 295 582 269.5 582 c 128,-1,1
463.5 582 m 128,-1,9
 438 582 438 582 426 598 c 128,-1,10
 414 614 414 614 419.5 639 c 128,-1,11
 425 664 425 664 444.5 680 c 128,-1,12
 464 696 464 696 489.5 696 c 128,-1,13
 515 696 515 696 527 680.5 c 128,-1,14
 539 665 539 665 533.5 639 c 128,-1,15
 528 613 528 613 508.5 597.5 c 128,-1,8
 489 582 489 582 463.5 582 c 128,-1,9
485 500 m 1,16,-1
 565 500 l 1,17,-1
 450 0 l 1,18,-1
 380 0 l 1,19,-1
 393 76 l 1,20,21
 323 -10 323 -10 194 -10 c 0,22,23
 113 -10 113 -10 71.5 35 c 128,-1,24
 30 80 30 80 52 173 c 2,25,-1
 127 500 l 1,26,-1
 207 500 l 1,27,-1
 137 194 l 2,28,29
 120 121 120 121 143 90.5 c 128,-1,30
 166 60 166 60 224 60 c 0,31,32
 293 60 293 60 348 102 c 128,-1,33
 403 144 403 144 423 228 c 2,34,-1
 485 500 l 1,16,-1
EndSplineSet
Substitution2: "'smcp' Lowercase to Small Capitals lookup 12 subtable" udieresis.sc
Substitution2: "'aalt' Access All Alternates lookup 0 subtable" udieresis.sc
EndChar

StartChar: yacute
Encoding: 253 253 191
Width: 535
GlyphClass: 2
Flags: W
LayerCount: 2
Fore
SplineSet
397 750 m 1,0,-1
 484 750 l 1,1,-1
 348 583 l 1,2,-1
 283 583 l 1,3,-1
 397 750 l 1,0,-1
557 500 m 1,4,-1
 188 -84 l 2,5,6
 142 -156 142 -156 99 -185.5 c 128,-1,7
 56 -215 56 -215 -1 -215 c 0,8,9
 -71 -215 -71 -215 -101 -173 c 1,10,-1
 -57 -105 l 1,11,12
 -38 -145 -38 -145 15 -145 c 0,13,14
 44 -145 44 -145 70 -127.5 c 128,-1,15
 96 -110 96 -110 124 -64 c 2,16,-1
 165 1 l 1,17,-1
 71 500 l 1,18,-1
 162 500 l 1,19,-1
 212 174 l 1,20,-1
 223 85 l 1,21,-1
 281 184 l 1,22,-1
 471 500 l 1,23,-1
 557 500 l 1,4,-1
EndSplineSet
Substitution2: "Single Substitution lookup 57 subtable" yacute.swsh
Substitution2: "'swsh' Swash lookup 38 subtable" yacute.swsh
Substitution2: "'smcp' Lowercase to Small Capitals lookup 12 subtable" yacute.sc
AlternateSubs2: "'aalt' Access All Alternates lookup 1 subtable" yacute.sc yacute.swsh
EndChar

StartChar: thorn
Encoding: 254 254 192
Width: 630
GlyphClass: 2
Flags: W
LayerCount: 2
Fore
SplineSet
381 510 m 0,0,1
 486 510 486 510 531.5 440.5 c 128,-1,2
 577 371 577 371 549 250 c 128,-1,3
 521 129 521 129 443.5 59.5 c 128,-1,4
 366 -10 366 -10 261 -10 c 0,5,6
 206 -10 206 -10 168 11.5 c 128,-1,7
 130 33 130 33 113 69 c 1,8,-1
 49 -210 l 1,9,-1
 -31 -210 l 1,10,-1
 186 730 l 1,11,-1
 266 730 l 1,12,-1
 197 431 l 1,13,14
 231 467 231 467 278.5 488.5 c 128,-1,15
 326 510 326 510 381 510 c 0,0,1
268 60 m 0,16,17
 341 60 341 60 395 111.5 c 128,-1,18
 449 163 449 163 469 250 c 128,-1,19
 489 337 489 337 459 388.5 c 128,-1,20
 429 440 429 440 356 440 c 0,21,22
 284 440 284 440 230 390 c 128,-1,23
 176 340 176 340 156 256 c 2,24,-1
 153 244 l 2,25,26
 134 160 134 160 165 110 c 128,-1,27
 196 60 196 60 268 60 c 0,16,17
EndSplineSet
Substitution2: "'smcp' Lowercase to Small Capitals lookup 12 subtable" thorn.sc
Substitution2: "'aalt' Access All Alternates lookup 0 subtable" thorn.sc
EndChar

StartChar: ydieresis
Encoding: 255 255 193
Width: 535
GlyphClass: 2
Flags: W
LayerCount: 2
Fore
SplineSet
260.5 696 m 128,-1,1
 286 696 286 696 298 680.5 c 128,-1,2
 310 665 310 665 304.5 639 c 128,-1,3
 299 613 299 613 279.5 597.5 c 128,-1,4
 260 582 260 582 234.5 582 c 128,-1,5
 209 582 209 582 197 598 c 128,-1,6
 185 614 185 614 190.5 639 c 128,-1,7
 196 664 196 664 215.5 680 c 128,-1,0
 235 696 235 696 260.5 696 c 128,-1,1
454.5 696 m 128,-1,9
 480 696 480 696 492 680.5 c 128,-1,10
 504 665 504 665 498.5 639 c 128,-1,11
 493 613 493 613 473.5 597.5 c 128,-1,12
 454 582 454 582 428.5 582 c 128,-1,13
 403 582 403 582 391 598 c 128,-1,14
 379 614 379 614 384.5 639 c 128,-1,15
 390 664 390 664 409.5 680 c 128,-1,8
 429 696 429 696 454.5 696 c 128,-1,9
557 500 m 1,16,-1
 188 -84 l 2,17,18
 142 -156 142 -156 99 -185.5 c 128,-1,19
 56 -215 56 -215 -1 -215 c 0,20,21
 -71 -215 -71 -215 -101 -173 c 1,22,-1
 -57 -105 l 1,23,24
 -38 -145 -38 -145 15 -145 c 0,25,26
 44 -145 44 -145 70 -127.5 c 128,-1,27
 96 -110 96 -110 124 -64 c 2,28,-1
 165 1 l 1,29,-1
 71 500 l 1,30,-1
 162 500 l 1,31,-1
 212 174 l 1,32,-1
 223 85 l 1,33,-1
 281 184 l 1,34,-1
 471 500 l 1,35,-1
 557 500 l 1,16,-1
EndSplineSet
Substitution2: "Single Substitution lookup 57 subtable" ydieresis.swsh
Substitution2: "'swsh' Swash lookup 38 subtable" ydieresis.swsh
Substitution2: "'smcp' Lowercase to Small Capitals lookup 12 subtable" ydieresis.sc
AlternateSubs2: "'aalt' Access All Alternates lookup 1 subtable" ydieresis.sc ydieresis.swsh
EndChar

StartChar: Amacron
Encoding: 256 256 194
Width: 660
GlyphClass: 2
Flags: W
LayerCount: 2
Fore
SplineSet
618 823 m 1,0,-1
 603 756 l 1,1,-1
 255 756 l 1,2,-1
 270 823 l 1,3,-1
 618 823 l 1,0,-1
473 0 m 1,4,-1
 445 183 l 1,5,-1
 146 183 l 1,6,-1
 34 0 l 1,7,-1
 -50 0 l 1,8,-1
 359 660 l 1,9,-1
 454 660 l 1,10,-1
 558 0 l 1,11,-1
 473 0 l 1,4,-1
193 258 m 1,12,-1
 434 258 l 1,13,-1
 399 492 l 1,14,-1
 389 584 l 1,15,-1
 387 584 l 1,16,-1
 337 495 l 1,17,-1
 193 258 l 1,12,-1
EndSplineSet
Substitution2: "Single Substitution lookup 56 subtable" Amacron.swsh
Substitution2: "'swsh' Swash lookup 32 subtable" Amacron.swsh
Substitution2: "'c2sc' Capitals to Small Capitals lookup 11 subtable" amacron.sc
AlternateSubs2: "'aalt' Access All Alternates lookup 1 subtable" amacron.sc Amacron.swsh
EndChar

StartChar: amacron
Encoding: 257 257 195
Width: 566
GlyphClass: 2
Flags: W
LayerCount: 2
Fore
SplineSet
527 663 m 1,0,-1
 512 596 l 1,1,-1
 164 596 l 1,2,-1
 179 663 l 1,3,-1
 527 663 l 1,0,-1
440 58 m 256,4,5
 460 58 460 58 482 63 c 1,6,-1
 462 0 l 1,7,8
 432 -10 432 -10 400 -10 c 0,9,10
 361 -10 361 -10 342.5 7 c 128,-1,11
 324 24 324 24 327 64 c 1,12,13
 295 29 295 29 246.5 9.5 c 128,-1,14
 198 -10 198 -10 149 -10 c 0,15,16
 74 -10 74 -10 34.5 24.5 c 128,-1,17
 -5 59 -5 59 10 124 c 0,18,19
 23 181 23 181 82.5 222.5 c 128,-1,20
 142 264 142 264 241 280 c 2,21,-1
 379 302 l 1,22,-1
 385 330 l 2,23,24
 397 380 397 380 373 410 c 128,-1,25
 349 440 349 440 294 440 c 0,26,27
 191 440 191 440 129 345 c 1,28,-1
 80 388 l 1,29,30
 112 444 112 444 174.5 477 c 128,-1,31
 237 510 237 510 310 510 c 0,32,33
 399 510 399 510 443 467 c 128,-1,34
 487 424 487 424 467 340 c 2,35,-1
 411 94 l 2,36,37
 406 75 406 75 413 66.5 c 128,-1,38
 420 58 420 58 440 58 c 256,4,5
169 60 m 0,39,40
 231 60 231 60 284 90 c 128,-1,41
 337 120 337 120 348 168 c 2,42,-1
 364 237 l 1,43,-1
 247 216 l 2,44,45
 108 192 108 192 93 124 c 0,46,47
 85 93 85 93 105.5 76.5 c 128,-1,48
 126 60 126 60 169 60 c 0,39,40
EndSplineSet
Substitution2: "'smcp' Lowercase to Small Capitals lookup 12 subtable" amacron.sc
Substitution2: "'aalt' Access All Alternates lookup 0 subtable" amacron.sc
EndChar

StartChar: Abreve
Encoding: 258 258 196
Width: 660
GlyphClass: 2
Flags: W
LayerCount: 2
Fore
SplineSet
424 737 m 128,-1,1
 358 737 358 737 326.5 778 c 128,-1,2
 295 819 295 819 310 885 c 1,3,-1
 376 885 l 1,4,5
 368 849 368 849 385.5 823 c 128,-1,6
 403 797 403 797 438 797 c 128,-1,7
 473 797 473 797 502.5 823 c 128,-1,8
 532 849 532 849 540 885 c 1,9,-1
 606 885 l 1,10,11
 591 819 591 819 540.5 778 c 128,-1,0
 490 737 490 737 424 737 c 128,-1,1
473 0 m 1,12,-1
 445 183 l 1,13,-1
 146 183 l 1,14,-1
 34 0 l 1,15,-1
 -50 0 l 1,16,-1
 359 660 l 1,17,-1
 454 660 l 1,18,-1
 558 0 l 1,19,-1
 473 0 l 1,12,-1
193 258 m 1,20,-1
 434 258 l 1,21,-1
 399 492 l 1,22,-1
 389 584 l 1,23,-1
 387 584 l 1,24,-1
 337 495 l 1,25,-1
 193 258 l 1,20,-1
EndSplineSet
Substitution2: "Single Substitution lookup 56 subtable" Abreve.swsh
Substitution2: "'swsh' Swash lookup 32 subtable" Abreve.swsh
Substitution2: "'c2sc' Capitals to Small Capitals lookup 11 subtable" abreve.sc
AlternateSubs2: "'aalt' Access All Alternates lookup 1 subtable" abreve.sc Abreve.swsh
EndChar

StartChar: abreve
Encoding: 259 259 197
Width: 566
GlyphClass: 2
Flags: W
LayerCount: 2
Fore
SplineSet
333 577 m 128,-1,1
 267 577 267 577 235.5 618 c 128,-1,2
 204 659 204 659 219 725 c 1,3,-1
 285 725 l 1,4,5
 277 689 277 689 294.5 663 c 128,-1,6
 312 637 312 637 347 637 c 128,-1,7
 382 637 382 637 411.5 663 c 128,-1,8
 441 689 441 689 449 725 c 1,9,-1
 515 725 l 1,10,11
 500 659 500 659 449.5 618 c 128,-1,0
 399 577 399 577 333 577 c 128,-1,1
440 58 m 256,12,13
 460 58 460 58 482 63 c 1,14,-1
 462 0 l 1,15,16
 432 -10 432 -10 400 -10 c 0,17,18
 361 -10 361 -10 342.5 7 c 128,-1,19
 324 24 324 24 327 64 c 1,20,21
 295 29 295 29 246.5 9.5 c 128,-1,22
 198 -10 198 -10 149 -10 c 0,23,24
 74 -10 74 -10 34.5 24.5 c 128,-1,25
 -5 59 -5 59 10 124 c 0,26,27
 23 181 23 181 82.5 222.5 c 128,-1,28
 142 264 142 264 241 280 c 2,29,-1
 379 302 l 1,30,-1
 385 330 l 2,31,32
 397 380 397 380 373 410 c 128,-1,33
 349 440 349 440 294 440 c 0,34,35
 191 440 191 440 129 345 c 1,36,-1
 80 388 l 1,37,38
 112 444 112 444 174.5 477 c 128,-1,39
 237 510 237 510 310 510 c 0,40,41
 399 510 399 510 443 467 c 128,-1,42
 487 424 487 424 467 340 c 2,43,-1
 411 94 l 2,44,45
 406 75 406 75 413 66.5 c 128,-1,46
 420 58 420 58 440 58 c 256,12,13
169 60 m 0,47,48
 231 60 231 60 284 90 c 128,-1,49
 337 120 337 120 348 168 c 2,50,-1
 364 237 l 1,51,-1
 247 216 l 2,52,53
 108 192 108 192 93 124 c 0,54,55
 85 93 85 93 105.5 76.5 c 128,-1,56
 126 60 126 60 169 60 c 0,47,48
EndSplineSet
Substitution2: "'smcp' Lowercase to Small Capitals lookup 12 subtable" abreve.sc
Substitution2: "'aalt' Access All Alternates lookup 0 subtable" abreve.sc
EndChar

StartChar: Aogonek
Encoding: 260 260 198
Width: 660
GlyphClass: 2
Flags: W
LayerCount: 2
Fore
SplineSet
521 -145 m 1,0,-1
 525 -196 l 1,1,2
 493 -215 493 -215 438 -215 c 0,3,4
 384 -215 384 -215 358 -187.5 c 128,-1,5
 332 -160 332 -160 343 -111 c 0,6,7
 362 -28 362 -28 470 14 c 1,8,-1
 445 183 l 1,9,-1
 146 183 l 1,10,-1
 34 0 l 1,11,-1
 -50 0 l 1,12,-1
 359 660 l 1,13,-1
 454 660 l 1,14,-1
 558 0 l 1,15,16
 482 -23 482 -23 449.5 -48.5 c 128,-1,17
 417 -74 417 -74 410 -106 c 0,18,19
 404 -131 404 -131 418 -144.5 c 128,-1,20
 432 -158 432 -158 462 -158 c 0,21,22
 499 -158 499 -158 521 -145 c 1,0,-1
193 258 m 1,23,-1
 434 258 l 1,24,-1
 399 492 l 1,25,-1
 389 584 l 1,26,-1
 387 584 l 1,27,-1
 337 495 l 1,28,-1
 193 258 l 1,23,-1
EndSplineSet
Substitution2: "Single Substitution lookup 56 subtable" Aogonek.swsh
Substitution2: "'swsh' Swash lookup 32 subtable" Aogonek.swsh
Substitution2: "'c2sc' Capitals to Small Capitals lookup 11 subtable" aogonek.sc
AlternateSubs2: "'aalt' Access All Alternates lookup 1 subtable" aogonek.sc Aogonek.swsh
EndChar

StartChar: aogonek
Encoding: 261 261 199
Width: 566
GlyphClass: 2
Flags: W
LayerCount: 2
Fore
SplineSet
360 -158 m 0,0,1
 395 -158 395 -158 417 -146 c 1,2,-1
 422 -197 l 1,3,4
 389 -215 389 -215 340 -215 c 0,5,6
 287 -215 287 -215 261 -189 c 128,-1,7
 235 -163 235 -163 246 -119 c 0,8,9
 255 -79 255 -79 284.5 -49.5 c 128,-1,10
 314 -20 314 -20 364 3 c 1,11,12
 332 24 332 24 330 68 c 1,13,14
 299 32 299 32 249 11 c 128,-1,15
 199 -10 199 -10 149 -10 c 0,16,17
 74 -10 74 -10 34.5 24.5 c 128,-1,18
 -5 59 -5 59 10 124 c 0,19,20
 23 181 23 181 82.5 222.5 c 128,-1,21
 142 264 142 264 241 280 c 2,22,-1
 379 302 l 1,23,-1
 385 330 l 2,24,25
 397 380 397 380 373 410 c 128,-1,26
 349 440 349 440 294 440 c 0,27,28
 191 440 191 440 129 345 c 1,29,-1
 80 388 l 1,30,31
 112 444 112 444 174.5 477 c 128,-1,32
 237 510 237 510 310 510 c 0,33,34
 399 510 399 510 443 467 c 128,-1,35
 487 424 487 424 467 340 c 2,36,-1
 411 94 l 2,37,38
 406 75 406 75 413 66.5 c 128,-1,39
 420 58 420 58 440 58 c 256,40,41
 460 58 460 58 482 63 c 1,42,-1
 462 0 l 1,43,44
 452 -3 452 -3 450 -4 c 0,45,46
 383 -24 383 -24 352 -49 c 128,-1,47
 321 -74 321 -74 314 -105 c 0,48,49
 308 -130 308 -130 319.5 -144 c 128,-1,50
 331 -158 331 -158 360 -158 c 0,0,1
169 60 m 0,51,52
 231 60 231 60 284 90 c 128,-1,53
 337 120 337 120 348 168 c 2,54,-1
 364 237 l 1,55,-1
 247 216 l 2,56,57
 176 202 176 202 138.5 180 c 128,-1,58
 101 158 101 158 93 124 c 0,59,60
 85 93 85 93 105.5 76.5 c 128,-1,61
 126 60 126 60 169 60 c 0,51,52
EndSplineSet
Substitution2: "'smcp' Lowercase to Small Capitals lookup 12 subtable" aogonek.sc
Substitution2: "'aalt' Access All Alternates lookup 0 subtable" aogonek.sc
EndChar

StartChar: Cacute
Encoding: 262 262 200
Width: 686
GlyphClass: 2
Flags: W
LayerCount: 2
Fore
SplineSet
517 891 m 1,0,-1
 611 891 l 1,1,-1
 491 743 l 1,2,-1
 426 743 l 1,3,-1
 517 891 l 1,0,-1
603 169 m 1,4,5
 552 85 552 85 470.5 37.5 c 128,-1,6
 389 -10 389 -10 296 -10 c 0,7,8
 155 -10 155 -10 93.5 81.5 c 128,-1,9
 32 173 32 173 68 330 c 0,10,11
 104 486 104 486 208 578 c 128,-1,12
 312 670 312 670 451 670 c 0,13,14
 642 670 642 670 671 516 c 1,15,-1
 584 479 l 1,16,17
 566 595 566 595 439 595 c 0,18,19
 337 595 337 595 259 524.5 c 128,-1,20
 181 454 181 454 152 330 c 0,21,22
 124 206 124 206 167 135.5 c 128,-1,23
 210 65 210 65 313 65 c 0,24,25
 380 65 380 65 436.5 99 c 128,-1,26
 493 133 493 133 530 199 c 1,27,-1
 603 169 l 1,4,5
EndSplineSet
Substitution2: "'c2sc' Capitals to Small Capitals lookup 11 subtable" cacute.sc
Substitution2: "'aalt' Access All Alternates lookup 0 subtable" cacute.sc
EndChar

StartChar: cacute
Encoding: 263 263 201
Width: 564
GlyphClass: 2
Flags: W
LayerCount: 2
Fore
SplineSet
420 750 m 1,0,-1
 507 750 l 1,1,-1
 371 583 l 1,2,-1
 306 583 l 1,3,-1
 420 750 l 1,0,-1
346 510 m 0,4,5
 493 510 493 510 522 377 c 1,6,-1
 438 341 l 1,7,8
 428 440 428 440 328 440 c 0,9,10
 253 440 253 440 198.5 389.5 c 128,-1,11
 144 339 144 339 123.5 250 c 128,-1,12
 103 161 103 161 134 110.5 c 128,-1,13
 165 60 165 60 240 60 c 0,14,15
 356 60 356 60 404 163 c 1,16,-1
 472 137 l 1,17,18
 429 67 429 67 366.5 28.5 c 128,-1,19
 304 -10 304 -10 226 -10 c 0,20,21
 112 -10 112 -10 64 59 c 128,-1,22
 16 128 16 128 44 250 c 128,-1,23
 72 372 72 372 152.5 441 c 128,-1,24
 233 510 233 510 346 510 c 0,4,5
EndSplineSet
Substitution2: "'smcp' Lowercase to Small Capitals lookup 12 subtable" cacute.sc
Substitution2: "'aalt' Access All Alternates lookup 0 subtable" cacute.sc
EndChar

StartChar: Ccaron
Encoding: 268 268 202
Width: 686
GlyphClass: 2
Flags: W
LayerCount: 2
Fore
SplineSet
664 905 m 1,0,-1
 511 738 l 1,1,-1
 421 738 l 1,2,-1
 346 905 l 1,3,-1
 419 905 l 1,4,-1
 478 790 l 1,5,-1
 591 905 l 1,6,-1
 664 905 l 1,0,-1
603 169 m 1,7,8
 552 85 552 85 470.5 37.5 c 128,-1,9
 389 -10 389 -10 296 -10 c 0,10,11
 155 -10 155 -10 93.5 81.5 c 128,-1,12
 32 173 32 173 68 330 c 0,13,14
 104 486 104 486 208 578 c 128,-1,15
 312 670 312 670 451 670 c 0,16,17
 642 670 642 670 671 516 c 1,18,-1
 584 479 l 1,19,20
 566 595 566 595 439 595 c 0,21,22
 337 595 337 595 259 524.5 c 128,-1,23
 181 454 181 454 152 330 c 0,24,25
 124 206 124 206 167 135.5 c 128,-1,26
 210 65 210 65 313 65 c 0,27,28
 380 65 380 65 436.5 99 c 128,-1,29
 493 133 493 133 530 199 c 1,30,-1
 603 169 l 1,7,8
EndSplineSet
Substitution2: "'c2sc' Capitals to Small Capitals lookup 11 subtable" ccaron.sc
Substitution2: "'aalt' Access All Alternates lookup 0 subtable" ccaron.sc
EndChar

StartChar: ccaron
Encoding: 269 269 203
Width: 564
GlyphClass: 2
Flags: W
LayerCount: 2
Fore
SplineSet
551 750 m 1,0,-1
 401 583 l 1,1,-1
 309 583 l 1,2,-1
 235 750 l 1,3,-1
 308 750 l 1,4,-1
 368 639 l 1,5,-1
 478 750 l 1,6,-1
 551 750 l 1,0,-1
346 510 m 0,7,8
 493 510 493 510 522 377 c 1,9,-1
 438 341 l 1,10,11
 428 440 428 440 328 440 c 0,12,13
 253 440 253 440 198.5 389.5 c 128,-1,14
 144 339 144 339 123.5 250 c 128,-1,15
 103 161 103 161 134 110.5 c 128,-1,16
 165 60 165 60 240 60 c 0,17,18
 356 60 356 60 404 163 c 1,19,-1
 472 137 l 1,20,21
 429 67 429 67 366.5 28.5 c 128,-1,22
 304 -10 304 -10 226 -10 c 0,23,24
 112 -10 112 -10 64 59 c 128,-1,25
 16 128 16 128 44 250 c 128,-1,26
 72 372 72 372 152.5 441 c 128,-1,27
 233 510 233 510 346 510 c 0,7,8
EndSplineSet
Substitution2: "'smcp' Lowercase to Small Capitals lookup 12 subtable" ccaron.sc
Substitution2: "'aalt' Access All Alternates lookup 0 subtable" ccaron.sc
EndChar

StartChar: Dcaron
Encoding: 270 270 204
Width: 721
GlyphClass: 2
Flags: W
LayerCount: 2
Fore
SplineSet
464 738 m 1,0,-1
 374 738 l 1,1,-1
 299 905 l 1,2,-1
 372 905 l 1,3,-1
 431 790 l 1,4,-1
 544 905 l 1,5,-1
 617 905 l 1,6,-1
 464 738 l 1,0,-1
397 660 m 2,7,8
 554 660 554 660 622 574 c 128,-1,9
 690 488 690 488 653.5 330 c 128,-1,10
 617 172 617 172 509 86 c 128,-1,11
 401 0 401 0 245 0 c 2,12,-1
 32 0 l 1,13,-1
 184 660 l 1,14,-1
 397 660 l 2,7,8
270 75 m 2,15,16
 383 75 383 75 462 142.5 c 128,-1,17
 541 210 541 210 569 330 c 128,-1,18
 597 450 597 450 549 517.5 c 128,-1,19
 501 585 501 585 388 585 c 2,20,-1
 247 585 l 1,21,-1
 129 75 l 1,22,-1
 270 75 l 2,15,16
EndSplineSet
Substitution2: "'c2sc' Capitals to Small Capitals lookup 11 subtable" dcaron.sc
Substitution2: "'aalt' Access All Alternates lookup 0 subtable" dcaron.sc
EndChar

StartChar: dcaron
Encoding: 271 271 205
Width: 641
GlyphClass: 2
Flags: W
LayerCount: 2
Fore
SplineSet
478 422 m 1,0,-1
 550 730 l 1,1,-1
 630 730 l 1,2,-1
 461 0 l 1,3,-1
 391 0 l 1,4,-1
 406 87 l 1,5,6
 374 43 374 43 322.5 16.5 c 128,-1,7
 271 -10 271 -10 213 -10 c 0,8,9
 108 -10 108 -10 62.5 59.5 c 128,-1,10
 17 129 17 129 45 250 c 128,-1,11
 73 371 73 371 150.5 440.5 c 128,-1,12
 228 510 228 510 333 510 c 0,13,14
 388 510 388 510 426 486 c 128,-1,15
 464 462 464 462 478 422 c 1,0,-1
706 730 m 1,16,-1
 782 730 l 1,17,-1
 695 533 l 1,18,-1
 640 533 l 1,19,-1
 706 730 l 1,16,-1
238 60 m 0,20,21
 309 60 309 60 363.5 110 c 128,-1,22
 418 160 418 160 437 244 c 2,23,-1
 440 256 l 2,24,25
 460 340 460 340 428.5 390 c 128,-1,26
 397 440 397 440 326 440 c 0,27,28
 252 440 252 440 198.5 388.5 c 128,-1,29
 145 337 145 337 125 250 c 128,-1,30
 105 163 105 163 135 111.5 c 128,-1,31
 165 60 165 60 238 60 c 0,20,21
EndSplineSet
Substitution2: "'smcp' Lowercase to Small Capitals lookup 12 subtable" dcaron.sc
Substitution2: "'aalt' Access All Alternates lookup 0 subtable" dcaron.sc
EndChar

StartChar: Dcroat
Encoding: 272 272 206
Width: 737
GlyphClass: 2
Flags: W
LayerCount: 2
Fore
SplineSet
413 660 m 2,0,1
 570 660 570 660 638 574 c 128,-1,2
 706 488 706 488 669.5 330 c 128,-1,3
 633 172 633 172 525 86 c 128,-1,4
 417 0 417 0 261 0 c 2,5,-1
 48 0 l 1,6,-1
 118 303 l 1,7,-1
 20 303 l 1,8,-1
 34 363 l 1,9,-1
 132 363 l 1,10,-1
 200 660 l 1,11,-1
 413 660 l 2,0,1
286 75 m 2,12,13
 399 75 399 75 478 142.5 c 128,-1,14
 557 210 557 210 585 330 c 128,-1,15
 613 450 613 450 565 517.5 c 128,-1,16
 517 585 517 585 404 585 c 2,17,-1
 263 585 l 1,18,-1
 212 363 l 1,19,-1
 409 363 l 1,20,-1
 395 303 l 1,21,-1
 198 303 l 1,22,-1
 145 75 l 1,23,-1
 286 75 l 2,12,13
EndSplineSet
Substitution2: "'c2sc' Capitals to Small Capitals lookup 11 subtable" dcroat.sc
Substitution2: "'aalt' Access All Alternates lookup 0 subtable" dcroat.sc
EndChar

StartChar: dcroat
Encoding: 273 273 207
Width: 629
GlyphClass: 2
Flags: W
LayerCount: 2
Fore
SplineSet
683 627 m 1,0,-1
 669 566 l 1,1,-1
 592 566 l 1,2,-1
 461 0 l 1,3,-1
 391 0 l 1,4,-1
 406 87 l 1,5,6
 374 43 374 43 322.5 16.5 c 128,-1,7
 271 -10 271 -10 213 -10 c 0,8,9
 108 -10 108 -10 62.5 59.5 c 128,-1,10
 17 129 17 129 45 250 c 128,-1,11
 73 371 73 371 150.5 440.5 c 128,-1,12
 228 510 228 510 333 510 c 0,13,14
 388 510 388 510 426 486 c 128,-1,15
 464 462 464 462 478 422 c 1,16,-1
 512 566 l 1,17,-1
 355 566 l 1,18,-1
 369 627 l 1,19,-1
 526 627 l 1,20,-1
 550 730 l 1,21,-1
 630 730 l 1,22,-1
 606 627 l 1,23,-1
 683 627 l 1,0,-1
238 60 m 0,24,25
 309 60 309 60 363.5 110 c 128,-1,26
 418 160 418 160 437 244 c 2,27,-1
 440 256 l 2,28,29
 460 340 460 340 428.5 390 c 128,-1,30
 397 440 397 440 326 440 c 0,31,32
 252 440 252 440 198.5 388.5 c 128,-1,33
 145 337 145 337 125 250 c 128,-1,34
 105 163 105 163 135 111.5 c 128,-1,35
 165 60 165 60 238 60 c 0,24,25
EndSplineSet
Substitution2: "'smcp' Lowercase to Small Capitals lookup 12 subtable" dcroat.sc
Substitution2: "'aalt' Access All Alternates lookup 0 subtable" dcroat.sc
EndChar

StartChar: Emacron
Encoding: 274 274 208
Width: 638
GlyphClass: 2
Flags: W
AnchorPoint: "Anchor-0" 263 0 basechar 0
LayerCount: 2
Fore
SplineSet
627 823 m 1,0,-1
 612 756 l 1,1,-1
 264 756 l 1,2,-1
 279 823 l 1,3,-1
 627 823 l 1,0,-1
129 75 m 1,4,-1
 527 75 l 1,5,-1
 510 0 l 1,6,-1
 32 0 l 1,7,-1
 184 660 l 1,8,-1
 647 660 l 1,9,-1
 630 585 l 1,10,-1
 247 585 l 1,11,-1
 198 372 l 1,12,-1
 496 372 l 1,13,-1
 479 297 l 1,14,-1
 181 297 l 1,15,-1
 129 75 l 1,4,-1
EndSplineSet
Substitution2: "Single Substitution lookup 57 subtable" Emacron.swsh.001
Substitution2: "Single Substitution lookup 56 subtable" Emacron.swsh
AlternateSubs2: "'swsh' Swash lookup 33 subtable" Emacron.swsh Emacron.swsh.001
Substitution2: "'c2sc' Capitals to Small Capitals lookup 11 subtable" emacron.sc
AlternateSubs2: "'aalt' Access All Alternates lookup 1 subtable" emacron.sc Emacron.swsh Emacron.swsh.001
EndChar

StartChar: emacron
Encoding: 275 275 209
Width: 581
GlyphClass: 2
Flags: W
AnchorPoint: "Anchor-0" 228 0 basechar 0
LayerCount: 2
Fore
SplineSet
546 663 m 1,0,-1
 531 596 l 1,1,-1
 183 596 l 1,2,-1
 198 663 l 1,3,-1
 546 663 l 1,0,-1
510 276 m 0,4,5
 503 248 503 248 493 220 c 1,6,-1
 116 220 l 1,7,8
 106 144 106 144 139.5 102 c 128,-1,9
 173 60 173 60 242 60 c 0,10,11
 355 60 355 60 400 134 c 1,12,-1
 459 99 l 1,13,14
 373 -10 373 -10 226 -10 c 0,15,16
 112 -10 112 -10 64 59 c 128,-1,17
 16 128 16 128 44 250 c 256,18,19
 72 372 72 372 149.5 441 c 128,-1,20
 227 510 227 510 340 510 c 0,21,22
 445 510 445 510 489 443.5 c 128,-1,23
 533 377 533 377 510 276 c 0,4,5
324 440 m 0,24,25
 257 440 257 440 208 401 c 128,-1,26
 159 362 159 362 133 291 c 1,27,-1
 436 291 l 1,28,29
 444 361 444 361 415 400.5 c 128,-1,30
 386 440 386 440 324 440 c 0,24,25
EndSplineSet
Substitution2: "'smcp' Lowercase to Small Capitals lookup 12 subtable" emacron.sc
Substitution2: "'aalt' Access All Alternates lookup 0 subtable" emacron.sc
EndChar

StartChar: Edotaccent
Encoding: 278 278 210
Width: 638
GlyphClass: 2
Flags: W
AnchorPoint: "Anchor-0" 263 0 basechar 0
LayerCount: 2
Fore
SplineSet
438 756 m 128,-1,1
 411 756 411 756 398 772.5 c 128,-1,2
 385 789 385 789 391.5 816 c 128,-1,3
 398 843 398 843 418 859.5 c 128,-1,4
 438 876 438 876 465 876 c 128,-1,5
 492 876 492 876 505 859.5 c 128,-1,6
 518 843 518 843 511.5 816 c 128,-1,7
 505 789 505 789 485 772.5 c 128,-1,0
 465 756 465 756 438 756 c 128,-1,1
129 75 m 1,8,-1
 527 75 l 1,9,-1
 510 0 l 1,10,-1
 32 0 l 1,11,-1
 184 660 l 1,12,-1
 647 660 l 1,13,-1
 630 585 l 1,14,-1
 247 585 l 1,15,-1
 198 372 l 1,16,-1
 496 372 l 1,17,-1
 479 297 l 1,18,-1
 181 297 l 1,19,-1
 129 75 l 1,8,-1
EndSplineSet
Substitution2: "Single Substitution lookup 57 subtable" Edotaccent.swsh.001
Substitution2: "Single Substitution lookup 56 subtable" Edotaccent.swsh
AlternateSubs2: "'swsh' Swash lookup 33 subtable" Edotaccent.swsh Edotaccent.swsh.001
Substitution2: "'c2sc' Capitals to Small Capitals lookup 11 subtable" edotaccent.sc
AlternateSubs2: "'aalt' Access All Alternates lookup 1 subtable" edotaccent.sc Edotaccent.swsh Edotaccent.swsh.001
EndChar

